g Abstract_Castle_Block_0_25_Unit_Beige_Parapet_Corner_Right_01
v -0.0003871918 6.349709 -9.524757
v -0.0003871918 1.814259 -9.524757
v -3.17466 1.814259 -9.524757
v -3.17466 6.349709 -9.524757
v -0.0003871918 6.349709 -22.22495
v -3.17466 6.349709 -22.22495
v -3.17466 6.349709 -25.4
v -0.0003871918 6.349709 -25.4
v -0.0003871918 0.0003871918 0.0003871918
v -25.4 0.0003871918 0.0003871918
v -3.17466 1.814259 0.0003871918
v -0.0003871918 6.349709 0.0003871918
v -3.17466 6.349709 0.0003871918
v -22.22495 1.814259 0.0003871918
v -25.4 6.349709 0.0003871918
v -9.524759 1.814259 0.0003871918
v -15.87485 1.814259 0.0003871918
v -9.524759 6.349709 0.0003871918
v -15.87485 6.349709 0.0003871918
v -22.22495 6.349709 0.0003871918
v -3.17466 6.349709 -3.174662
v -3.17466 6.349709 0.0003871918
v -3.17466 1.814259 0.0003871918
v -3.17466 1.814259 -3.174662
v -3.17466 1.814259 -9.524757
v -3.17466 0.0003871918 -3.174662
v -3.17466 0.0003871918 -25.4
v -3.17466 1.814259 -15.87485
v -3.17466 6.349709 -15.87485
v -3.17466 6.349709 -9.524757
v -3.17466 1.814259 -22.22495
v -3.17466 6.349709 -25.4
v -3.17466 6.349709 -22.22495
v -15.87485 6.349709 -3.174662
v -15.87485 6.349709 0.0003871918
v -15.87485 1.814259 0.0003871918
v -15.87485 1.814259 -3.174662
v -22.22495 1.814259 -3.174662
v -22.22495 1.814259 0.0003871918
v -22.22495 6.349709 0.0003871918
v -22.22495 6.349709 -3.174662
v -3.17466 6.349709 -3.174662
v -3.17466 1.814259 -3.174662
v -0.0003871918 1.814259 -3.174662
v -0.0003871918 6.349709 -3.174662
v -22.22495 1.814259 -3.174662
v -3.17466 0.0003871918 -3.174662
v -25.4 0.0003871918 -3.174662
v -25.4 6.349709 -3.174662
v -22.22495 6.349709 -3.174662
v -15.87485 1.814259 -3.174662
v -9.524759 1.814259 -3.174662
v -15.87485 6.349709 -3.174662
v -9.524759 6.349709 -3.174662
v -0.0003871918 0.0003871918 -25.4
v -3.17466 0.0003871918 -25.4
v -3.17466 0.0003871918 -3.174662
v -0.0003871918 0.0003871918 0.0003871918
v -25.4 0.0003871918 0.0003871918
v -25.4 0.0003871918 -3.174662
v -9.524759 6.349709 0.0003871918
v -15.87485 6.349709 0.0003871918
v -15.87485 6.349709 -3.174662
v -9.524759 6.349709 -3.174662
v -0.0003871918 1.814259 -15.87485
v -3.17466 1.814259 -15.87485
v -3.17466 1.814259 -22.22495
v -0.0003871918 1.814259 -22.22495
v -0.0003871918 6.349709 -9.524757
v -3.17466 6.349709 -9.524757
v -3.17466 6.349709 -15.87485
v -0.0003871918 6.349709 -15.87485
v -0.0003871918 6.349709 -22.22495
v -0.0003871918 1.814259 -22.22495
v -3.17466 1.814259 -22.22495
v -3.17466 6.349709 -22.22495
v -15.87485 1.814259 0.0003871918
v -22.22495 1.814259 0.0003871918
v -22.22495 1.814259 -3.174662
v -15.87485 1.814259 -3.174662
v -0.0003871918 1.814259 -3.174662
v -3.17466 1.814259 -3.174662
v -3.17466 1.814259 -9.524757
v -0.0003871918 1.814259 -9.524757
v -9.524759 1.814259 -3.174662
v -3.17466 1.814259 0.0003871918
v -9.524759 1.814259 0.0003871918
v -3.17466 6.349709 -15.87485
v -3.17466 1.814259 -15.87485
v -0.0003871918 1.814259 -15.87485
v -0.0003871918 6.349709 -15.87485
v -0.0003871918 6.349709 0.0003871918
v -3.17466 6.349709 0.0003871918
v -3.17466 6.349709 -3.174662
v -0.0003871918 6.349709 -3.174662
v -25.4 6.349709 -3.174662
v -25.4 6.349709 0.0003871918
v -25.4 0.0003871918 0.0003871918
v -25.4 0.0003871918 -3.174662
v -0.0003871918 0.0003871918 0.0003871918
v -0.0003871918 6.349709 0.0003871918
v -0.0003871918 1.814259 -3.174662
v -0.0003871918 0.0003871918 -25.4
v -0.0003871918 1.814259 -9.524757
v -0.0003871918 1.814259 -15.87485
v -0.0003871918 6.349709 -9.524757
v -0.0003871918 1.814259 -22.22495
v -0.0003871918 6.349709 -22.22495
v -0.0003871918 6.349709 -25.4
v -0.0003871918 6.349709 -15.87485
v -0.0003871918 6.349709 -3.174662
v -9.524759 1.814259 -3.174662
v -9.524759 1.814259 0.0003871918
v -9.524759 6.349709 0.0003871918
v -9.524759 6.349709 -3.174662
v -25.4 6.349709 0.0003871918
v -25.4 6.349709 -3.174662
v -22.22495 6.349709 -3.174662
v -22.22495 6.349709 0.0003871918
v -3.17466 6.349709 -25.4
v -3.17466 0.0003871918 -25.4
v -0.0003871918 0.0003871918 -25.4
v -0.0003871918 6.349709 -25.4
vt 0.0003013611 9.842293
vt 0.0003013611 2.812386
vt -4.920998 2.812386
vt -4.920998 9.842293
vt 0.0003013611 34.44878
vt -4.920998 34.44878
vt -4.920998 39.37008
vt 0.0003013611 39.37008
vt 0.0003013611 0.0003013611
vt -39.37008 0.0003013611
vt -4.920998 2.812386
vt 0.0003013611 9.842293
vt -4.920998 9.842293
vt -34.44878 2.812386
vt -39.37008 9.842293
vt -14.76359 2.812386
vt -24.60619 2.812386
vt -14.76359 9.842293
vt -24.60619 9.842293
vt -34.44878 9.842293
vt -4.920998 9.842293
vt 0.0003013611 9.842293
vt 0.0003013611 2.812386
vt -4.920998 2.812386
vt -14.76359 2.812386
vt -4.920998 0.0003013611
vt -39.37008 0.0003013611
vt -24.60619 2.812386
vt -24.60619 9.842293
vt -14.76359 9.842293
vt -34.44878 2.812386
vt -39.37008 9.842293
vt -34.44878 9.842293
vt -4.920998 9.842293
vt 0.0003013611 9.842293
vt 0.0003013611 2.812386
vt -4.920998 2.812386
vt 4.920998 2.812386
vt 0.0003013611 2.812386
vt 0.0003013611 9.842293
vt 4.920998 9.842293
vt 4.920998 9.842293
vt 4.920998 2.812386
vt 0.0003013611 2.812386
vt 0.0003013611 9.842293
vt 34.44878 2.812386
vt 4.920998 0.0003013611
vt 39.37008 0.0003013611
vt 39.37008 9.842293
vt 34.44878 9.842293
vt 24.60619 2.812386
vt 14.76359 2.812386
vt 24.60619 9.842293
vt 14.76359 9.842293
vt 0.0003013611 39.37008
vt 4.920998 39.37008
vt 4.920998 4.920998
vt 0.0003013611 0.0003013611
vt 39.37008 0.0003013611
vt 39.37008 4.920998
vt -14.76359 0.0003013611
vt -24.60619 0.0003013611
vt -24.60619 4.920998
vt -14.76359 4.920998
vt 0.0003013611 24.60619
vt -4.920998 24.60619
vt -4.920998 34.44878
vt 0.0003013611 34.44878
vt 0.0003013611 14.76359
vt -4.920998 14.76359
vt -4.920998 24.60619
vt 0.0003013611 24.60619
vt 0.0003013611 9.842293
vt 0.0003013611 2.812386
vt -4.920998 2.812386
vt -4.920998 9.842293
vt -24.60619 0.0003013611
vt -34.44878 0.0003013611
vt -34.44878 4.920998
vt -24.60619 4.920998
vt 0.0003013611 4.920998
vt -4.920998 4.920998
vt -4.920998 14.76359
vt 0.0003013611 14.76359
vt -14.76359 4.920998
vt -4.920998 0.0003013611
vt -14.76359 0.0003013611
vt 4.920998 9.842293
vt 4.920998 2.812386
vt 0.0003013611 2.812386
vt 0.0003013611 9.842293
vt 0.0003013611 0.0003013611
vt -4.920998 0.0003013611
vt -4.920998 4.920998
vt 0.0003013611 4.920998
vt -4.920998 9.842293
vt 0.0003013611 9.842293
vt 0.0003013611 0.0003013611
vt -4.920998 0.0003013611
vt 0.0003013611 0.0003013611
vt 0.0003013611 9.842293
vt 4.920998 2.812386
vt 39.37008 0.0003013611
vt 14.76359 2.812386
vt 24.60619 2.812386
vt 14.76359 9.842293
vt 34.44878 2.812386
vt 34.44878 9.842293
vt 39.37008 9.842293
vt 24.60619 9.842293
vt 4.920998 9.842293
vt 4.920998 2.812386
vt 0.0003013611 2.812386
vt 0.0003013611 9.842293
vt 4.920998 9.842293
vt -39.37008 0.0003013611
vt -39.37008 4.920998
vt -34.44878 4.920998
vt -34.44878 0.0003013611
vt 4.920998 9.842293
vt 4.920998 0.0003013611
vt 0.0003013611 0.0003013611
vt 0.0003013611 9.842293
vn -0.003921509 0.003921509 0.9999846
vn -0.003921509 0.003921509 0.9999846
vn -0.003921509 0.003921509 0.9999846
vn -0.003921509 0.003921509 0.9999846
vn -0.003921509 0.9999923 -0.000345267
vn -0.003921509 0.9999923 -0.000345267
vn -0.003921509 0.9999923 -0.000345267
vn -0.003921509 0.9999923 -0.000345267
vn -0.003921509 0.003921509 0.9999846
vn -0.003921509 0.003921509 0.9999846
vn -0.003921509 0.003921509 0.9999846
vn -0.003921509 0.003921509 0.9999846
vn -0.003921509 0.003921509 0.9999846
vn -0.003921509 0.003921509 0.9999846
vn -0.003921509 0.003921509 0.9999846
vn -0.003921509 0.003921509 0.9999846
vn -0.003921509 0.003921509 0.9999846
vn -0.003921509 0.003921509 0.9999846
vn -0.003921509 0.003921509 0.9999846
vn -0.003921509 0.003921509 0.9999846
vn -0.9999923 0.003921509 -0.0003449296
vn -0.9999923 0.003921509 -0.0003449296
vn -0.9999923 0.003921509 -0.0003449296
vn -0.9999923 0.003921509 -0.0003449296
vn -0.9999923 0.003921509 -0.0003449296
vn -0.9999923 0.003921509 -0.0003449296
vn -0.9999923 0.003921509 -0.0003449296
vn -0.9999923 0.003921509 -0.0003449296
vn -0.9999923 0.003921509 -0.0003449296
vn -0.9999923 0.003921509 -0.0003449296
vn -0.9999923 0.003921509 -0.0003449296
vn -0.9999923 0.003921509 -0.0003449296
vn -0.9999923 0.003921509 -0.0003449296
vn -0.9999923 0.003921509 -0.0003449296
vn -0.9999923 0.003921509 -0.0003449296
vn -0.9999923 0.003921509 -0.0003449296
vn -0.9999923 0.003921509 -0.0003449296
vn 0.9999924 0.003921509 0
vn 0.9999924 0.003921509 0
vn 0.9999924 0.003921509 0
vn 0.9999924 0.003921509 0
vn -0.003921509 0.003921509 -0.9999846
vn -0.003921509 0.003921509 -0.9999846
vn -0.003921509 0.003921509 -0.9999846
vn -0.003921509 0.003921509 -0.9999846
vn -0.003921509 0.003921509 -0.9999846
vn -0.003921509 0.003921509 -0.9999846
vn -0.003921509 0.003921509 -0.9999846
vn -0.003921509 0.003921509 -0.9999846
vn -0.003921509 0.003921509 -0.9999846
vn -0.003921509 0.003921509 -0.9999846
vn -0.003921509 0.003921509 -0.9999846
vn -0.003921509 0.003921509 -0.9999846
vn -0.003921509 0.003921509 -0.9999846
vn -0.003921509 -0.9999924 0
vn -0.003921509 -0.9999924 0
vn -0.003921509 -0.9999924 0
vn -0.003921509 -0.9999924 0
vn -0.003921509 -0.9999924 0
vn -0.003921509 -0.9999924 0
vn -0.003921509 0.9999923 -0.000345267
vn -0.003921509 0.9999923 -0.000345267
vn -0.003921509 0.9999923 -0.000345267
vn -0.003921509 0.9999923 -0.000345267
vn -0.003921509 0.9999923 -0.000345267
vn -0.003921509 0.9999923 -0.000345267
vn -0.003921509 0.9999923 -0.000345267
vn -0.003921509 0.9999923 -0.000345267
vn -0.003921509 0.9999923 -0.000345267
vn -0.003921509 0.9999923 -0.000345267
vn -0.003921509 0.9999923 -0.000345267
vn -0.003921509 0.9999923 -0.000345267
vn -0.003921509 0.003921509 0.9999846
vn -0.003921509 0.003921509 0.9999846
vn -0.003921509 0.003921509 0.9999846
vn -0.003921509 0.003921509 0.9999846
vn -0.003921509 0.9999923 -0.000345267
vn -0.003921509 0.9999923 -0.000345267
vn -0.003921509 0.9999923 -0.000345267
vn -0.003921509 0.9999923 -0.000345267
vn -0.003921509 0.9999923 -0.000345267
vn -0.003921509 0.9999923 -0.000345267
vn -0.003921509 0.9999923 -0.000345267
vn -0.003921509 0.9999923 -0.000345267
vn -0.003921509 0.9999923 -0.000345267
vn -0.003921509 0.9999923 -0.000345267
vn -0.003921509 0.9999923 -0.000345267
vn -0.003921509 0.003921509 -0.9999846
vn -0.003921509 0.003921509 -0.9999846
vn -0.003921509 0.003921509 -0.9999846
vn -0.003921509 0.003921509 -0.9999846
vn -0.003921509 0.9999923 -0.000345267
vn -0.003921509 0.9999923 -0.000345267
vn -0.003921509 0.9999923 -0.000345267
vn -0.003921509 0.9999923 -0.000345267
vn -0.9999923 0.003921509 -0.0003449296
vn -0.9999923 0.003921509 -0.0003449296
vn -0.9999923 0.003921509 -0.0003449296
vn -0.9999923 0.003921509 -0.0003449296
vn 0.9999924 0.003921509 0
vn 0.9999924 0.003921509 0
vn 0.9999924 0.003921509 0
vn 0.9999924 0.003921509 0
vn 0.9999924 0.003921509 0
vn 0.9999924 0.003921509 0
vn 0.9999924 0.003921509 0
vn 0.9999924 0.003921509 0
vn 0.9999924 0.003921509 0
vn 0.9999924 0.003921509 0
vn 0.9999924 0.003921509 0
vn 0.9999924 0.003921509 0
vn 0.9999924 0.003921509 0
vn 0.9999924 0.003921509 0
vn 0.9999924 0.003921509 0
vn 0.9999924 0.003921509 0
vn -0.003921509 0.9999923 -0.000345267
vn -0.003921509 0.9999923 -0.000345267
vn -0.003921509 0.9999923 -0.000345267
vn -0.003921509 0.9999923 -0.000345267
vn -0.003921509 0.003921509 -0.9999846
vn -0.003921509 0.003921509 -0.9999846
vn -0.003921509 0.003921509 -0.9999846
vn -0.003921509 0.003921509 -0.9999846
g Abstract_Castle_Block_0_25_Unit_Beige_Parapet_Corner_Right_01_0
f 3/3/3 2/2/2 1/1/1
f 1/1/1 4/4/4 3/3/3
f 7/7/7 6/6/6 5/5/5
f 5/5/5 8/8/8 7/7/7
f 11/11/11 10/10/10 9/9/9
f 9/9/9 12/12/12 11/11/11
f 12/12/12 13/13/13 11/11/11
f 10/10/10 11/11/11 14/14/14
f 14/14/14 15/15/15 10/10/10
f 11/11/11 16/16/16 14/14/14
f 16/16/16 17/17/17 14/14/14
f 17/17/17 16/16/16 18/18/18
f 18/18/18 19/19/19 17/17/17
f 14/14/14 20/20/20 15/15/15
f 23/23/23 22/22/22 21/21/21
f 21/21/21 24/24/24 23/23/23
f 26/26/26 24/24/24 25/25/25
f 25/25/25 27/27/27 26/26/26
f 25/25/25 28/28/28 27/27/27
f 25/25/25 29/29/29 28/28/28
f 25/25/25 30/30/30 29/29/29
f 28/28/28 31/31/31 27/27/27
f 31/31/31 32/32/32 27/27/27
f 31/31/31 33/33/33 32/32/32
f 36/36/36 35/35/35 34/34/34
f 34/34/34 37/37/37 36/36/36
f 40/40/40 39/39/39 38/38/38
f 38/38/38 41/41/41 40/40/40
f 44/44/44 43/43/43 42/42/42
f 42/42/42 45/45/45 44/44/44
f 43/43/43 47/47/47 46/46/46
f 46/46/46 47/47/47 48/48/48
f 48/48/48 49/49/49 46/46/46
f 49/49/49 50/50/50 46/46/46
f 46/46/46 51/51/51 43/43/43
f 51/51/51 52/52/52 43/43/43
f 52/52/52 51/51/51 53/53/53
f 53/53/53 54/54/54 52/52/52
f 57/57/57 56/56/56 55/55/55
f 55/55/55 58/58/58 57/57/57
f 57/57/57 58/58/58 59/59/59
f 59/59/59 60/60/60 57/57/57
f 63/63/63 62/62/62 61/61/61
f 61/61/61 64/64/64 63/63/63
f 67/67/67 66/66/66 65/65/65
f 65/65/65 68/68/68 67/67/67
f 71/71/71 70/70/70 69/69/69
f 69/69/69 72/72/72 71/71/71
f 75/75/75 74/74/74 73/73/73
f 73/73/73 76/76/76 75/75/75
f 79/79/79 78/78/78 77/77/77
f 77/77/77 80/80/80 79/79/79
f 83/83/83 82/82/82 81/81/81
f 81/81/81 84/84/84 83/83/83
f 86/86/86 82/82/82 85/85/85
f 85/85/85 87/87/87 86/86/86
f 90/90/90 89/89/89 88/88/88
f 88/88/88 91/91/91 90/90/90
f 94/94/94 93/93/93 92/92/92
f 92/92/92 95/95/95 94/94/94
f 98/98/98 97/97/97 96/96/96
f 96/96/96 99/99/99 98/98/98
f 102/102/102 101/101/101 100/100/100
f 100/100/100 103/103/103 102/102/102
f 103/103/103 104/104/104 102/102/102
f 103/103/103 105/105/105 104/104/104
f 105/105/105 106/106/106 104/104/104
f 103/103/103 107/107/107 105/105/105
f 103/103/103 108/108/108 107/107/107
f 103/103/103 109/109/109 108/108/108
f 106/106/106 105/105/105 110/110/110
f 101/101/101 102/102/102 111/111/111
f 114/114/114 113/113/113 112/112/112
f 112/112/112 115/115/115 114/114/114
f 118/118/118 117/117/117 116/116/116
f 116/116/116 119/119/119 118/118/118
f 122/122/122 121/121/121 120/120/120
f 120/120/120 123/123/123 122/122/122
