g default
v 1 -0.5 -0.5
v 0 -0.5 -0.5
v 0 -0.5 0.5
v 1 -0.5 0.5
v 1 0.5 -0.5
v 1 0.5 0.5
v 0 0.5 0.5
v 0 0.5 -0.5
v 1 -0.5 -0.5
v 1 -0.5 0.5
v 1 0.5 0.5
v 1 0.5 -0.5
v 1 -0.5 0.5
v 0 -0.5 0.5
v 0 0.5 0.5
v 1 0.5 0.5
v 0 -0.5 0.5
v 0 -0.5 -0.5
v 0 0.5 -0.5
v 0 0.5 0.5
v 1 0.5 -0.5
v 0 0.5 -0.5
v 0 -0.5 -0.5
v 1 -0.5 -0.5
vt 0.6666667 0.3333333
vt 0.6666667 0
vt 0.3333333 0
vt 0.3333333 0.3333333
vt 0.3333333 0.6666667
vt 0.6666667 0.6666667
vt 0.6666667 0.3333333
vt 0.3333333 0.3333333
vt 0.3333333 0.3333333
vt 0.3333333 0
vt 0 0
vt 0 0.3333333
vt 0 0.6666667
vt 0.3333333 0.6666667
vt 0.3333333 0.3333333
vt 0 0.3333333
vt 0.3333333 1
vt 0.3333333 0.6666667
vt 0 0.6666667
vt 0 1
vt 1 0.3333333
vt 1 0
vt 0.6666667 0
vt 0.6666667 0.3333333
vn -0.003921509 -0.9999924 0
vn -0.003921509 -0.9999924 0
vn -0.003921509 -0.9999924 0
vn -0.003921509 -0.9999924 0
vn -0.003921509 0.9999923 -0.000345267
vn -0.003921509 0.9999923 -0.000345267
vn -0.003921509 0.9999923 -0.000345267
vn -0.003921509 0.9999923 -0.000345267
vn 0.9999924 0.003921509 0
vn 0.9999924 0.003921509 0
vn 0.9999924 0.003921509 0
vn 0.9999924 0.003921509 0
vn -0.003921509 0.003921509 0.9999846
vn -0.003921509 0.003921509 0.9999846
vn -0.003921509 0.003921509 0.9999846
vn -0.003921509 0.003921509 0.9999846
vn -0.9999923 0.003921509 -0.0003449296
vn -0.9999923 0.003921509 -0.0003449296
vn -0.9999923 0.003921509 -0.0003449296
vn -0.9999923 0.003921509 -0.0003449296
vn -0.003921509 0.003921509 -0.9999846
vn -0.003921509 0.003921509 -0.9999846
vn -0.003921509 0.003921509 -0.9999846
vn -0.003921509 0.003921509 -0.9999846
g default_0
f 3/3/3 2/2/2 1/1/1
f 4/4/4 3/3/3 1/1/1
f 7/7/7 6/6/6 5/5/5
f 8/8/8 7/7/7 5/5/5
f 11/11/11 10/10/10 9/9/9
f 12/12/12 11/11/11 9/9/9
f 15/15/15 14/14/14 13/13/13
f 16/16/16 15/15/15 13/13/13
f 19/19/19 18/18/18 17/17/17
f 20/20/20 19/19/19 17/17/17
f 23/23/23 22/22/22 21/21/21
f 24/24/24 23/23/23 21/21/21
