g Frame
v -0.6719871 -0.6719872 0.84
v 0.84 -0.6719872 0.84
v 0.84 -0.84 0.84
v -0.84 -0.84 0.84
v -0.6719871 0.6720127 0.84
v -0.84 0.84 0.84
v 0.84 0.6720127 0.84
v 0.84 0.84 0.84
v 0.84 -0.6719872 -0.6719872
v 0.84 -0.84 -0.84
v 0.84 -0.84 0.84
v 0.84 -0.6719872 0.84
v 0.84 0.84 -0.84
v 0.84 0.6720127 -0.6719872
v 0.84 0.84 0.84
v 0.84 0.6720127 0.84
v 0.84 0.84 -0.84
v -0.84 0.84 -0.84
v -0.84 0.6720127 -0.84
v 0.6719872 0.6720127 -0.84
v 0.6719872 -0.6719872 -0.84
v 0.84 -0.84 -0.84
v -0.84 -0.84 -0.84
v -0.84 -0.6719872 -0.84
v -0.84 -0.84 0.84
v -0.84 -0.84 -0.84
v -0.84 -0.6719872 -0.84
v -0.84 -0.6719872 0.6719871
v -0.84 0.6720127 0.6719871
v -0.84 0.84 0.84
v -0.84 0.6720127 -0.84
v -0.84 0.84 -0.84
v -0.6720127 0.6720127 0.6720127
v -0.6720127 -0.6719872 0.6720127
v -0.6719871 -0.6719872 0.84
v -0.6719871 0.6720127 0.84
v 0.6719872 0.6720127 -0.6719872
v 0.6719872 -0.6719872 -0.6719872
v 0.6719872 -0.6719872 -0.84
v 0.6719872 0.6720127 -0.84
v 0.84 -0.6719872 0.84
v -0.6719871 -0.6719872 0.84
v -0.6720127 -0.6719872 0.6720127
v 0.6719872 -0.6719872 0.6720127
v 0.84 -0.6719872 -0.6719872
v 0.6719872 -0.6719872 -0.6719872
v 0.6719872 0.6720127 -0.6719872
v 0.84 0.6720127 -0.6719872
v 0.84 -0.6719872 -0.6719872
v 0.6719872 -0.6719872 -0.6719872
v -0.6720127 0.6720127 -0.6719872
v 0.6719872 0.84 -0.6719872
v -0.6719871 0.84 -0.6719872
v 0.6719872 0.6720127 0.6720127
v 0.84 0.6720127 0.84
v 0.84 0.6720127 -0.6719872
v 0.6719872 0.6720127 -0.6719872
v -0.6719871 0.6720127 0.84
v -0.6720127 0.6720127 0.6720127
v -0.84 -0.6719872 -0.84
v 0.6719872 -0.6719872 -0.84
v 0.6719872 -0.6719872 -0.6719872
v -0.6720127 -0.6719872 -0.6719872
v -0.6720127 -0.6719872 0.6720127
v -0.84 -0.6719872 0.6719871
v -0.84 0.6720127 0.6719871
v -0.84 -0.6719872 0.6719871
v -0.6720127 -0.6719872 0.6720127
v -0.6720127 0.6720127 0.6720127
v -0.6719871 -0.84 0.6719871
v 0.6719872 -0.84 0.6719871
v 0.6719872 -0.6719872 0.6720127
v 0.6719872 0.6720127 -0.6719872
v 0.6719872 0.6720127 -0.84
v -0.84 0.6720127 -0.84
v -0.6720127 0.6720127 -0.6719872
v -0.84 0.6720127 0.6719871
v -0.6720127 0.6720127 0.6720127
v -0.6720127 -0.6719872 -0.6719872
v -0.6719871 -0.84 -0.6719872
v -0.6719871 -0.84 0.6719871
v -0.6720127 -0.6719872 0.6720127
v 0.6719872 -0.6719872 -0.6719872
v 0.6719872 -0.84 -0.6719872
v -0.6719871 -0.84 -0.6719872
v -0.6720127 -0.6719872 -0.6719872
v 0.6719872 -0.6719872 0.6720127
v 0.6719872 -0.84 0.6719871
v 0.6719872 -0.84 -0.6719872
v 0.6719872 -0.6719872 -0.6719872
v 0.6719872 0.6720127 0.6720127
v 0.6719872 0.84 0.6719871
v -0.6719871 0.84 0.6719871
v -0.6720127 0.6720127 0.6720127
v 0.6719872 0.6720127 -0.6719872
v 0.6719872 0.84 -0.6719872
v 0.6719872 0.84 0.6719871
v 0.6719872 0.6720127 0.6720127
v -0.6720127 0.6720127 0.6720127
v -0.6719871 0.84 0.6719871
v -0.6719871 0.84 -0.6719872
v -0.6720127 0.6720127 -0.6719872
v 0.6719872 -0.84 -0.6719872
v 0.84 -0.84 -0.84
v -0.84 -0.84 -0.84
v -0.6719871 -0.84 -0.6719872
v 0.84 -0.84 0.84
v 0.84 -0.84 -0.84
v 0.6719872 -0.84 0.6719871
v -0.84 -0.84 0.84
v -0.84 -0.84 -0.84
v -0.6719871 -0.84 0.6719871
v -0.84 0.84 -0.84
v -0.6719871 0.84 -0.6719872
v -0.6719871 0.84 0.6719871
v -0.84 0.84 0.84
v 0.6719872 0.84 -0.6719872
v 0.84 0.84 -0.84
v 0.6719872 0.84 -0.6719872
v -0.6719871 0.84 -0.6719872
v -0.84 0.84 -0.84
v 0.84 0.84 0.84
v -0.84 0.84 0.84
v -0.6719871 0.84 0.6719871
v 0.6719872 0.84 0.6719871
v 0.6719872 0.84 -0.6719872
v 0.84 0.84 -0.84
v 0.84 0.84 0.84
v 0.6719872 0.84 0.6719871
v 0.6719872 0.84 -0.6719872
v -0.84 -0.84 0.84
v 0.6719872 -0.84 0.6719871
v -0.6719871 -0.84 0.6719871
v -0.84 -0.84 -0.84
v -0.6719871 -0.84 -0.6719872
vt 0.1001466 0.1001466
vt 1 0.1001466
vt 1 0
vt 0 0
vt 0.1001466 0.8998535
vt 0 1
vt 1 0.8998535
vt 1 1
vt 0.8998535 0.1001466
vt 1 0
vt 0 0
vt 0 0.1001466
vt 1 1
vt 0.8998535 0.8998535
vt 0 1
vt 0 0.8998535
vt 0 1
vt 1 1
vt 1 0.8998535
vt 0.1001466 0.8998535
vt 0.1001466 0.1001466
vt 0 0
vt 1 0
vt 1 0.1001466
vt 1 0
vt 0 0
vt 0 0.1001466
vt 0.8998535 0.1001466
vt 0.8998535 0.8998535
vt 1 1
vt 0 0.8998535
vt 0 1
vt 0.1001466 0.8998535
vt 0.1001466 0.1001466
vt 0.1001466 0.1001466
vt 0.1001466 0.8998535
vt 0.1001466 0.8998535
vt 0.1001466 0.1001466
vt 0.1001466 0.1001466
vt 0.1001466 0.8998535
vt 1 0.1001466
vt 0.1001466 0.1001466
vt 0.1001466 0.1001466
vt 0.8998535 0.1001466
vt 0.8998535 0.1001466
vt 0.8998535 0.1001466
vt 0.8998535 0.8998535
vt 0.8998535 0.8998535
vt 0.8998535 0.1001466
vt 0.8998535 0.1001466
vt 0.1001466 0.8998535
vt 0.8998535 0.8998535
vt 0.1001466 0.8998535
vt 0.1001466 0.8998535
vt 1 0.8998535
vt 0.8998535 0.8998535
vt 0.8998535 0.8998535
vt 0.1001466 0.8998535
vt 0.1001466 0.8998535
vt 1 0.1001466
vt 0.1001466 0.1001466
vt 0.1001466 0.1001466
vt 0.8998535 0.1001466
vt 0.8998535 0.1001466
vt 0.8998535 0.1001466
vt 0.8998535 0.8998535
vt 0.8998535 0.1001466
vt 0.8998535 0.1001466
vt 0.8998535 0.8998535
vt 0.8998535 0.1001466
vt 0.1001466 0.1001466
vt 0.1001466 0.1001466
vt 0.1001466 0.8998535
vt 0.1001466 0.8998535
vt 1 0.8998535
vt 0.1001466 0.8998535
vt 0.8998535 0.8998535
vt 0.8998535 0.8998535
vt 0.8998535 0.8998535
vt 0.8998535 0.8998535
vt 0.8998535 0.1001466
vt 0.8998535 0.1001466
vt 0.1001466 0.8998535
vt 0.1001466 0.8998535
vt 0.8998535 0.8998535
vt 0.8998535 0.8998535
vt 0.1001466 0.1001466
vt 0.1001466 0.1001466
vt 0.1001466 0.8998535
vt 0.1001466 0.8998535
vt 0.8998535 0.1001466
vt 0.8998535 0.1001466
vt 0.1001466 0.1001466
vt 0.1001466 0.1001466
vt 0.8998535 0.8998535
vt 0.8998535 0.8998535
vt 0.8998535 0.1001466
vt 0.8998535 0.1001466
vt 0.1001466 0.1001466
vt 0.1001466 0.1001466
vt 0.1001466 0.8998535
vt 0.1001466 0.8998535
vt 0.1001466 0.1001466
vt 0 0
vt 1 0
vt 0.8998535 0.1001466
vt 1 0
vt 1 0
vt 0.1001466 0.1001466
vt 1 0
vt 1 0
vt 0.8998535 0.1001466
vt 0 0
vt 0.1001466 0.1001466
vt 0.8998535 0.1001466
vt 1 0
vt 0.8998535 0.8998535
vt 0 1
vt 0.8998535 0.8998535
vt 0.1001466 0.8998535
vt 0 0
vt 0 1
vt 0 1
vt 0.8998535 0.1001466
vt 0.8998535 0.1001466
vt 0.8998535 0.8998535
vt 0 1
vt 0 1
vt 0.8998535 0.1001466
vt 0.8998535 0.8998535
vt 1 0
vt 0.1001466 0.1001466
vt 0.8998535 0.1001466
vt 1 0
vt 0.8998535 0.8998535
vn -0.003921509 0.003921509 0.9999846
vn -0.003921509 0.003921509 0.9999846
vn -0.003921509 0.003921509 0.9999846
vn -0.003921509 0.003921509 0.9999846
vn -0.003921509 0.003921509 0.9999846
vn -0.003921509 0.003921509 0.9999846
vn -0.003921509 0.003921509 0.9999846
vn -0.003921509 0.003921509 0.9999846
vn 0.9999924 0.003921509 0
vn 0.9999924 0.003921509 0
vn 0.9999924 0.003921509 0
vn 0.9999924 0.003921509 0
vn 0.9999924 0.003921509 0
vn 0.9999924 0.003921509 0
vn 0.9999924 0.003921509 0
vn 0.9999924 0.003921509 0
vn -0.003921509 0.003921509 -0.9999846
vn -0.003921509 0.003921509 -0.9999846
vn -0.003921509 0.003921509 -0.9999846
vn -0.003921509 0.003921509 -0.9999846
vn -0.003921509 0.003921509 -0.9999846
vn -0.003921509 0.003921509 -0.9999846
vn -0.003921509 0.003921509 -0.9999846
vn -0.003921509 0.003921509 -0.9999846
vn -0.9999923 0.003921509 -0.0003449296
vn -0.9999923 0.003921509 -0.0003449296
vn -0.9999923 0.003921509 -0.0003449296
vn -0.9999923 0.003921509 -0.0003449296
vn -0.9999923 0.003921509 -0.0003449296
vn -0.9999923 0.003921509 -0.0003449296
vn -0.9999923 0.003921509 -0.0003449296
vn -0.9999923 0.003921509 -0.0003449296
vn 0.9999924 0.003921509 0
vn 0.9999924 0.003921509 0
vn 0.9999924 0.003921509 0
vn 0.9999924 0.003921509 0
vn -0.9999923 0.003921509 -0.0003449296
vn -0.9999923 0.003921509 -0.0003449296
vn -0.9999923 0.003921509 -0.0003449296
vn -0.9999923 0.003921509 -0.0003449296
vn -0.003921509 0.9999923 -0.000345267
vn -0.003921509 0.9999923 -0.000345267
vn -0.003921509 0.9999923 -0.000345267
vn -0.003921509 0.9999923 -0.000345267
vn -0.003921509 0.9999923 -0.000345267
vn -0.003921509 0.9999923 -0.000345267
vn -0.003921509 0.003921509 0.9999846
vn -0.003921509 0.003921509 0.9999846
vn -0.003921509 0.003921509 0.9999846
vn -0.003921509 0.003921509 0.9999846
vn -0.003921509 0.003921509 0.9999846
vn -0.003921509 0.003921509 0.9999846
vn -0.003921509 0.003921509 0.9999846
vn -0.003921509 -0.9999924 0
vn -0.003921509 -0.9999924 0
vn -0.003921509 -0.9999924 0
vn -0.003921509 -0.9999924 0
vn -0.003921509 -0.9999924 0
vn -0.003921509 -0.9999924 0
vn -0.003921509 0.9999923 -0.000345267
vn -0.003921509 0.9999923 -0.000345267
vn -0.003921509 0.9999923 -0.000345267
vn -0.003921509 0.9999923 -0.000345267
vn -0.003921509 0.9999923 -0.000345267
vn -0.003921509 0.9999923 -0.000345267
vn -0.003921509 0.003921509 -0.9999846
vn -0.003921509 0.003921509 -0.9999846
vn -0.003921509 0.003921509 -0.9999846
vn -0.003921509 0.003921509 -0.9999846
vn -0.003921509 0.003921509 -0.9999846
vn -0.003921509 0.003921509 -0.9999846
vn -0.003921509 0.003921509 -0.9999846
vn -0.003921509 -0.9999924 0
vn -0.003921509 -0.9999924 0
vn -0.003921509 -0.9999924 0
vn -0.003921509 -0.9999924 0
vn -0.003921509 -0.9999924 0
vn -0.003921509 -0.9999924 0
vn 0.9999924 0.003921509 0
vn 0.9999924 0.003921509 0
vn 0.9999924 0.003921509 0
vn 0.9999924 0.003921509 0
vn -0.003921509 0.003921509 0.9999846
vn -0.003921509 0.003921509 0.9999846
vn -0.003921509 0.003921509 0.9999846
vn -0.003921509 0.003921509 0.9999846
vn -0.9999923 0.003921509 -0.0003449296
vn -0.9999923 0.003921509 -0.0003449296
vn -0.9999923 0.003921509 -0.0003449296
vn -0.9999923 0.003921509 -0.0003449296
vn -0.003921509 0.003921509 -0.9999846
vn -0.003921509 0.003921509 -0.9999846
vn -0.003921509 0.003921509 -0.9999846
vn -0.003921509 0.003921509 -0.9999846
vn -0.9999923 0.003921509 -0.0003449296
vn -0.9999923 0.003921509 -0.0003449296
vn -0.9999923 0.003921509 -0.0003449296
vn -0.9999923 0.003921509 -0.0003449296
vn 0.9999924 0.003921509 0
vn 0.9999924 0.003921509 0
vn 0.9999924 0.003921509 0
vn 0.9999924 0.003921509 0
vn -0.003921509 -0.9999924 0
vn -0.003921509 -0.9999924 0
vn -0.003921509 -0.9999924 0
vn -0.003921509 -0.9999924 0
vn -0.003921509 -0.9999924 0
vn -0.003921509 -0.9999924 0
vn -0.003921509 -0.9999924 0
vn -0.003921509 -0.9999924 0
vn -0.003921509 -0.9999924 0
vn -0.003921509 -0.9999924 0
vn -0.003921509 0.9999923 -0.000345267
vn -0.003921509 0.9999923 -0.000345267
vn -0.003921509 0.9999923 -0.000345267
vn -0.003921509 0.9999923 -0.000345267
vn -0.003921509 0.9999923 -0.000345267
vn -0.003921509 0.9999923 -0.000345267
vn -0.003921509 0.9999923 -0.000345267
vn -0.003921509 0.9999923 -0.000345267
vn -0.003921509 0.9999923 -0.000345267
vn -0.003921509 0.9999923 -0.000345267
vn -0.003921509 0.9999923 -0.000345267
vn -0.003921509 0.9999923 -0.000345267
vn -0.003921509 0.9999923 -0.000345267
vn -0.003921509 0.9999923 -0.000345267
vn -0.003921509 0.9999923 -0.000345267
vn -0.003921509 0.9999923 -0.000345267
vn -0.003921509 0.9999923 -0.000345267
vn -0.003921509 0.9999923 -0.000345267
vn -0.003921509 -0.9999924 0
vn -0.003921509 -0.9999924 0
vn -0.003921509 -0.9999924 0
vn -0.003921509 -0.9999924 0
vn -0.003921509 -0.9999924 0
g Frame_0
f 3/3/3 2/2/2 1/1/1
f 4/4/4 3/3/3 1/1/1
f 4/4/4 1/1/1 5/5/5
f 6/6/6 4/4/4 5/5/5
f 5/5/5 7/7/7 6/6/6
f 7/7/7 8/8/8 6/6/6
f 11/11/11 10/10/10 9/9/9
f 12/12/12 11/11/11 9/9/9
f 10/10/10 13/13/13 9/9/9
f 13/13/13 14/14/14 9/9/9
f 13/13/13 15/15/15 14/14/14
f 15/15/15 16/16/16 14/14/14
f 19/19/19 18/18/18 17/17/17
f 20/20/20 19/19/19 17/17/17
f 20/20/20 17/17/17 21/21/21
f 17/17/17 22/22/22 21/21/21
f 22/22/22 23/23/23 21/21/21
f 23/23/23 24/24/24 21/21/21
f 27/27/27 26/26/26 25/25/25
f 28/28/28 27/27/27 25/25/25
f 29/29/29 28/28/28 25/25/25
f 30/30/30 29/29/29 25/25/25
f 31/31/31 29/29/29 30/30/30
f 32/32/32 31/31/31 30/30/30
f 35/35/35 34/34/34 33/33/33
f 36/36/36 35/35/35 33/33/33
f 39/39/39 38/38/38 37/37/37
f 40/40/40 39/39/39 37/37/37
f 43/43/43 42/42/42 41/41/41
f 44/44/44 43/43/43 41/41/41
f 41/41/41 45/45/45 44/44/44
f 45/45/45 46/46/46 44/44/44
f 49/49/49 48/48/48 47/47/47
f 50/50/50 49/49/49 47/47/47
f 47/47/47 52/52/52 51/51/51
f 52/52/52 53/53/53 51/51/51
f 56/56/56 55/55/55 54/54/54
f 57/57/57 56/56/56 54/54/54
f 55/55/55 58/58/58 54/54/54
f 58/58/58 59/59/59 54/54/54
f 62/62/62 61/61/61 60/60/60
f 63/63/63 62/62/62 60/60/60
f 64/64/64 63/63/63 60/60/60
f 65/65/65 64/64/64 60/60/60
f 68/68/68 67/67/67 66/66/66
f 69/69/69 68/68/68 66/66/66
f 71/71/71 70/70/70 68/68/68
f 72/72/72 71/71/71 68/68/68
f 75/75/75 74/74/74 73/73/73
f 73/73/73 76/76/76 75/75/75
f 76/76/76 77/77/77 75/75/75
f 76/76/76 78/78/78 77/77/77
f 81/81/81 80/80/80 79/79/79
f 82/82/82 81/81/81 79/79/79
f 85/85/85 84/84/84 83/83/83
f 86/86/86 85/85/85 83/83/83
f 89/89/89 88/88/88 87/87/87
f 90/90/90 89/89/89 87/87/87
f 93/93/93 92/92/92 91/91/91
f 94/94/94 93/93/93 91/91/91
f 97/97/97 96/96/96 95/95/95
f 98/98/98 97/97/97 95/95/95
f 101/101/101 100/100/100 99/99/99
f 102/102/102 101/101/101 99/99/99
f 105/105/105 104/104/104 103/103/103
f 106/106/106 105/105/105 103/103/103
f 103/103/103 108/108/108 107/107/107
f 109/109/109 103/103/103 107/107/107
f 109/109/109 107/107/107 110/110/110
f 112/112/112 110/110/110 111/111/111
f 115/115/115 114/114/114 113/113/113
f 116/116/116 115/115/115 113/113/113
f 118/118/118 113/113/113 117/117/117
f 121/121/121 120/120/120 119/119/119
f 124/124/124 123/123/123 122/122/122
f 125/125/125 124/124/124 122/122/122
f 127/127/127 126/126/126 122/122/122
f 130/130/130 129/129/129 128/128/128
f 133/133/133 132/132/132 131/131/131
f 135/135/135 133/133/133 134/134/134
