g Object021
v -5.890257E-08 0.3682915 0.003653604
v 0.01496851 0.2878946 0.003677832
v -5.076207E-08 0.3378159 0.08537444
v -4.131713E-08 0.277437 0.07863331
v 0.03385567 0.2285061 0.003741222
v -3.059517E-08 0.2247957 0.1026293
v 0.07581159 0.1462299 0.003722661
v -1.431249E-08 0.1313752 0.1574803
v 0.1039356 0.04826032 0.003720237
v 2.567297E-09 0.03671042 0.1943355
v 0.09716928 -0.06434651 0.00359027
v 2.431315E-08 -0.1009016 0.1839962
v 0.08568628 -0.1399367 0.003509187
v 0.05756515 -0.2476953 0.003525398
v 4.33331E-08 -0.2380804 0.1128524
v 0.02566674 -0.327687 0.003445741
v 5.404404E-08 -0.3252132 0.06816823
v 5.949524E-08 -0.3793631 0.003424094
v 5.987518E-08 -0.377183 0.0160451
v 4.808849E-08 -0.3299884 -0.1090378
v 5.875158E-08 -0.3800924 -0.02671736
v 3.372802E-08 -0.2557811 -0.1637627
v 1.719115E-08 -0.155796 -0.1817589
v -6.982946E-10 -0.03925392 -0.1609409
v -1.476702E-08 0.05816796 -0.1232614
v -0.02566664 -0.327687 0.003445741
v -0.05756507 -0.2476953 0.003525398
v -0.08568624 -0.1399368 0.003509187
v -0.09716921 -0.06434654 0.00359027
v -0.1039356 0.04826028 0.003720238
v -0.07581164 0.1462298 0.003722662
v -0.03385575 0.2285061 0.003741222
v -0.0149686 0.2878946 0.003677832
v -2.86993E-08 0.1588429 -0.07044545
v -3.991717E-08 0.2178985 -0.05480714
v -5.14316E-08 0.3007789 -0.06672113
v -5.890257E-08 0.3682915 0.003653604
v 0.05063333 -0.1164283 -0.05992328
v 0.1269613 0.01559072 -0.1112314
v 0.1069297 -0.04792323 -0.212409
v 0.03060165 -0.1515136 -0.1158141
v 0.1713591 0.1228277 -0.184792
v 0.1397544 0.05931373 -0.2859696
v 0.06254686 -0.1451775 -0.3060623
v 1.890063E-08 -0.1693116 -0.1925336
v 1.706346E-08 -0.1481184 -0.1563308
v 0.01782356 -0.1138314 -0.1418604
v 0.09415157 -0.03511681 -0.2596126
v 0.1269764 0.01053392 -0.3813785
v 0.09537164 -0.09952675 -0.4278283
v -0.06254683 -0.1451775 -0.3060623
v -0.01782354 -0.1138314 -0.1418604
v -0.09415158 -0.03511683 -0.2596126
v -0.1269764 0.01053388 -0.3813785
v -0.09537166 -0.09952679 -0.4278283
v -0.0506333 -0.1164283 -0.05992328
v -0.03060161 -0.1515136 -0.1158141
v -0.1069297 -0.04792326 -0.212409
v -0.1269613 0.01559068 -0.1112314
v -0.1713592 0.1228276 -0.184792
v -0.1397545 0.05931369 -0.2859696
v -4.040362E-08 0.2113679 -0.1444304
v -5.180565E-08 0.2604328 -0.2242727
v -3.695814E-08 0.1748068 -0.2286792
v -2.683295E-08 0.1573522 -0.06133898
v -1.767419E-08 0.06959473 -0.2151498
v -1.242345E-08 0.0582596 -0.1182481
v -1.155649E-09 -0.03372953 -0.1857228
v 8.549966E-10 -0.04020746 -0.1568965
v -3.846036E-08 0.2198986 -0.04461736
v 6.776375E-09 -0.08741307 -0.1676632
v 2.54213E-08 -0.1013664 0.2265157
v 2.917738E-09 0.03141261 0.3033379
v -4.361262E-09 0.04344242 0.181123
v 2.196796E-08 -0.09379986 0.1753998
v 4.008442E-08 -0.2163187 0.118841
v -1.759875E-08 0.1759041 0.3196886
v -1.728834E-08 0.1315764 0.1495684
v -3.811666E-08 0.3204145 0.3106067
v -3.021683E-08 0.2197292 0.09258128
v -5.742979E-08 0.4288145 0.2687656
v -5.193735E-08 0.3684763 0.17169
v -4.104501E-08 0.2737258 0.07115847
v -8.449616E-08 0.5243559 0.003472725
v -6.28353E-08 0.3894204 0.003629128
v -6.622705E-08 0.4576131 0.173716
v -9.847712E-08 0.6669737 0.208532
v -7.138014E-08 0.3786185 -0.2359608
v -1.02585E-07 0.5356026 -0.3706309
v -4.549696E-08 0.2854257 0.00366463
v -4.215726E-08 0.2835649 0.08221088
v -4.405876E-08 0.2668004 -0.05991713
vt 0.8123985 0.7204756
vt 0.7253894 0.7338861
vt 0.7916167 0.8030573
vt 0.7271157 0.8063684
vt 0.6590855 0.7500852
vt 0.6634959 0.8464814
vt 0.5642581 0.7705194
vt 0.5883555 0.9237891
vt 0.4626369 0.7716288
vt 0.4859958 0.9817848
vt 0.350246 0.768821
vt 0.3282744 0.9886116
vt 0.2739737 0.7616889
vt 0.1576998 0.7557938
vt 0.1704832 0.9212477
vt 0.06615109 0.7540383
vt 0.07083129 0.8439212
vt 0.006055318 0.7673718
vt 0.00839378 0.7820169
vt 0.04314522 0.6729127
vt 0.002585693 0.7463115
vt 0.1116267 0.5982525
vt 0.2174493 0.5637228
vt 0.3496877 0.5593235
vt 0.467377 0.58223
vt 0.06615109 0.7540383
vt 0.1576998 0.7557938
vt 0.2739737 0.7616889
vt 0.350246 0.768821
vt 0.4626369 0.7716288
vt 0.5642581 0.7705194
vt 0.6590855 0.7500852
vt 0.7253894 0.7338861
vt 0.5865861 0.6340428
vt 0.6791505 0.6583323
vt 0.7353892 0.6456097
vt 0.8127894 0.7216482
vt 0.3402843 0.3528195
vt 0.3744052 0.168972
vt 0.2313992 0.168972
vt 0.2596773 0.3528195
vt 0.3744052 0.01049139
vt 0.2313992 0.01049139
vt 0.06411976 0.1698048
vt 0.08445879 0.3210291
vt 0.125977 0.354349
vt 0.1738777 0.354349
vt 0.2088566 0.1698048
vt 0.2088566 0.01267707
vt 0.06411976 0.01267707
vt 0.06411976 0.1698048
vt 0.1738777 0.354349
vt 0.2088566 0.1698048
vt 0.2088566 0.01267707
vt 0.06411976 0.01267707
vt 0.3402843 0.3528195
vt 0.2596773 0.3528195
vt 0.2313992 0.168972
vt 0.3744052 0.168972
vt 0.3744052 0.01049139
vt 0.2313992 0.01049139
vt 0.8122226 0.1236647
vt 0.8780935 0.02485852
vt 0.7523391 0.01587567
vt 0.722398 0.2269613
vt 0.5996385 0.04132473
vt 0.5816731 0.1401307
vt 0.4856718 0.0682621
vt 0.4771309 0.09746011
vt 0.830188 0.2434299
vt 0.4349617 0.08024804
vt 0.1367088 0.4527593
vt 0.3126738 0.5158619
vt 0.3296628 0.3908668
vt 0.1464167 0.4005768
vt 0.0129267 0.3374729
vt 0.4346353 0.5352774
vt 0.3885206 0.3587061
vt 0.5565969 0.5546927
vt 0.4473785 0.3265455
vt 0.6694583 0.515858
vt 0.6112083 0.4139199
vt 0.5177653 0.3071279
vt 0.8836629 0.4661499
vt 0.7701946 0.4733032
vt 0.8022283 0.6605936
vt 0.9869359 0.7335758
vt 0.8104346 0.2702554
vt 0.980518 0.1778832
vt 0.6763722 0.4792181
vt 0.6864236 0.5469992
vt 0.6664234 0.4121284
vn -1.946732E-07 0.9369672 0.3494174
vn 0.9880477 0.1487042 -0.04060414
vn 2.117812E-07 0.5232238 0.8521953
vn 0 0.4333347 0.9012331
vn 0.9618653 0.2612767 -0.08092941
vn 0 0.6315113 0.7753666
vn 0.9410733 0.3213683 -0.1053732
vn 0 0.4969721 0.8677664
vn 0.9867033 0.1481177 -0.06691546
vn 0 0.1443148 0.9895319
vn 0.999248 -0.02795144 -0.02687191
vn 1.77966E-07 -0.2504948 0.968118
vn 0.9893396 -0.1441962 0.02035891
vn 0.964691 -0.2542711 0.06868345
vn 1.839949E-07 -0.482459 0.8759185
vn 0.9377769 -0.3369534 0.08388662
vn 1.663163E-07 -0.611206 0.7914715
vn 2.131545E-07 -0.9852727 0.1709901
vn 2.90495E-07 -0.7670756 0.6415567
vn 1.67445E-07 -0.7807313 -0.624867
vn 1.180899E-07 -0.9156408 -0.4019976
vn 0 -0.5310984 -0.8473101
vn -1.009748E-07 -0.1991136 -0.9799764
vn -1.57263E-07 0.06506672 -0.9978809
vn -1.285712E-07 0.2553 -0.9668618
vn -0.9377767 -0.3369537 0.08388669
vn -0.9646909 -0.2542714 0.0686835
vn -0.9893396 -0.1441963 0.02035896
vn -0.999248 -0.02795154 -0.02687189
vn -0.9867034 0.1481173 -0.06691548
vn -0.9410734 0.3213678 -0.1053731
vn -0.9618654 0.2612765 -0.08092934
vn -0.9880478 0.148704 -0.04060408
vn -1.068716E-07 0.410572 -0.9118282
vn 0 0.3781697 -0.9257363
vn 0 0.4328882 -0.9014476
vn 0 0.996738 -0.08070549
vn 0.8613641 -0.4992703 0.09370755
vn 0.9068378 -0.4202299 0.03243619
vn 0.9045361 -0.4248793 0.03594509
vn 0.8613641 -0.4992703 0.09370754
vn 0.9364556 -0.3502666 -0.01908311
vn 0.9364556 -0.3502666 -0.0190831
vn 0.8957263 -0.3845139 0.2232117
vn 1.452769E-07 -0.8146189 0.5799965
vn 2.784708E-07 -0.814619 0.5799965
vn 0.8416436 -0.4399215 0.3132175
vn 0.9005866 -0.3784905 0.2137491
vn 0.9368457 -0.3242953 0.130968
vn 0.9368457 -0.3242953 0.130968
vn -0.8957262 -0.3845141 0.2232118
vn -0.8416434 -0.4399217 0.3132176
vn -0.9005865 -0.3784907 0.2137492
vn -0.9368456 -0.3242956 0.1309681
vn -0.9368456 -0.3242956 0.1309681
vn -0.8613639 -0.4992705 0.09370764
vn -0.8613639 -0.4992705 0.09370764
vn -0.9045359 -0.4248796 0.03594523
vn -0.9068376 -0.4202301 0.03243633
vn -0.9364555 -0.350267 -0.01908293
vn -0.9364555 -0.350267 -0.01908292
vn 1 1.862948E-07 0
vn 1 1.752079E-07 0
vn 1 1.766133E-07 0
vn 1 1.854654E-07 0
vn 1 1.63852E-07 0
vn 1 1.637096E-07 0
vn 1 1.444051E-07 0
vn 1 1.42248E-07 0
vn 1 1.955742E-07 0
vn 1 1.344552E-07 0
vn 1 1.846553E-07 0
vn 1 1.629522E-07 0
vn 1 1.634776E-07 0
vn 1 1.797012E-07 0
vn 1 1.676013E-07 0
vn 1 1.37746E-07 0
vn 1 1.379422E-07 0
vn 1 1.513581E-07 0
vn 1 1.54536E-07 0
vn 1 1.653777E-07 0
vn 1 1.736306E-07 0
vn 1 1.772438E-07 0
vn 1 1.610628E-07 0
vn 1 1.648751E-07 0
vn 1 1.615679E-07 0
vn 1 1.610306E-07 0
vn 1 1.63881E-07 0
vn 1 1.611065E-07 0
vn 1 1.690148E-07 0
vn 1 1.631801E-07 0
vn 1 1.740301E-07 0
g Object021_0
f 3/3/3 2/2/2 1/1/1
f 4/4/4 2/2/2 3/3/3
f 5/5/5 2/2/2 4/4/4
f 6/6/6 5/5/5 4/4/4
f 7/7/7 5/5/5 6/6/6
f 8/8/8 7/7/7 6/6/6
f 9/9/9 7/7/7 8/8/8
f 10/10/10 9/9/9 8/8/8
f 11/11/11 9/9/9 10/10/10
f 12/12/12 11/11/11 10/10/10
f 13/13/13 11/11/11 12/12/12
f 14/14/14 13/13/13 12/12/12
f 15/15/15 14/14/14 12/12/12
f 16/16/16 14/14/14 15/15/15
f 17/17/17 16/16/16 15/15/15
f 18/18/18 16/16/16 17/17/17
f 19/19/19 18/18/18 17/17/17
f 18/18/18 19/19/19 17/17/17
f 20/20/20 16/16/16 18/18/18
f 21/21/21 20/20/20 18/18/18
f 20/20/20 21/21/21 18/18/18
f 22/22/22 14/14/14 16/16/16
f 20/20/20 22/22/22 16/16/16
f 23/23/23 13/13/13 14/14/14
f 22/22/22 23/23/23 14/14/14
f 24/24/24 11/11/11 13/13/13
f 23/23/23 24/24/24 13/13/13
f 25/25/25 9/9/9 11/11/11
f 24/24/24 25/25/25 11/11/11
f 26/26/26 18/18/18 17/17/17
f 26/26/26 17/17/17 15/15/15
f 26/26/26 20/20/20 18/18/18
f 22/22/22 20/20/20 26/26/26
f 27/27/27 26/26/26 15/15/15
f 27/27/27 15/15/15 12/12/12
f 27/27/27 22/22/22 26/26/26
f 23/23/23 22/22/22 27/27/27
f 28/28/28 27/27/27 12/12/12
f 28/28/28 23/23/23 27/27/27
f 24/24/24 23/23/23 28/28/28
f 29/29/29 24/24/24 28/28/28
f 25/25/25 24/24/24 29/29/29
f 29/29/29 28/28/28 12/12/12
f 29/29/29 12/12/12 10/10/10
f 30/30/30 29/29/29 10/10/10
f 30/30/30 25/25/25 29/29/29
f 30/30/30 10/10/10 8/8/8
f 31/31/31 30/30/30 8/8/8
f 31/31/31 8/8/8 6/6/6
f 32/32/32 31/31/31 6/6/6
f 32/32/32 6/6/6 4/4/4
f 33/33/33 32/32/32 4/4/4
f 34/34/34 25/25/25 30/30/30
f 31/31/31 34/34/34 30/30/30
f 25/25/25 34/34/34 9/9/9
f 34/34/34 7/7/7 9/9/9
f 34/34/34 35/35/35 7/7/7
f 35/35/35 34/34/34 31/31/31
f 32/32/32 35/35/35 31/31/31
f 35/35/35 5/5/5 7/7/7
f 35/35/35 36/36/36 5/5/5
f 36/36/36 35/35/35 32/32/32
f 33/33/33 36/36/36 32/32/32
f 36/36/36 2/2/2 5/5/5
f 36/36/36 37/37/37 2/2/2
f 37/37/37 36/36/36 33/33/33
f 33/33/33 4/4/4 3/3/3
f 33/33/33 3/3/3 1/1/1
f 40/40/40 39/39/39 38/38/38
f 41/41/41 40/40/40 38/38/38
f 42/42/42 39/39/39 40/40/40
f 43/43/43 42/42/42 40/40/40
f 46/46/46 45/45/45 44/44/44
f 44/44/44 47/47/47 46/46/46
f 44/44/44 48/48/48 47/47/47
f 49/49/49 48/48/48 44/44/44
f 50/50/50 49/49/49 44/44/44
f 51/51/51 45/45/45 46/46/46
f 46/46/46 52/52/52 51/51/51
f 52/52/52 53/53/53 51/51/51
f 53/53/53 54/54/54 51/51/51
f 54/54/54 55/55/55 51/51/51
f 58/58/58 57/57/57 56/56/56
f 59/59/59 58/58/58 56/56/56
f 59/59/59 60/60/60 58/58/58
f 60/60/60 61/61/61 58/58/58
f 64/64/64 63/63/63 62/62/62
f 65/65/65 64/64/64 62/62/62
f 66/66/66 64/64/64 65/65/65
f 67/67/67 66/66/66 65/65/65
f 68/68/68 66/66/66 67/67/67
f 69/69/69 68/68/68 67/67/67
f 70/70/70 65/65/65 62/62/62
f 71/71/71 68/68/68 69/69/69
f 74/74/74 73/73/73 72/72/72
f 75/75/75 74/74/74 72/72/72
f 76/76/76 75/75/75 72/72/72
f 77/77/77 73/73/73 74/74/74
f 78/78/78 77/77/77 74/74/74
f 79/79/79 77/77/77 78/78/78
f 80/80/80 79/79/79 78/78/78
f 81/81/81 79/79/79 80/80/80
f 82/82/82 81/81/81 80/80/80
f 83/83/83 82/82/82 80/80/80
f 86/86/86 85/85/85 84/84/84
f 87/87/87 86/86/86 84/84/84
f 84/84/84 85/85/85 88/88/88
f 89/89/89 84/84/84 88/88/88
f 90/90/90 85/85/85 86/86/86
f 91/91/91 90/90/90 86/86/86
f 92/92/92 88/88/88 85/85/85
f 90/90/90 92/92/92 85/85/85
