g polySurface133
v -22.14333 232.4777 37.301
v -22.14334 232.4777 36.6176
v -21.97433 232.4777 36.61782
v -21.97432 232.4777 37.69416
v -22.24676 232.4777 37.69417
v -22.40735 232.4777 37.30103
v -22.40734 232.4777 38.32224
v -22.24676 232.4777 38.32224
vt 0.998623 0.44036
vt 0.998623 0.4339149
vt 0.004612684 0.4289295
vt 0.004612684 0.4353774
vt 0.004612684 0.4362735
vt 0.998623 0.4412287
vt 0.998623 0.4475877
vt 0.004612684 0.4423189
vn 2.317616E-05 1 1.70636E-05
vn 3.505136E-05 1 0
vn 3.505136E-05 1 0
vn 1.155127E-05 1 2.664952E-05
vn 2.310184E-05 1 0
vn 1.055229E-05 1 2.399451E-05
vn 3.618523E-05 1 0
vn 3.618523E-05 1 0
g polySurface133_0
f 3/3/3 2/2/2 1/1/1
f 4/4/4 3/3/3 1/1/1
f 4/4/4 1/1/1 5/5/5
f 1/1/1 6/6/6 5/5/5
f 5/5/5 6/6/6 7/7/7
f 8/8/8 5/5/5 7/7/7
