g polySurface79
v 9.933698 -111.8393 132.2181
v 9.933698 -131.3803 132.2181
v 13.91469 -131.3803 122.3184
v 13.91469 -111.8393 122.3184
v 13.91469 -111.8393 122.3184
v 13.91469 -131.3803 122.3184
v 24.20617 -131.3803 126.1479
v 24.20617 -111.8393 126.1479
v 24.20617 -111.8393 126.1479
v 24.20617 -131.3803 126.1479
v 20.22519 -131.3803 136.0476
v 20.22519 -111.8393 136.0476
v 20.22519 -111.8393 136.0476
v 20.22519 -131.3803 136.0476
v 9.933698 -131.3803 132.2181
v 9.933698 -111.8393 132.2181
v 9.933698 -111.8393 132.2181
v 13.91469 -111.8393 122.3184
v 24.20617 -111.8393 126.1479
v 20.22519 -111.8393 136.0476
vt 0.1514 0.7198
vt 0.1471 0.7198
vt 0.1471 0.734
vt 0.1514 0.734
vt 0.231 0.7237
vt 0.2267 0.7237
vt 0.2267 0.7377
vt 0.231 0.7377
vt 0.1657 0.7214
vt 0.1614 0.7213
vt 0.1614 0.7356
vt 0.1657 0.7357
vt 0.2328 0.6416
vt 0.2285 0.6416
vt 0.2285 0.6558
vt 0.2328 0.6558
vt 0.1511 0.7054
vt 0.1511 0.6911
vt 0.1367 0.6911
vt 0.1367 0.7054
vn -0.9277803 0 -0.373127
vn -0.9277803 0 -0.373127
vn -0.9277803 0 -0.373127
vn -0.9277803 0 -0.373127
vn 0.3487696 0 -0.9372085
vn 0.3487696 0 -0.9372085
vn 0.3487696 0 -0.9372085
vn 0.3487696 0 -0.9372085
vn 0.9277803 0 0.373127
vn 0.9277803 0 0.373127
vn 0.9277803 0 0.373127
vn 0.9277803 0 0.373127
vn -0.3487696 0 0.9372085
vn -0.3487696 0 0.9372085
vn -0.3487696 0 0.9372085
vn -0.3487696 0 0.9372085
vn 0 1 0
vn 0 1 0
vn 0 1 0
vn 0 1 0
g polySurface79_0
f 3/3/3 2/2/2 1/1/1
f 4/4/4 3/3/3 1/1/1
f 7/7/7 6/6/6 5/5/5
f 8/8/8 7/7/7 5/5/5
f 11/11/11 10/10/10 9/9/9
f 12/12/12 11/11/11 9/9/9
f 15/15/15 14/14/14 13/13/13
f 16/16/16 15/15/15 13/13/13
f 19/19/19 18/18/18 17/17/17
f 20/20/20 19/19/19 17/17/17
