g polySurface95
v -1.137229 -59.96987 221.8181
v -6.803473 -64.03741 229.3253
v -5.924967 -55.86079 228.1614
v -1.137229 -121.1923 221.8181
v -6.803472 -121.1923 229.3253
v -7.089612 -44.04522 222.4692
v -8.933494 -44.04522 226.5231
v -8.716261 -52.02311 221.4076
v -10.2811 -48.12642 227.1133
v -12.13351 -57.15875 225.9351
v -6.803473 -64.03741 229.3253
v -6.803472 -121.1923 229.3253
v -12.13351 -121.1923 225.9351
v -12.13351 -57.15875 225.9351
v -10.2811 -48.12642 227.1133
v -1.756006 -50.39629 221.4245
v -1.137229 -59.96987 221.8181
v -5.924967 -55.86079 228.1614
v -2.98749 -44.04522 222.3457
v -5.866588 -44.04522 226.4918
v -1.756006 -50.39629 221.4245
v -2.98749 -44.04522 222.3457
v -7.089612 -44.04522 222.4692
v -8.716261 -52.02311 221.4076
v -6.467274 -72.9416 218.4279
v -8.933494 -44.04522 226.5231
v -7.089612 -44.04522 222.4692
v -5.866588 -44.04522 226.4918
v -2.98749 -44.04522 222.3457
v -5.924967 -55.86079 228.1614
v -6.803473 -64.03741 229.3253
v -10.2811 -48.12642 227.1133
v -5.866588 -44.04522 226.4918
v -8.933494 -44.04522 226.5231
v -6.467274 -121.1923 218.4279
v -1.137229 -121.1923 221.8181
v -6.467274 -72.9416 218.4279
v -1.137229 -59.96987 221.8181
v -1.756006 -50.39629 221.4245
v -6.467274 -72.9416 218.4279
v -12.13351 -121.1923 225.9351
v -6.467274 -121.1923 218.4279
v -12.13351 -57.15875 225.9351
v -8.716261 -52.02311 221.4076
vt 0.9119 0.9467
vt 0.9028 0.9477
vt 0.9042 0.9458
vt 0.9119 0.9609
vt 0.9028 0.9609
vt 0.954 0.9374
vt 0.9548 0.9417
vt 0.9521 0.9374
vt 0.954 0.9429
vt 0.9518 0.943
vt 0.9451 0.957
vt 0.9451 0.9437
vt 0.9515 0.9437
vt 0.9515 0.9586
vt 0.9493 0.9606
vt 0.9118 0.9445
vt 0.9119 0.9467
vt 0.9042 0.9458
vt 0.9104 0.943
vt 0.9055 0.943
vt 0.9542 0.9119
vt 0.9538 0.9134
vt 0.9506 0.9134
vt 0.9487 0.9116
vt 0.9486 0.9067
vt 0.9548 0.9417
vt 0.954 0.9374
vt 0.9573 0.94
vt 0.9573 0.9351
vt 0.9451 0.9589
vt 0.9451 0.957
vt 0.9493 0.9606
vt 0.9461 0.9616
vt 0.9486 0.9616
vt 0.9486 0.8955
vt 0.955 0.8955
vt 0.9486 0.9067
vt 0.955 0.9097
vt 0.9542 0.9119
vt 0.9133 0.9485
vt 0.9224 0.9597
vt 0.9133 0.9597
vt 0.9224 0.9449
vt 0.9169 0.9437
vn 0.7981654 0 0.6024383
vn 0.7981654 0 0.6024383
vn 0.7981654 0 0.6024383
vn 0.7981654 0 0.6024383
vn 0.7981654 0 0.6024383
vn -0.8850021 0.2340163 -0.4025017
vn -0.8850021 0.2340163 -0.4025017
vn -0.8850021 0.2340163 -0.4025017
vn -0.8850021 0.2340163 -0.4025017
vn -0.8850021 0.2340163 -0.4025017
vn -0.5366552 0 0.8438016
vn -0.5366552 0 0.8438016
vn -0.5366552 0 0.8438016
vn -0.5366552 0 0.8438016
vn -0.5366552 0 0.8438016
vn 0.8189651 0.07630878 0.5687469
vn 0.8189651 0.07630878 0.5687469
vn 0.8189651 0.07630878 0.5687469
vn 0.8189651 0.07630878 0.5687469
vn 0.8189651 0.07630878 0.5687469
vn -0.02972631 0.1378037 -0.9900134
vn -0.02972631 0.1378037 -0.9900134
vn -0.02972631 0.1378037 -0.9900134
vn -0.02972631 0.1378037 -0.9900134
vn -0.02972631 0.1378037 -0.9900134
vn 0 1 0
vn 0 1 0
vn 0 1 0
vn 0 1 0
vn 0.01005703 0.1398522 0.9901214
vn 0.01005703 0.1398522 0.9901214
vn 0.01005703 0.1398522 0.9901214
vn 0.01005703 0.1398522 0.9901214
vn 0.01005703 0.1398522 0.9901214
vn 0.5366552 0 -0.8438016
vn 0.5366552 0 -0.8438016
vn 0.5366552 0 -0.8438016
vn 0.5366552 0 -0.8438016
vn 0.5366552 0 -0.8438016
vn -0.7981654 0 -0.6024383
vn -0.7981654 0 -0.6024383
vn -0.7981654 0 -0.6024383
vn -0.7981654 0 -0.6024383
vn -0.7981654 0 -0.6024383
g polySurface95_0
f 3/3/3 2/2/2 1/1/1
f 2/2/2 4/4/4 1/1/1
f 2/2/2 5/5/5 4/4/4
f 8/8/8 7/7/7 6/6/6
f 8/8/8 9/9/9 7/7/7
f 10/10/10 9/9/9 8/8/8
f 13/13/13 12/12/12 11/11/11
f 13/13/13 11/11/11 14/14/14
f 15/15/15 14/14/14 11/11/11
f 18/18/18 17/17/17 16/16/16
f 18/18/18 16/16/16 19/19/19
f 18/18/18 19/19/19 20/20/20
f 23/23/23 22/22/22 21/21/21
f 23/23/23 21/21/21 24/24/24
f 25/25/25 24/24/24 21/21/21
f 28/28/28 27/27/27 26/26/26
f 28/28/28 29/29/29 27/27/27
f 32/32/32 31/31/31 30/30/30
f 33/33/33 32/32/32 30/30/30
f 34/34/34 32/32/32 33/33/33
f 37/37/37 36/36/36 35/35/35
f 36/36/36 37/37/37 38/38/38
f 38/38/38 37/37/37 39/39/39
f 42/42/42 41/41/41 40/40/40
f 43/43/43 40/40/40 41/41/41
f 40/40/40 43/43/43 44/44/44
