g polySurface92
v -7.468318 -120.551 212.0021
v -1.868609 -120.551 205.6177
v -7.46832 -69.37784 212.0021
v -1.868609 -69.37784 205.6177
v -1.868609 -69.37784 205.6177
v 5.358944 -69.37784 211.4834
v -7.46832 -69.37784 212.0021
v -0.2407645 -69.37784 217.8679
v -0.2407645 -120.551 217.8679
v -7.468318 -120.551 212.0021
v -0.2407645 -69.37784 217.8679
v -7.46832 -69.37784 212.0021
v -1.868609 -120.551 205.6177
v 5.358944 -120.551 211.4834
v -1.868609 -69.37784 205.6177
v 5.358944 -69.37784 211.4834
v 5.358944 -120.551 211.4834
v -0.2407645 -120.551 217.8679
v 5.358944 -69.37784 211.4834
v -0.2407645 -69.37784 217.8679
vt 0.8523 0.7192
vt 0.84 0.7192
vt 0.8523 0.7014
vt 0.84 0.7014
vt 0.8075 0.7165
vt 0.8075 0.7308
vt 0.7951 0.7165
vt 0.7951 0.7307
vt 0.7789 0.6984
vt 0.7931 0.6985
vt 0.7789 0.7163
vt 0.7931 0.7163
vt 0.8109 0.6949
vt 0.8251 0.6949
vt 0.8109 0.7127
vt 0.8251 0.7127
vt 0.8491 0.6615
vt 0.8368 0.6615
vt 0.8491 0.6438
vt 0.8368 0.6437
vn -0.7517995 0 -0.6593918
vn -0.7517995 0 -0.6593918
vn -0.7517995 0 -0.6593918
vn -0.7517995 0 -0.6593918
vn 0 1 0
vn 0 1 0
vn 0 1 0
vn 0 1 0
vn -0.6301634 0 0.7764626
vn -0.6301634 0 0.7764626
vn -0.6301634 0 0.7764626
vn -0.6301634 0 0.7764626
vn 0.6301634 0 -0.7764626
vn 0.6301634 0 -0.7764626
vn 0.6301634 0 -0.7764626
vn 0.6301634 0 -0.7764626
vn 0.7517995 0 0.6593918
vn 0.7517995 0 0.6593918
vn 0.7517995 0 0.6593918
vn 0.7517995 0 0.6593918
g polySurface92_0
f 3/3/3 2/2/2 1/1/1
f 3/3/3 4/4/4 2/2/2
f 7/7/7 6/6/6 5/5/5
f 7/7/7 8/8/8 6/6/6
f 11/11/11 10/10/10 9/9/9
f 11/11/11 12/12/12 10/10/10
f 15/15/15 14/14/14 13/13/13
f 15/15/15 16/16/16 14/14/14
f 19/19/19 18/18/18 17/17/17
f 19/19/19 20/20/20 18/18/18
