g polySurface101
v -12.7675 -69.37784 227.7093
v -12.7675 -120.551 227.7093
v -15.44437 -69.37784 225.5368
v -15.44437 -120.551 225.5368
v -10.35372 -69.37784 219.7328
v -10.35372 -120.551 219.7328
v -7.67685 -69.37784 221.9052
v -7.67685 -120.551 221.9052
v -15.44437 -69.37784 225.5368
v -15.44437 -120.551 225.5368
v -10.35372 -69.37784 219.7328
v -10.35372 -120.551 219.7328
v -10.35372 -69.37784 219.7328
v -7.67685 -69.37784 221.9052
v -15.44437 -69.37784 225.5368
v -12.7675 -69.37784 227.7093
v -7.67685 -69.37784 221.9052
v -7.67685 -120.551 221.9052
v -12.7675 -69.37784 227.7093
v -12.7675 -120.551 227.7093
vt 0.96 0.9351
vt 0.96 0.9233
vt 0.9635 0.9351
vt 0.9635 0.9233
vt 0.8885 0.9606
vt 0.8885 0.9487
vt 0.8919 0.9606
vt 0.8919 0.9487
vt 0.9421 0.9692
vt 0.9421 0.981
vt 0.9346 0.9692
vt 0.9346 0.981
vt 0.9488 0.9727
vt 0.9523 0.9727
vt 0.9488 0.9802
vt 0.9523 0.9802
vt 0.9484 0.9113
vt 0.9484 0.9231
vt 0.941 0.9113
vt 0.941 0.9231
vn -0.6301634 0 0.7764626
vn -0.6301634 0 0.7764626
vn -0.6301634 0 0.7764626
vn -0.6301634 0 0.7764626
vn 0.6301634 0 -0.7764626
vn 0.6301634 0 -0.7764626
vn 0.6301634 0 -0.7764626
vn 0.6301634 0 -0.7764626
vn -0.7517995 0 -0.6593918
vn -0.7517995 0 -0.6593918
vn -0.7517995 0 -0.6593918
vn -0.7517995 0 -0.6593918
vn 0 1 0
vn 0 1 0
vn 0 1 0
vn 0 1 0
vn 0.7517995 0 0.6593918
vn 0.7517995 0 0.6593918
vn 0.7517995 0 0.6593918
vn 0.7517995 0 0.6593918
g polySurface101_0
f 3/3/3 2/2/2 1/1/1
f 3/3/3 4/4/4 2/2/2
f 7/7/7 6/6/6 5/5/5
f 7/7/7 8/8/8 6/6/6
f 11/11/11 10/10/10 9/9/9
f 11/11/11 12/12/12 10/10/10
f 15/15/15 14/14/14 13/13/13
f 15/15/15 16/16/16 14/14/14
f 19/19/19 18/18/18 17/17/17
f 19/19/19 20/20/20 18/18/18
