g polySurface121
v -10.79526 2.051896E-05 -161.2398
v -12.16094 2.051896E-05 -162.6055
v 0.845776 2.051896E-05 -175.6122
v 2.211453 2.051896E-05 -174.2465
v -22.42925 2.051896E-05 -149.6058
v -25.16765 2.051896E-05 -149.5988
v -16.92191 2.051896E-05 -141.3532
v -14.1978 2.051896E-05 -141.3745
v -22.21639 2.051896E-05 -133.356
v -25.01894 2.051896E-05 -133.2561
v -13.97312 2.051896E-05 -125.1129
v -16.86815 2.051896E-05 -125.1054
v -22.22132 2.051896E-05 -116.8647
v -25.20192 2.051896E-05 -116.7718
v -22.66117 2.051896E-05 -114.231
v -19.55132 2.051896E-05 -114.1948
v -22.39527 2.051896E-05 -111.3511
v -25.58445 2.051896E-05 -111.3077
v -23.02248 2.051896E-05 -108.7457
v -19.74849 2.051896E-05 -108.7044
v -22.35628 2.051896E-05 -106.0966
v -25.68094 2.051896E-05 -106.0873
v -22.82869 2.051896E-05 -103.2351
v -19.46891 2.051896E-05 -103.2091
v -22.19873 2.051896E-05 -100.4794
v -25.60085 2.051896E-05 -100.4631
v -17.33513 1.288956E-05 -92.1973
v -13.88631 1.288956E-05 -92.16691
v -16.67934 1.288956E-05 -89.37388
v -20.12523 1.288956E-05 -89.40714
v -17.44962 1.288956E-05 -86.73148
v -14.0508 1.288956E-05 -86.7454
v -16.88366 1.288956E-05 -83.91257
v -20.30773 1.288956E-05 -83.87351
v -12.08704 1.288956E-05 -75.65238
v -8.670353 1.288956E-05 -75.69962
v -16.80356 1.288956E-05 -67.56651
v -20.17485 1.288956E-05 -67.56516
v -11.97167 1.288956E-05 -59.36168
v -8.666203 1.288956E-05 -59.42802
v -17.04444 1.288956E-05 -51.05046
v -20.30939 1.288956E-05 -51.02494
v -17.69024 1.288956E-05 -48.4055
v -14.40424 1.288956E-05 -48.4102
v -17.28344 1.288956E-05 -45.53129
v -20.55976 1.288956E-05 -45.5363
v -17.93854 1.288956E-05 -42.91508
v -14.68995 1.288956E-05 -42.93754
v -17.35209 1.288956E-05 -40.27537
v -20.5514 1.288956E-05 -40.30241
v -17.68215 1.288956E-05 -37.43278
v -14.50306 1.288956E-05 -37.42631
v -17.2052 1.288956E-05 -34.72453
v -20.41993 1.288956E-05 -34.69535
v -17.65865 1.288956E-05 -31.93364
v -14.42347 1.288956E-05 -31.94242
v -17.15956 1.288956E-05 -29.20683
v -20.37421 1.288956E-05 -29.21867
v -17.64972 1.288956E-05 -26.49382
v -14.43955 5.260166E-06 -26.48674
v -17.20563 5.260166E-06 -23.72123
v -20.39081 1.288956E-05 -23.75309
v -17.69025 5.260166E-06 -21.05217
v -14.57644 5.260166E-06 -21.09159
v -17.46485 5.260166E-06 -18.20366
v -20.54987 5.260166E-06 -18.19316
v -12.29419 5.260166E-06 -9.935955
v -9.223454 5.260166E-06 -9.961224
v -17.3089 5.260166E-06 -1.876751
v -20.36469 5.260166E-06 -1.866741
v -9.095554 5.260166E-06 6.337543
v -12.17557 5.260166E-06 6.323383
v -17.29465 5.260166E-06 14.53548
v -20.37857 5.260166E-06 14.52535
v -3.894199 -2.369229E-06 31.01186
v -0.8335301 -2.369229E-06 30.99886
v -9.103062 -2.369229E-06 39.26656
v -12.12104 -2.369229E-06 39.23738
v -3.910587 -2.369229E-06 47.4493
v -0.9224278 -2.369229E-06 47.44844
v -9.073643 -2.369229E-06 55.59841
v -12.0904 -2.369229E-06 55.62801
v -3.866733 -9.998623E-06 63.85225
v -0.8464085 -9.998623E-06 63.82644
v -9.050419 -9.998623E-06 72.02926
v -12.06012 -9.998623E-06 72.04488
v 4.50137 -9.998623E-06 88.60775
v 7.560116 -9.998623E-06 88.6412
v -0.5977818 -9.998623E-06 96.79818
v -3.725803 -9.998623E-06 96.83437
v 20.82965 -9.998623E-06 121.3918
v 23.94995 -9.998623E-06 121.3479
v 15.37225 -9.998623E-06 129.9246
v 12.29407 -9.998623E-06 129.9271
v 20.48889 -9.998623E-06 138.1221
v 23.53888 -9.998623E-06 138.0919
v 13.75595 -9.998623E-06 147.874
v 12.24619 -9.998623E-06 146.3642
v 10.74731 -9.998623E-06 147.863
v 10.65094 -1.762802E-05 174.1021
v 13.65967 -1.762802E-05 174.1134
vt 0.004612684 0.5396256
vt 0.998623 0.5451923
vt 0.998623 0.5442872
vt 0.004612684 0.5387095
vt 0.004612684 0.5396256
vt 0.998623 0.5451923
vt 0.998623 0.5638773
vt 0.004612684 0.5582782
vt 0.004612684 0.5609344
vt 0.998623 0.5665594
vt 0.004612684 0.5796139
vt 0.998623 0.5850294
vt 0.004612684 0.5823459
vt 0.998623 0.5877898
vt 0.998623 0.5935473
vt 0.004612684 0.5883963
vt 0.004612684 0.5893381
vt 0.998623 0.5945157
vt 0.998623 0.6003212
vt 0.004612684 0.5953357
vt 0.004612684 0.5961995
vt 0.998623 0.6012018
vt 0.998623 0.6076651
vt 0.004612684 0.6027426
vt 0.004612684 0.6036465
vt 0.998623 0.608583
vt 0.998623 0.6273137
vt 0.004612684 0.622483
vt 0.004612684 0.6234081
vt 0.998623 0.6282379
vt 0.998623 0.634301
vt 0.004612684 0.6293645
vt 0.004612684 0.6303026
vt 0.998623 0.6352476
vt 0.998623 0.6538765
vt 0.004612684 0.648914
vt 0.004612684 0.651608
vt 0.998623 0.6565548
vt 0.998623 0.6751441
vt 0.004612684 0.6700491
vt 0.004612684 0.6728234
vt 0.998623 0.6779048
vt 0.998623 0.6838403
vt 0.004612684 0.6788064
vt 0.004612684 0.6797597
vt 0.998623 0.6847903
vt 0.998623 0.6907301
vt 0.004612684 0.6856372
vt 0.004612684 0.6865187
vt 0.998623 0.6915954
vt 0.998623 0.6980976
vt 0.004612684 0.6929751
vt 0.004612684 0.6938697
vt 0.998623 0.6990041
vt 0.998623 0.7052617
vt 0.004612684 0.7001734
vt 0.004612684 0.7010793
vt 0.998623 0.7061605
vt 0.998623 0.712335
vt 0.004612684 0.707243
vt 0.004612684 0.7081586
vt 0.998623 0.7132424
vt 0.998623 0.7193625
vt 0.004612684 0.7141171
vt 0.004612684 0.7150732
vt 0.998623 0.720309
vt 0.998623 0.7390186
vt 0.004612684 0.7337498
vt 0.004612684 0.7364268
vt 0.998623 0.7416903
vt 0.004612684 0.7550399
vt 0.998623 0.7602483
vt 0.004612684 0.7577543
vt 0.998623 0.7629642
vt 0.998623 0.8003218
vt 0.004612684 0.7950589
vt 0.004612684 0.797796
vt 0.998623 0.8030449
vt 0.998623 0.8216519
vt 0.004612684 0.8163351
vt 0.004612684 0.8190337
vt 0.998623 0.8243602
vt 0.998623 0.8429962
vt 0.004612684 0.8376778
vt 0.004612684 0.8403938
vt 0.998623 0.8457091
vt 0.998623 0.8832402
vt 0.004612684 0.8780359
vt 0.004612684 0.8807369
vt 0.998623 0.8859646
vt 0.998623 0.9416109
vt 0.004612684 0.9363658
vt 0.004612684 0.9392063
vt 0.998623 0.9444378
vt 0.998623 0.9630079
vt 0.004612684 0.957713
vt 0.004612684 0.9609522
vt 0.998623 0.9657373
vt 0.998623 0.9662336
vt 0.9986109 0.9947046
vt 0.004612684 0.9949346
vn 0 1 0
vn 0 1 0
vn 0 1 0
vn 0 1 0
vn 0 1 0
vn 0 1 0
vn 0 1 0
vn 0 1 0
vn 0 1 0
vn 0 1 0
vn 0 1 0
vn 0 1 0
vn 0 1 0
vn 0 1 0
vn 0 1 0
vn 0 1 0
vn 0 1 0
vn 0 1 0
vn 0 1 0
vn 0 1 0
vn 0 1 0
vn 0 1 0
vn 0 1 0
vn 0 1 0
vn 0 1 0
vn 0 1 0
vn 0 1 0
vn 0 1 0
vn 0 1 0
vn 0 1 0
vn 0 1 0
vn 0 1 0
vn 0 1 0
vn 0 1 0
vn 0 1 0
vn 0 1 0
vn 0 1 0
vn 0 1 0
vn 0 1 0
vn 0 1 0
vn 0 1 0
vn 0 1 0
vn 0 1 0
vn 0 1 0
vn 0 1 0
vn 0 1 0
vn 0 1 0
vn 0 1 0
vn 0 1 0
vn 0 1 0
vn 0 1 0
vn 0 1 0
vn 0 1 0
vn 0 1 0
vn 0 1 0
vn 0 1 0
vn 0 1 0
vn 0 1 0
vn 0 1 0
vn 0 1 0
vn 0 1 0
vn 0 1 0
vn 0 1 0
vn 0 1 0
vn 0 1 0
vn 0 1 0
vn 0 1 0
vn 0 1 0
vn 0 1 0
vn 0 1 0
vn 0 1 0
vn 0 1 0
vn 0 1 0
vn 0 1 0
vn 0 1 0
vn 0 1 0
vn 0 1 0
vn 0 1 0
vn 0 1 0
vn 0 1 0
vn 0 1 0
vn 0 1 0
vn 0 1 0
vn 0 1 0
vn 0 1 0
vn 0 1 0
vn 0 1 0
vn 0 1 0
vn 0 1 0
vn 0 1 0
vn 0 1 0
vn 0 1 0
vn 0 1 0
vn 0 1 0
vn 0 1 0
vn 0 1 0
vn 0 1 0
vn 0 1 0
vn 0 1 0
vn 0 1 0
vn 0 1 0
g polySurface121_0
f 3/3/3 2/2/2 1/1/1
f 4/4/4 3/3/3 1/1/1
f 1/1/1 2/2/2 5/5/5
f 2/2/2 6/6/6 5/5/5
f 5/5/5 6/6/6 7/7/7
f 8/8/8 5/5/5 7/7/7
f 8/8/8 7/7/7 9/9/9
f 7/7/7 10/10/10 9/9/9
f 11/11/11 9/9/9 10/10/10
f 12/12/12 11/11/11 10/10/10
f 11/11/11 12/12/12 13/13/13
f 12/12/12 14/14/14 13/13/13
f 13/13/13 14/14/14 15/15/15
f 16/16/16 13/13/13 15/15/15
f 16/16/16 15/15/15 17/17/17
f 15/15/15 18/18/18 17/17/17
f 17/17/17 18/18/18 19/19/19
f 20/20/20 17/17/17 19/19/19
f 20/20/20 19/19/19 21/21/21
f 19/19/19 22/22/22 21/21/21
f 21/21/21 22/22/22 23/23/23
f 24/24/24 21/21/21 23/23/23
f 24/24/24 23/23/23 25/25/25
f 23/23/23 26/26/26 25/25/25
f 25/25/25 26/26/26 27/27/27
f 28/28/28 25/25/25 27/27/27
f 28/28/28 27/27/27 29/29/29
f 27/27/27 30/30/30 29/29/29
f 29/29/29 30/30/30 31/31/31
f 32/32/32 29/29/29 31/31/31
f 32/32/32 31/31/31 33/33/33
f 31/31/31 34/34/34 33/33/33
f 33/33/33 34/34/34 35/35/35
f 36/36/36 33/33/33 35/35/35
f 36/36/36 35/35/35 37/37/37
f 35/35/35 38/38/38 37/37/37
f 37/37/37 38/38/38 39/39/39
f 40/40/40 37/37/37 39/39/39
f 40/40/40 39/39/39 41/41/41
f 39/39/39 42/42/42 41/41/41
f 41/41/41 42/42/42 43/43/43
f 44/44/44 41/41/41 43/43/43
f 44/44/44 43/43/43 45/45/45
f 43/43/43 46/46/46 45/45/45
f 45/45/45 46/46/46 47/47/47
f 48/48/48 45/45/45 47/47/47
f 48/48/48 47/47/47 49/49/49
f 47/47/47 50/50/50 49/49/49
f 49/49/49 50/50/50 51/51/51
f 52/52/52 49/49/49 51/51/51
f 52/52/52 51/51/51 53/53/53
f 51/51/51 54/54/54 53/53/53
f 53/53/53 54/54/54 55/55/55
f 56/56/56 53/53/53 55/55/55
f 56/56/56 55/55/55 57/57/57
f 55/55/55 58/58/58 57/57/57
f 57/57/57 58/58/58 59/59/59
f 60/60/60 57/57/57 59/59/59
f 60/60/60 59/59/59 61/61/61
f 59/59/59 62/62/62 61/61/61
f 61/61/61 62/62/62 63/63/63
f 64/64/64 61/61/61 63/63/63
f 64/64/64 63/63/63 65/65/65
f 63/63/63 66/66/66 65/65/65
f 65/65/65 66/66/66 67/67/67
f 68/68/68 65/65/65 67/67/67
f 68/68/68 67/67/67 69/69/69
f 67/67/67 70/70/70 69/69/69
f 71/71/71 69/69/69 70/70/70
f 72/72/72 71/71/71 70/70/70
f 71/71/71 72/72/72 73/73/73
f 72/72/72 74/74/74 73/73/73
f 73/73/73 74/74/74 75/75/75
f 76/76/76 73/73/73 75/75/75
f 76/76/76 75/75/75 77/77/77
f 75/75/75 78/78/78 77/77/77
f 77/77/77 78/78/78 79/79/79
f 80/80/80 77/77/77 79/79/79
f 80/80/80 79/79/79 81/81/81
f 79/79/79 82/82/82 81/81/81
f 81/81/81 82/82/82 83/83/83
f 84/84/84 81/81/81 83/83/83
f 84/84/84 83/83/83 85/85/85
f 83/83/83 86/86/86 85/85/85
f 85/85/85 86/86/86 87/87/87
f 88/88/88 85/85/85 87/87/87
f 88/88/88 87/87/87 89/89/89
f 87/87/87 90/90/90 89/89/89
f 89/89/89 90/90/90 91/91/91
f 92/92/92 89/89/89 91/91/91
f 92/92/92 91/91/91 93/93/93
f 91/91/91 94/94/94 93/93/93
f 93/93/93 94/94/94 95/95/95
f 96/96/96 93/93/93 95/95/95
f 96/96/96 95/95/95 97/97/97
f 95/95/95 98/98/98 97/97/97
f 98/98/98 99/99/99 97/97/97
f 99/99/99 100/100/100 97/97/97
f 100/100/100 101/101/101 97/97/97
