g polySurface93
v -5.473169 -0.6704254 215.5901
v -4.539356 1.241058 214.742
v 0.5299843 -4.521873 220.4622
v 2.92184 1.241058 217.7351
v 0.5299843 -120.551 220.4622
v -6.697575 -120.551 214.5964
v -6.697575 -18.79785 214.5964
v 0.5299843 -4.521873 220.4622
v -5.473169 -0.6704254 215.5901
v -6.697575 -120.551 214.5964
v 0.9196048 -120.551 205.9118
v 0.9196049 -29.16784 205.9118
v -6.697575 -18.79785 214.5964
v 0.1364243 -16.56268 206.8047
v -6.697575 -18.79785 214.5964
v 0.1364243 -16.56268 206.8047
v 0.8125657 1.241058 208.4041
v -5.473169 -0.6704254 215.5901
v -4.539356 1.241058 214.742
v 0.9196048 -120.551 205.9118
v 8.147161 -120.551 211.7775
v 0.9196049 -29.16784 205.9118
v 8.147161 -10.26286 211.7775
v 4.960009 1.241058 209.1909
v 6.0861 1.241058 210.1048
v 6.0861 1.241058 210.1048
v 8.147161 -10.26286 211.7775
v 4.193172 1.241058 216.2856
v 0.8125657 1.241058 208.4041
v 0.1364243 -16.56268 206.8047
v 4.960009 1.241058 209.1909
v 0.9196049 -29.16784 205.9118
v 4.193172 1.241058 216.2856
v 2.92184 1.241058 217.7351
v -4.539356 1.241058 214.742
v 0.8125657 1.241058 208.4041
v 4.960009 1.241058 209.1909
v 6.0861 1.241058 210.1048
v 8.147161 -10.26286 211.7775
v 8.147161 -120.551 211.7775
v 0.5299843 -120.551 220.4622
v 0.5299843 -4.521873 220.4622
v 4.193172 1.241058 216.2856
v 2.92184 1.241058 217.7351
vt 0.086 0.8865
vt 0.0856 0.8895
vt 0.067 0.8863
vt 0.067 0.895
vt 0.0897 0.9148
vt 0.1125 0.9148
vt 0.1125 0.9719
vt 0.0897 0.9799
vt 0.1087 0.982
vt 0.0667 0.9832
vt 0.0398 0.9832
vt 0.0396 0.9321
vt 0.0665 0.9262
vt 0.0423 0.925
vt 0.0665 0.9262
vt 0.0423 0.925
vt 0.0444 0.9148
vt 0.0667 0.9159
vt 0.0639 0.9148
vt 0.0669 0.9148
vt 0.0897 0.9148
vt 0.0669 0.9661
vt 0.0897 0.9767
vt 0.0797 0.9831
vt 0.0832 0.9831
vt 0.0396 0.9148
vt 0.0393 0.9216
vt 0.0253 0.9152
vt 0.0705 0.9832
vt 0.0667 0.9731
vt 0.0797 0.9831
vt 0.0669 0.9661
vt 0.067 0.8995
vt 0.067 0.895
vt 0.0856 0.8895
vt 0.086 0.9089
vt 0.077 0.9136
vt 0.0735 0.9136
vt 0.0393 0.9216
vt 0.0395 0.9834
vt 0.0125 0.9834
vt 0.0123 0.9184
vt 0.0253 0.9152
vt 0.0208 0.9152
vn -0.320186 0.5105331 0.7980206
vn -0.320186 0.5105331 0.7980206
vn -0.320186 0.5105331 0.7980206
vn -0.320186 0.5105331 0.7980206
vn -0.6301634 0 0.7764626
vn -0.6301634 0 0.7764626
vn -0.6301634 0 0.7764626
vn -0.6301634 0 0.7764626
vn -0.6301634 0 0.7764626
vn -0.7517995 0 -0.6593918
vn -0.7517995 0 -0.6593918
vn -0.7517995 0 -0.6593918
vn -0.7517995 0 -0.6593918
vn -0.7517995 0 -0.6593918
vn -0.7611745 0.08663759 -0.6427343
vn -0.7611745 0.08663759 -0.6427343
vn -0.7611745 0.08663759 -0.6427343
vn -0.7611745 0.08663759 -0.6427343
vn -0.7611745 0.08663759 -0.6427343
vn 0.6301634 0 -0.7764626
vn 0.6301634 0 -0.7764626
vn 0.6301634 0 -0.7764626
vn 0.6301634 0 -0.7764626
vn 0.6301634 0 -0.7764626
vn 0.6301634 0 -0.7764626
vn 0.9350234 0.2091558 0.2863301
vn 0.9350234 0.2091558 0.2863301
vn 0.9350234 0.2091558 0.2863301
vn 0.1857813 0.08092245 -0.9792532
vn 0.1857813 0.08092245 -0.9792532
vn 0.1857813 0.08092245 -0.9792532
vn 0.1857813 0.08092245 -0.9792532
vn 0 1 0
vn 0 1 0
vn 0 1 0
vn 0 1 0
vn 0 1 0
vn 0 1 0
vn 0.7517995 0 0.6593918
vn 0.7517995 0 0.6593918
vn 0.7517995 0 0.6593918
vn 0.7517995 0 0.6593918
vn 0.7517995 0 0.6593918
vn 0.7517995 0 0.6593918
g polySurface93_0
f 3/3/3 2/2/2 1/1/1
f 3/3/3 4/4/4 2/2/2
f 7/7/7 6/6/6 5/5/5
f 7/7/7 5/5/5 8/8/8
f 9/9/9 7/7/7 8/8/8
f 12/12/12 11/11/11 10/10/10
f 12/12/12 10/10/10 13/13/13
f 14/14/14 12/12/12 13/13/13
f 17/17/17 16/16/16 15/15/15
f 17/17/17 15/15/15 18/18/18
f 19/19/19 17/17/17 18/18/18
f 22/22/22 21/21/21 20/20/20
f 21/21/21 22/22/22 23/23/23
f 22/22/22 24/24/24 23/23/23
f 25/25/25 23/23/23 24/24/24
f 28/28/28 27/27/27 26/26/26
f 31/31/31 30/30/30 29/29/29
f 31/31/31 32/32/32 30/30/30
f 35/35/35 34/34/34 33/33/33
f 35/35/35 33/33/33 36/36/36
f 33/33/33 37/37/37 36/36/36
f 37/37/37 33/33/33 38/38/38
f 41/41/41 40/40/40 39/39/39
f 41/41/41 39/39/39 42/42/42
f 39/39/39 43/43/43 42/42/42
f 44/44/44 42/42/42 43/43/43
