g polySurface19
v -0.115226 0.5000014 3.025582
v -0.4999996 0.5000014 2.144376
v -0.4999999 0.5 -0.4999998
v -0.115226 0.5 0.4999999
v 0.4999999 0.5 -0.4999999
v 0.4999999 0.5 0.4999999
v -1.229318 0.5000014 3.025582
v -1.588881 0.5 2.144377
v -1.588881 0.5000033 4.777151
v -1.229318 0.5000048 5.562954
v -2.357898 0.5000048 5.562956
v -2.663348 0.5000029 4.777152
v -2.663347 0.5000095 7.409903
v -2.357897 0.5000114 8.061701
v -2.932985 0.5000114 8.0617
v -3.198322 0.5000095 7.409894
v -3.198324 0.5000134 8.678492
v -2.932979 0.5000148 9.276841
v -4.073106 0.5000153 9.276855
v -4.300674 0.5000148 8.678493
v -4.300673 0.5000181 11.27623
v -4.073102 0.5000186 11.78164
v -6.281832 0.5000186 11.78166
v -6.494972 0.5000181 11.27625
v -6.494969 0.5000181 13.276
v -6.28183 0.5000186 13.76315
v -6.822063 0.5000181 13.76315
v -7.031137 0.5000181 13.27601
v -7.031135 0.5000181 14.59911
v -6.822063 0.5000181 15.06666
v -8.194693 0.5000181 15.06667
v -8.390868 0.5000181 14.59912
v -8.390866 0.5000215 17.26706
v -8.194689 0.5000215 17.71342
v -9.281014 0.5000215 17.71343
v -9.474514 0.5000215 17.26708
v -9.474511 0.5000219 18.55814
v -9.281008 0.5000219 19.00397
v -9.82713 0.5000219 19.00399
v -10.02033 0.5000219 18.55816
v -10.02029 0.50002 23.70704
v -9.827096 0.50002 24.15472
v -10.93181 0.50002 24.15477
v -11.13027 0.50002 23.70708
v -11.13024 0.5000219 26.27787
v -10.93179 0.5000219 26.72604
v -13.16644 0.5000219 26.72616
v -13.35897 0.5000219 26.27799
v -13.35895 0.5000224 28.83187
v -13.16642 0.5000224 29.26922
v -13.7252 0.5000224 29.26924
v -13.9076 0.5000224 28.8319
v -13.90759 0.5000224 30.13945
v -13.7252 0.5000224 30.56705
v -15.92548 0.5000224 30.56708
v -16.11541 0.5000224 30.1395
v -16.11539 0.5000219 32.72925
v -15.92547 0.5000215 33.17641
v -17.01722 0.5000215 33.17646
v -17.20397 0.5000219 32.7293
v -17.20397 0.5000215 33.36833
v -17.01722 0.50002 33.82542
v -17.2927 0.50002 33.82542
v -17.48329 0.5000215 33.36834
v -17.48329 0.5000196 34.01944
v -17.2927 0.5000186 34.45272
v -18.67274 0.5000196 34.4528
v -18.85762 0.5000215 34.01952
v -18.85761 0.5000186 34.67849
v -18.67274 0.5000167 35.10471
v -18.94849 0.5000167 35.10474
v -19.12915 0.5000186 34.67851
v -19.12914 0.5000162 35.31342
v -18.94848 0.5000148 35.72728
v -20.33423 0.5000148 35.72732
v -20.50717 0.5000157 35.31346
v -20.50717 0.5000148 35.96632
v -20.33422 0.5000129 36.36165
v -20.61864 0.5000129 36.36166
v -20.7907 0.5000148 35.96628
v -20.61864 0.50001 37.0273
v -20.79067 0.5000119 37.0273
vt 0.004612684 0.03017083
vt 0.998623 0.03117144
vt 0.998623 0.005747978
vt 0.004612684 0.005889956
vt 0.998623 0.002458964
vt 0.004612684 0.003866319
vt 0.004612684 0.03383535
vt 0.998623 0.03475297
vt 0.998623 0.06006441
vt 0.004612684 0.05823013
vt 0.004612684 0.06194219
vt 0.998623 0.06359887
vt 0.998623 0.08890995
vt 0.004612684 0.08596504
vt 0.004612684 0.08785692
vt 0.998623 0.09066975
vt 0.998623 0.1028663
vt 0.004612684 0.0995391
vt 0.004612684 0.1032898
vt 0.998623 0.1064923
vt 0.998623 0.1314667
vt 0.004612684 0.1273705
vt 0.004612684 0.1346363
vt 0.998623 0.1386847
vt 0.998623 0.1579104
vt 0.004612684 0.1536864
vt 0.004612684 0.1554634
vt 0.998623 0.1596742
vt 0.998623 0.1723943
vt 0.004612684 0.1679952
vt 0.004612684 0.1725104
vt 0.998623 0.1768673
vt 0.998623 0.2025168
vt 0.004612684 0.1979561
vt 0.004612684 0.2015297
vt 0.998623 0.2060814
vt 0.998623 0.2184939
vt 0.004612684 0.2139368
vt 0.004612684 0.2157333
vt 0.998623 0.2202893
vt 0.998623 0.2697905
vt 0.004612684 0.2652525
vt 0.004612684 0.268887
vt 0.998623 0.2734421
vt 0.998623 0.2981577
vt 0.004612684 0.2936071
vt 0.004612684 0.300959
vt 0.998623 0.3054899
vt 0.998623 0.3300427
vt 0.004612684 0.3254075
vt 0.004612684 0.3272459
vt 0.998623 0.3318476
vt 0.998623 0.3444186
vt 0.004612684 0.3397229
vt 0.004612684 0.3469607
vt 0.998623 0.3516814
vt 0.998623 0.3765791
vt 0.004612684 0.3720468
vt 0.004612684 0.3756386
vt 0.998623 0.3801602
vt 0.998623 0.386304
vt 0.004612684 0.3818776
vt 0.004612684 0.3827838
vt 0.998623 0.3872228
vt 0.998623 0.3934824
vt 0.004612684 0.3888146
vt 0.004612684 0.393355
vt 0.998623 0.398004
vt 0.998623 0.4043391
vt 0.004612684 0.3996222
vt 0.004612684 0.4005296
vt 0.998623 0.4052326
vt 0.998623 0.4113367
vt 0.004612684 0.4065148
vt 0.004612684 0.4110732
vt 0.998623 0.41587
vt 0.998623 0.4221464
vt 0.004612684 0.4171717
vt 0.004612684 0.4181073
vt 0.998623 0.4230787
vt 0.004612684 0.4244693
vt 0.998623 0.4294645
vn 0 1 0
vn 0 1 0
vn 0 1 0
vn 0 1 0
vn 0 1 0
vn 0 1 0
vn 0 1 0
vn 0 1 0
vn 0 1 0
vn 0 1 0
vn 0 1 0
vn 0 1 0
vn 0 1 0
vn 0 1 0
vn 0 1 0
vn 0 1 0
vn 0 1 0
vn 0 1 0
vn 0 1 0
vn 0 1 0
vn 0 1 0
vn 0 1 0
vn 0 1 0
vn 0 1 0
vn 0 1 0
vn 0 1 0
vn 0 1 0
vn 0 1 0
vn 0 1 0
vn 0 1 0
vn 0 1 0
vn 0 1 0
vn 0 1 0
vn 0 1 0
vn 0 1 0
vn 0 1 0
vn 0 1 0
vn 0 1 0
vn 0 1 0
vn 0 1 0
vn 0 1 0
vn 0 1 0
vn 0 1 0
vn 0 1 0
vn 0 1 0
vn 0 1 0
vn 0 1 0
vn 0 1 0
vn 0 1 0
vn 0 1 0
vn 0 1 0
vn 0 1 0
vn 0 1 0
vn 0 1 0
vn 0 1 0
vn 0 1 0
vn 0 1 0
vn 0 1 0
vn 0 1 0
vn 0 1 0
vn 0 1 0
vn 0 1 0
vn 0 1 0
vn 0 1 0
vn 0 1 0
vn 0 1 0
vn 0 1 0
vn 0 1 0
vn 0 1 0
vn 0 1 0
vn 0 1 0
vn 0 1 0
vn 0 1 0
vn 0 1 0
vn 0 1 0
vn 0 1 0
vn 0 1 0
vn 0 1 0
vn 0 1 0
vn 0 1 0
vn 0 1 0
vn 0 1 0
g polySurface19_0
f 3/3/3 2/2/2 1/1/1
f 4/4/4 3/3/3 1/1/1
f 3/3/3 4/4/4 5/5/5
f 4/4/4 6/6/6 5/5/5
f 1/1/1 2/2/2 7/7/7
f 2/2/2 8/8/8 7/7/7
f 7/7/7 8/8/8 9/9/9
f 10/10/10 7/7/7 9/9/9
f 10/10/10 9/9/9 11/11/11
f 9/9/9 12/12/12 11/11/11
f 11/11/11 12/12/12 13/13/13
f 14/14/14 11/11/11 13/13/13
f 14/14/14 13/13/13 15/15/15
f 13/13/13 16/16/16 15/15/15
f 15/15/15 16/16/16 17/17/17
f 18/18/18 15/15/15 17/17/17
f 18/18/18 17/17/17 19/19/19
f 17/17/17 20/20/20 19/19/19
f 19/19/19 20/20/20 21/21/21
f 22/22/22 19/19/19 21/21/21
f 22/22/22 21/21/21 23/23/23
f 21/21/21 24/24/24 23/23/23
f 23/23/23 24/24/24 25/25/25
f 26/26/26 23/23/23 25/25/25
f 26/26/26 25/25/25 27/27/27
f 25/25/25 28/28/28 27/27/27
f 27/27/27 28/28/28 29/29/29
f 30/30/30 27/27/27 29/29/29
f 30/30/30 29/29/29 31/31/31
f 29/29/29 32/32/32 31/31/31
f 31/31/31 32/32/32 33/33/33
f 34/34/34 31/31/31 33/33/33
f 34/34/34 33/33/33 35/35/35
f 33/33/33 36/36/36 35/35/35
f 35/35/35 36/36/36 37/37/37
f 38/38/38 35/35/35 37/37/37
f 38/38/38 37/37/37 39/39/39
f 37/37/37 40/40/40 39/39/39
f 39/39/39 40/40/40 41/41/41
f 42/42/42 39/39/39 41/41/41
f 42/42/42 41/41/41 43/43/43
f 41/41/41 44/44/44 43/43/43
f 43/43/43 44/44/44 45/45/45
f 46/46/46 43/43/43 45/45/45
f 46/46/46 45/45/45 47/47/47
f 45/45/45 48/48/48 47/47/47
f 47/47/47 48/48/48 49/49/49
f 50/50/50 47/47/47 49/49/49
f 50/50/50 49/49/49 51/51/51
f 49/49/49 52/52/52 51/51/51
f 51/51/51 52/52/52 53/53/53
f 54/54/54 51/51/51 53/53/53
f 54/54/54 53/53/53 55/55/55
f 53/53/53 56/56/56 55/55/55
f 55/55/55 56/56/56 57/57/57
f 58/58/58 55/55/55 57/57/57
f 58/58/58 57/57/57 59/59/59
f 57/57/57 60/60/60 59/59/59
f 59/59/59 60/60/60 61/61/61
f 62/62/62 59/59/59 61/61/61
f 62/62/62 61/61/61 63/63/63
f 61/61/61 64/64/64 63/63/63
f 63/63/63 64/64/64 65/65/65
f 66/66/66 63/63/63 65/65/65
f 66/66/66 65/65/65 67/67/67
f 65/65/65 68/68/68 67/67/67
f 67/67/67 68/68/68 69/69/69
f 70/70/70 67/67/67 69/69/69
f 70/70/70 69/69/69 71/71/71
f 69/69/69 72/72/72 71/71/71
f 71/71/71 72/72/72 73/73/73
f 74/74/74 71/71/71 73/73/73
f 74/74/74 73/73/73 75/75/75
f 73/73/73 76/76/76 75/75/75
f 75/75/75 76/76/76 77/77/77
f 78/78/78 75/75/75 77/77/77
f 78/78/78 77/77/77 79/79/79
f 77/77/77 80/80/80 79/79/79
f 81/81/81 79/79/79 80/80/80
f 82/82/82 81/81/81 80/80/80
