g polySurface102
v 5.771143 10.15201 249.5643
v 5.531128 20.53043 243.9826
v 5.308756 15.33132 238.8115
v 5.453949 20.53043 242.188
v 5.308754 -89.34597 238.8115
v 5.771143 -89.34597 249.5643
v 5.531128 20.53043 243.9826
v 1.604738 20.53043 249.73
v -2.169726 20.53043 248.0116
v 3.076817 20.53043 249.6716
v -2.343894 20.53043 240.2796
v 5.453949 20.53043 242.188
v 1.604738 20.53043 249.73
v -3.677074 -6.903389 249.9402
v -3.724614 4.46853 248.8348
v -2.169726 20.53043 248.0116
v 5.531128 20.53043 243.9826
v 5.771143 10.15201 249.5643
v 3.076817 20.53043 249.6716
v -3.677074 -6.903389 249.9402
v 1.604738 20.53043 249.73
v 5.771143 10.15201 249.5643
v 3.076817 20.53043 249.6716
v 5.771143 -89.34597 249.5643
v -3.677074 -89.34597 249.9402
v -2.343894 20.53043 240.2796
v -2.169726 20.53043 248.0116
v -2.538857 18.80595 239.1238
v -4.139453 2.452042 239.1874
v -3.724614 4.46853 248.8348
v -3.724614 4.46853 248.8348
v -3.677074 -6.903389 249.9402
v -4.139453 2.452042 239.1874
v -4.139462 -89.34597 239.1874
v -3.677074 -89.34597 249.9402
v -2.538857 18.80595 239.1238
v -4.139453 2.452042 239.1874
v 5.308756 15.33132 238.8115
v 5.308754 -89.34597 238.8115
v -4.139462 -89.34597 239.1874
v 5.308756 15.33132 238.8115
v 5.453949 20.53043 242.188
v -2.343894 20.53043 240.2796
v -2.538857 18.80595 239.1238
vt 0.0393 0.9216
vt 0.0253 0.9152
vt 0.0123 0.9184
vt 0.0208 0.9152
vt 0.0125 0.9834
vt 0.0395 0.9834
vt 0.067 0.8995
vt 0.077 0.9136
vt 0.086 0.9089
vt 0.0735 0.9136
vt 0.0856 0.8895
vt 0.067 0.895
vt 0.0797 0.9831
vt 0.0669 0.9661
vt 0.0667 0.9731
vt 0.0705 0.9832
vt 0.0253 0.9152
vt 0.0393 0.9216
vt 0.0396 0.9148
vt 0.0669 0.9661
vt 0.0797 0.9831
vt 0.0897 0.9767
vt 0.0832 0.9831
vt 0.0897 0.9148
vt 0.0669 0.9148
vt 0.0639 0.9148
vt 0.0444 0.9148
vt 0.0667 0.9159
vt 0.0665 0.9262
vt 0.0423 0.925
vt 0.0423 0.925
vt 0.0396 0.9321
vt 0.0665 0.9262
vt 0.0667 0.9832
vt 0.0398 0.9832
vt 0.1087 0.982
vt 0.1125 0.9719
vt 0.0897 0.9799
vt 0.0897 0.9148
vt 0.1125 0.9148
vt 0.067 0.8863
vt 0.067 0.895
vt 0.0856 0.8895
vt 0.086 0.8865
vn 0.9990767 0 -0.04296127
vn 0.9990767 0 -0.04296127
vn 0.9990767 0 -0.04296127
vn 0.9990767 0 -0.04296127
vn 0.9990767 0 -0.04296127
vn 0.9990767 0 -0.04296127
vn 0 1 0
vn 0 1 0
vn 0 1 0
vn 0 1 0
vn 0 1 0
vn 0 1 0
vn -0.4128104 0.0864348 0.9067065
vn -0.4128104 0.0864348 0.9067065
vn -0.4128104 0.0864348 0.9067065
vn -0.4128104 0.0864348 0.9067065
vn 0.8939769 0.2281011 0.385714
vn 0.8939769 0.2281011 0.385714
vn 0.8939769 0.2281011 0.385714
vn 0.03975814 0 0.9992093
vn 0.03975814 0 0.9992093
vn 0.03975814 0 0.9992093
vn 0.03975814 0 0.9992093
vn 0.03975814 0 0.9992093
vn 0.03975814 0 0.9992093
vn -0.9949875 0.09745957 0.02239224
vn -0.9949875 0.09745957 0.02239224
vn -0.9949875 0.09745957 0.02239224
vn -0.9949875 0.09745957 0.02239224
vn -0.9949875 0.09745957 0.02239224
vn -0.9990767 0 0.04296127
vn -0.9990767 0 0.04296127
vn -0.9990767 0 0.04296127
vn -0.9990767 0 0.04296127
vn -0.9990767 0 0.04296127
vn -0.03975814 0 -0.9992093
vn -0.03975814 0 -0.9992093
vn -0.03975814 0 -0.9992093
vn -0.03975814 0 -0.9992093
vn -0.03975814 0 -0.9992093
vn 0.2016122 0.5295118 -0.8239962
vn 0.2016122 0.5295118 -0.8239962
vn 0.2016122 0.5295118 -0.8239962
vn 0.2016122 0.5295118 -0.8239962
g polySurface102_0
f 3/3/3 2/2/2 1/1/1
f 2/2/2 3/3/3 4/4/4
f 3/3/3 1/1/1 5/5/5
f 1/1/1 6/6/6 5/5/5
f 9/9/9 8/8/8 7/7/7
f 10/10/10 7/7/7 8/8/8
f 9/9/9 7/7/7 11/11/11
f 7/7/7 12/12/12 11/11/11
f 15/15/15 14/14/14 13/13/13
f 16/16/16 15/15/15 13/13/13
f 19/19/19 18/18/18 17/17/17
f 22/22/22 21/21/21 20/20/20
f 21/21/21 22/22/22 23/23/23
f 22/22/22 20/20/20 24/24/24
f 25/25/25 24/24/24 20/20/20
f 28/28/28 27/27/27 26/26/26
f 28/28/28 29/29/29 27/27/27
f 29/29/29 30/30/30 27/27/27
f 33/33/33 32/32/32 31/31/31
f 33/33/33 34/34/34 32/32/32
f 34/34/34 35/35/35 32/32/32
f 38/38/38 37/37/37 36/36/36
f 38/38/38 39/39/39 37/37/37
f 39/39/39 40/40/40 37/37/37
f 43/43/43 42/42/42 41/41/41
f 44/44/44 43/43/43 41/41/41
