g polySurface115
v 12.36484 4.935884 153.1334
v 16.05215 -18.84305 151.9525
v 12.96763 -1.134155 155.1316
v 13.4614 1.007477 149.6266
v 12.34485 3.208817 155.0031
v 12.34485 3.208817 155.0031
v 4.719321 -3.042923 154.99
v 4.756791 -1.90274 153.7774
v 7.147364 -3.911491 158.1192
v 12.36484 4.935884 153.1334
v 7.147364 -3.911491 158.1192
v 12.34485 3.208817 155.0031
v 12.96763 -1.134155 155.1316
v 8.221964 -28.81584 160.0228
v 6.742532 -7.910721 158.6946
v 4.719321 -3.042923 154.99
v 7.147364 -3.911491 158.1192
v 6.742532 -7.910721 158.6946
v 3.375449 -11.67849 155.6717
v 12.36484 4.935884 153.1334
v 3.684116 -6.53412 151.3205
v 9.114274 -9.047295 145.7238
v 4.756791 -1.90274 153.7774
v 13.4614 1.007477 149.6266
v 1.284084 -131.3803 153.7941
v 1.284084 -22.90305 153.7941
v 8.221964 -28.81584 160.0228
v 3.375449 -11.67849 155.6717
v 6.742532 -7.910721 158.6946
v 8.221964 -131.3803 160.0228
v 16.05215 -131.3803 151.9525
v 8.221964 -131.3803 160.0228
v 8.221964 -28.81584 160.0228
v 16.05215 -18.84305 151.9525
v 12.96763 -1.134155 155.1316
v 3.684116 -6.53412 151.3205
v 4.756791 -1.90274 153.7774
v 3.375449 -11.67849 155.6717
v 4.719321 -3.042923 154.99
v 1.284084 -22.90305 153.7941
v 9.114274 -131.3803 145.7238
v 9.114274 -9.047295 145.7238
v 1.284084 -22.90305 153.7941
v 3.684116 -6.53412 151.3205
v 1.284084 -131.3803 153.7941
v 13.4614 1.007477 149.6266
v 9.114274 -9.047295 145.7238
v 16.05215 -18.84305 151.9525
v 9.114274 -131.3803 145.7238
v 16.05215 -131.3803 151.9525
vt 0.3215 0.7109
vt 0.3193 0.7063
vt 0.3192 0.7123
vt 0.3238 0.7064
vt 0.3198 0.7127
vt 0.3198 0.7127
vt 0.3271 0.7195
vt 0.3282 0.7183
vt 0.3219 0.7204
vt 0.3215 0.7109
vt 0.3182 0.643
vt 0.3103 0.6416
vt 0.3098 0.6427
vt 0.3188 0.6488
vt 0.3192 0.6439
vt 0.3271 0.7195
vt 0.3219 0.7204
vt 0.3218 0.7213
vt 0.3278 0.7213
vt 0.3215 0.7109
vt 0.3315 0.7168
vt 0.3315 0.7064
vt 0.3282 0.7183
vt 0.3238 0.7064
vt 0.3586 0.6688
vt 0.3586 0.6449
vt 0.3463 0.6462
vt 0.3549 0.6425
vt 0.3489 0.6416
vt 0.3463 0.6688
vt 0.3044 0.6711
vt 0.3192 0.6712
vt 0.3188 0.6488
vt 0.3041 0.6465
vt 0.3098 0.6427
vt 0.3315 0.7168
vt 0.3282 0.7183
vt 0.3278 0.7213
vt 0.3271 0.7195
vt 0.3315 0.7213
vt 0.3192 0.6416
vt 0.3192 0.6686
vt 0.334 0.6656
vt 0.3294 0.6692
vt 0.334 0.6417
vt 0.3417 0.6416
vt 0.334 0.6439
vt 0.3463 0.646
vt 0.334 0.6708
vt 0.3463 0.6708
vn 0.9789326 0.1446528 0.1441059
vn 0.9789326 0.1446528 0.1441059
vn 0.9789326 0.1446528 0.1441059
vn 0.9789326 0.1446528 0.1441059
vn 0.9789326 0.1446528 0.1441059
vn -0.5182585 0.6310118 0.5772627
vn -0.5182585 0.6310118 0.5772627
vn -0.5182585 0.6310118 0.5772627
vn -0.5182585 0.6310118 0.5772627
vn -0.5182585 0.6310118 0.5772627
vn 0.4217014 0.0871845 0.9025335
vn 0.4217014 0.0871845 0.9025335
vn 0.4217014 0.0871845 0.9025335
vn 0.4217014 0.0871845 0.9025335
vn 0.4217014 0.0871845 0.9025335
vn -0.7557901 0.1675851 0.633006
vn -0.7557901 0.1675851 0.633006
vn -0.7557901 0.1675851 0.633006
vn -0.7557901 0.1675851 0.633006
vn -0.503141 0.4930644 -0.709744
vn -0.503141 0.4930644 -0.709744
vn -0.503141 0.4930644 -0.709744
vn -0.503141 0.4930644 -0.709744
vn -0.503141 0.4930644 -0.709744
vn -0.6680539 0 0.7441128
vn -0.6680539 0 0.7441128
vn -0.6680539 0 0.7441128
vn -0.6680539 0 0.7441128
vn -0.6680539 0 0.7441128
vn -0.6680539 0 0.7441128
vn 0.7177037 0 0.6963485
vn 0.7177037 0 0.6963485
vn 0.7177037 0 0.6963485
vn 0.7177037 0 0.6963485
vn 0.7177037 0 0.6963485
vn -0.9791986 0.1620393 0.1221201
vn -0.9791986 0.1620393 0.1221201
vn -0.9791986 0.1620393 0.1221201
vn -0.9791986 0.1620393 0.1221201
vn -0.9791986 0.1620393 0.1221201
vn -0.7177037 0 -0.6963485
vn -0.7177037 0 -0.6963485
vn -0.7177037 0 -0.6963485
vn -0.7177037 0 -0.6963485
vn -0.7177037 0 -0.6963485
vn 0.6680539 0 -0.7441128
vn 0.6680539 0 -0.7441128
vn 0.6680539 0 -0.7441128
vn 0.6680539 0 -0.7441128
vn 0.6680539 0 -0.7441128
g polySurface115_0
f 3/3/3 2/2/2 1/1/1
f 4/4/4 1/1/1 2/2/2
f 5/5/5 3/3/3 1/1/1
f 8/8/8 7/7/7 6/6/6
f 6/6/6 7/7/7 9/9/9
f 10/10/10 8/8/8 6/6/6
f 13/13/13 12/12/12 11/11/11
f 14/14/14 13/13/13 11/11/11
f 15/15/15 14/14/14 11/11/11
f 18/18/18 17/17/17 16/16/16
f 19/19/19 18/18/18 16/16/16
f 22/22/22 21/21/21 20/20/20
f 20/20/20 21/21/21 23/23/23
f 24/24/24 22/22/22 20/20/20
f 27/27/27 26/26/26 25/25/25
f 26/26/26 27/27/27 28/28/28
f 29/29/29 28/28/28 27/27/27
f 30/30/30 27/27/27 25/25/25
f 33/33/33 32/32/32 31/31/31
f 34/34/34 33/33/33 31/31/31
f 35/35/35 33/33/33 34/34/34
f 38/38/38 37/37/37 36/36/36
f 37/37/37 38/38/38 39/39/39
f 40/40/40 38/38/38 36/36/36
f 43/43/43 42/42/42 41/41/41
f 44/44/44 42/42/42 43/43/43
f 45/45/45 43/43/43 41/41/41
f 48/48/48 47/47/47 46/46/46
f 49/49/49 47/47/47 48/48/48
f 50/50/50 49/49/49 48/48/48
