g polySurface107
v 0.2437209 -89.34597 262.6732
v -6.363974 -34.98692 262.9361
v -7.430136 -89.34597 262.9785
v 0.2437209 -25.96043 262.6733
v -4.125065 -25.96043 262.847
v -7.430136 -89.34597 262.9785
v -6.45194 -54.35023 269.7374
v -7.138316 -89.34597 269.7647
v -6.363974 -34.98692 262.9361
v -6.180508 -32.53605 266.0829
v -6.45194 -54.35023 269.7374
v 0.5355293 -89.34597 269.4594
v -7.138316 -89.34597 269.7647
v 0.5355293 -34.67239 269.4594
v -3.069901 -28.08707 269.6028
v -3.069901 -28.08707 269.6028
v -6.180508 -32.53605 266.0829
v -4.676497 -25.96043 266.9667
v -3.254998 -25.96043 268.9512
v -6.45194 -54.35023 269.7374
v -3.069901 -28.08707 269.6028
v -3.254998 -25.96043 268.9512
v 0.4016133 -25.96043 266.345
v 0.5355293 -34.67239 269.4594
v 0.5355293 -34.67239 269.4594
v 0.2437209 -89.34597 262.6732
v 0.5355293 -89.34597 269.4594
v 0.2437209 -25.96043 262.6733
v 0.4016133 -25.96043 266.345
v -4.125065 -25.96043 262.847
v -4.676497 -25.96043 266.9667
v -6.180508 -32.53605 266.0829
v -6.363974 -34.98692 262.9361
v -4.676497 -25.96043 266.9667
v 0.4016133 -25.96043 266.345
v -3.254998 -25.96043 268.9512
v -4.125065 -25.96043 262.847
v 0.2437209 -25.96043 262.6733
vt 0.4274 0.9524
vt 0.4186 0.9336
vt 0.4171 0.9524
vt 0.4274 0.9305
vt 0.4215 0.9305
vt 0.394 0.9861
vt 0.3845 0.9741
vt 0.3846 0.9862
vt 0.3939 0.9673
vt 0.3895 0.9665
vt 0.4654 0.9047
vt 0.4748 0.8927
vt 0.4645 0.8927
vt 0.4748 0.9115
vt 0.47 0.9138
vt 0.3847 0.9648
vt 0.3895 0.9665
vt 0.3883 0.9642
vt 0.3856 0.9641
vt 0.3845 0.9741
vt 0.4885 0.947
vt 0.4883 0.9478
vt 0.4933 0.9512
vt 0.4933 0.9471
vt 0.4696 0.9487
vt 0.4791 0.9299
vt 0.4696 0.9299
vt 0.4791 0.9517
vt 0.474 0.9517
vt 0.394 0.9641
vt 0.3883 0.9642
vt 0.3895 0.9665
vt 0.3939 0.9673
vt 0.4865 0.9507
vt 0.4933 0.9512
vt 0.4883 0.9478
vt 0.4875 0.9564
vt 0.4933 0.9564
vn -0.03975814 0 -0.9992093
vn -0.03975814 0 -0.9992093
vn -0.03975814 0 -0.9992093
vn -0.03975814 0 -0.9992093
vn -0.03975814 0 -0.9992093
vn -0.9988843 0.0196279 0.042953
vn -0.9988843 0.0196279 0.042953
vn -0.9988843 0.0196279 0.042953
vn -0.9988843 0.0196279 0.042953
vn -0.9988843 0.0196279 0.042953
vn 0.03975814 0 0.9992093
vn 0.03975814 0 0.9992093
vn 0.03975814 0 0.9992093
vn 0.03975814 0 0.9992093
vn 0.03975814 0 0.9992093
vn -0.8083016 0.1070486 0.5789552
vn -0.8083016 0.1070486 0.5789552
vn -0.8083016 0.1070486 0.5789552
vn -0.8083016 0.1070486 0.5789552
vn -0.8083016 0.1070486 0.5789552
vn 0.5559028 0.2873942 0.779985
vn 0.5559028 0.2873942 0.779985
vn 0.5559028 0.2873942 0.779985
vn 0.5559028 0.2873942 0.779985
vn 0.9990767 0 -0.04296127
vn 0.9990767 0 -0.04296127
vn 0.9990767 0 -0.04296127
vn 0.9990767 0 -0.04296127
vn 0.9990767 0 -0.04296127
vn -0.9627895 0.2375445 -0.1288754
vn -0.9627895 0.2375445 -0.1288754
vn -0.9627895 0.2375445 -0.1288754
vn -0.9627895 0.2375445 -0.1288754
vn 0 1 0
vn 0 1 0
vn 0 1 0
vn 0 1 0
vn 0 1 0
g polySurface107_0
f 3/3/3 2/2/2 1/1/1
f 1/1/1 2/2/2 4/4/4
f 5/5/5 4/4/4 2/2/2
f 8/8/8 7/7/7 6/6/6
f 6/6/6 7/7/7 9/9/9
f 10/10/10 9/9/9 7/7/7
f 13/13/13 12/12/12 11/11/11
f 14/14/14 11/11/11 12/12/12
f 11/11/11 14/14/14 15/15/15
f 18/18/18 17/17/17 16/16/16
f 16/16/16 19/19/19 18/18/18
f 16/16/16 17/17/17 20/20/20
f 23/23/23 22/22/22 21/21/21
f 24/24/24 23/23/23 21/21/21
f 27/27/27 26/26/26 25/25/25
f 28/28/28 25/25/25 26/26/26
f 25/25/25 28/28/28 29/29/29
f 32/32/32 31/31/31 30/30/30
f 33/33/33 32/32/32 30/30/30
f 36/36/36 35/35/35 34/34/34
f 37/37/37 34/34/34 35/35/35
f 38/38/38 37/37/37 35/35/35
