g polySurface103
v -3.743098 -52.04065 241.5417
v -6.40154 -52.04065 237.1169
v 3.176125 -52.04065 232.8101
v -5.450073 -52.04065 230.906
v 1.655919 -52.04065 242.7335
v -5.450073 -52.04065 230.906
v -5.450073 -89.34597 230.906
v 3.176123 -89.34597 232.8101
v 3.176125 -52.04065 232.8101
v 1.655919 -52.04065 242.7335
v 1.655917 -89.34597 242.7335
v -3.743098 -89.34597 241.5417
v -3.743098 -52.04065 241.5417
v 3.176125 -52.04065 232.8101
v 3.176123 -89.34597 232.8101
v 1.655917 -89.34597 242.7335
v 1.655919 -52.04065 242.7335
v -6.40154 -52.04065 237.1169
v -6.401541 -89.34597 237.1169
v -5.450073 -89.34597 230.906
v -5.450073 -52.04065 230.906
v -6.40154 -52.04065 237.1169
v -3.743098 -52.04065 241.5417
v -3.743098 -89.34597 241.5417
v -6.401541 -89.34597 237.1169
vt 0.4114 0.7176
vt 0.4158 0.712
vt 0.4041 0.7043
vt 0.4158 0.7033
vt 0.4041 0.7182
vt 0.4433 0.7279
vt 0.4433 0.7151
vt 0.4317 0.7151
vt 0.4317 0.7279
vt 0.4858 0.6503
vt 0.4858 0.6376
vt 0.4786 0.6376
vt 0.4786 0.6504
vt 0.4461 0.7152
vt 0.4589 0.7153
vt 0.4589 0.7015
vt 0.4461 0.7014
vt 0.4178 0.7095
vt 0.4305 0.7095
vt 0.4305 0.7009
vt 0.4177 0.7009
vt 0.4178 0.7095
vt 0.4176 0.7156
vt 0.4304 0.7156
vt 0.4305 0.7095
vn 0 1 0
vn 0 1 0
vn 0 1 0
vn 0 1 0
vn 0 1 0
vn 0.2155919 0 -0.9764836
vn 0.2155919 0 -0.9764836
vn 0.2155919 0 -0.9764836
vn 0.2155919 0 -0.9764836
vn -0.2155919 0 0.9764836
vn -0.2155919 0 0.9764836
vn -0.2155919 0 0.9764836
vn -0.2155919 0 0.9764836
vn 0.9884595 0 0.1514856
vn 0.9884595 0 0.1514856
vn 0.9884595 0 0.1514856
vn 0.9884595 0 0.1514856
vn -0.9884595 0 -0.1514856
vn -0.9884595 0 -0.1514856
vn -0.9884595 0 -0.1514856
vn -0.9884595 0 -0.1514856
vn -0.8571628 0 0.5150455
vn -0.8571628 0 0.5150455
vn -0.8571628 0 0.5150455
vn -0.8571628 0 0.5150455
g polySurface103_0
f 3/3/3 2/2/2 1/1/1
f 2/2/2 3/3/3 4/4/4
f 5/5/5 3/3/3 1/1/1
f 8/8/8 7/7/7 6/6/6
f 9/9/9 8/8/8 6/6/6
f 12/12/12 11/11/11 10/10/10
f 13/13/13 12/12/12 10/10/10
f 16/16/16 15/15/15 14/14/14
f 17/17/17 16/16/16 14/14/14
f 20/20/20 19/19/19 18/18/18
f 21/21/21 20/20/20 18/18/18
f 24/24/24 23/23/23 22/22/22
f 25/25/25 24/24/24 22/22/22
