g polySurface89
v -21.71565 -55.37784 171.596
v -21.71565 -106.551 171.596
v -16.3354 -106.551 176.5905
v -16.3354 -55.37784 176.5905
v -24.14771 -55.37784 174.0203
v -21.71565 -55.37784 171.596
v -16.3354 -55.37784 176.5905
v -18.76747 -55.37784 179.0147
v -18.76747 -55.37784 179.0147
v -18.76747 -106.551 179.0147
v -24.14771 -106.551 174.0203
v -24.14771 -55.37784 174.0203
v -16.3354 -55.37784 176.5905
v -16.3354 -106.551 176.5905
v -18.76747 -106.551 179.0147
v -18.76747 -55.37784 179.0147
v -24.14771 -55.37784 174.0203
v -24.14771 -106.551 174.0203
v -21.71565 -106.551 171.596
v -21.71565 -55.37784 171.596
vt 0.941 0.9113
vt 0.941 0.9231
vt 0.9484 0.9231
vt 0.9484 0.9113
vt 0.9488 0.9802
vt 0.9523 0.9802
vt 0.9523 0.9727
vt 0.9488 0.9727
vt 0.9346 0.9692
vt 0.9346 0.981
vt 0.9421 0.981
vt 0.9421 0.9692
vt 0.8919 0.9606
vt 0.8919 0.9487
vt 0.8885 0.9487
vt 0.8885 0.9606
vt 0.9635 0.9351
vt 0.9635 0.9233
vt 0.96 0.9233
vt 0.96 0.9351
vn 0.6803417 0 -0.732895
vn 0.6803417 0 -0.732895
vn 0.6803417 0 -0.732895
vn 0.6803417 0 -0.732895
vn 0 1 0
vn 0 1 0
vn 0 1 0
vn 0 1 0
vn -0.6803417 0 0.732895
vn -0.6803417 0 0.732895
vn -0.6803417 0 0.732895
vn -0.6803417 0 0.732895
vn 0.7059709 0 0.7082408
vn 0.7059709 0 0.7082408
vn 0.7059709 0 0.7082408
vn 0.7059709 0 0.7082408
vn -0.7059709 0 -0.7082408
vn -0.7059709 0 -0.7082408
vn -0.7059709 0 -0.7082408
vn -0.7059709 0 -0.7082408
g polySurface89_0
f 3/3/3 2/2/2 1/1/1
f 4/4/4 3/3/3 1/1/1
f 7/7/7 6/6/6 5/5/5
f 8/8/8 7/7/7 5/5/5
f 11/11/11 10/10/10 9/9/9
f 12/12/12 11/11/11 9/9/9
f 15/15/15 14/14/14 13/13/13
f 16/16/16 15/15/15 13/13/13
f 19/19/19 18/18/18 17/17/17
f 20/20/20 19/19/19 17/17/17
