g polySurface97
v 12.6105 -50.29153 197.6102
v 9.268534 -50.29153 194.8979
v 15.21159 -50.29153 194.6446
v 11.61003 -50.29153 191.1424
v 14.07376 -50.29153 190.3248
v 7.555851 -60.29691 193.5079
v 9.823152 -57.58025 190.9946
v 9.268534 -50.29153 194.8979
v 11.61003 -50.29153 191.1424
v 17.41774 -59.94827 192.1292
v 12.6105 -50.29153 197.6102
v 15.21159 -50.29153 194.6446
v 12.6105 -120.551 197.6102
v 17.41774 -120.551 192.1292
v 17.41774 -59.94827 192.1292
v 15.21159 -50.29153 194.6446
v 14.65972 -52.6488 189.8909
v 14.07376 -50.29153 190.3248
v 14.65972 -52.6488 189.8909
v 9.823152 -57.58025 190.9946
v 12.07258 -81.76009 187.7912
v 11.61003 -50.29153 191.1424
v 14.07376 -50.29153 190.3248
v 12.07258 -81.76009 187.7912
v 17.41774 -59.94827 192.1292
v 14.65972 -52.6488 189.8909
v 17.41774 -120.551 192.1292
v 11.54753 -120.551 187.3651
v 9.823152 -57.58025 190.9946
v 7.555851 -60.29691 193.5079
v 12.07258 -81.76009 187.7912
v 6.740277 -120.551 192.846
v 11.54753 -120.551 187.3651
v 9.268534 -50.29153 194.8979
v 12.6105 -50.29153 197.6102
v 7.555851 -60.29691 193.5079
v 12.6105 -120.551 197.6102
v 6.740277 -120.551 192.846
vt 0.4933 0.9564
vt 0.4875 0.9564
vt 0.4933 0.9512
vt 0.4865 0.9507
vt 0.4883 0.9478
vt 0.3939 0.9673
vt 0.3895 0.9665
vt 0.394 0.9641
vt 0.3883 0.9642
vt 0.4696 0.9487
vt 0.4791 0.9517
vt 0.474 0.9517
vt 0.4791 0.9299
vt 0.4696 0.9299
vt 0.4933 0.9471
vt 0.4933 0.9512
vt 0.4885 0.947
vt 0.4883 0.9478
vt 0.3847 0.9648
vt 0.3895 0.9665
vt 0.3845 0.9741
vt 0.3883 0.9642
vt 0.3856 0.9641
vt 0.4654 0.9047
vt 0.4748 0.9115
vt 0.47 0.9138
vt 0.4748 0.8927
vt 0.4645 0.8927
vt 0.3895 0.9665
vt 0.3939 0.9673
vt 0.3845 0.9741
vt 0.394 0.9861
vt 0.3846 0.9862
vt 0.4215 0.9305
vt 0.4274 0.9305
vt 0.4186 0.9336
vt 0.4274 0.9524
vt 0.4171 0.9524
vn 0 1 0
vn 0 1 0
vn 0 1 0
vn 0 1 0
vn 0 1 0
vn -0.8289767 0.2137107 -0.5168417
vn -0.8289767 0.2137107 -0.5168417
vn -0.8289767 0.2137107 -0.5168417
vn -0.8289767 0.2137107 -0.5168417
vn 0.7517995 0 0.6593918
vn 0.7517995 0 0.6593918
vn 0.7517995 0 0.6593918
vn 0.7517995 0 0.6593918
vn 0.7517995 0 0.6593918
vn 0.9294166 0.2761257 -0.2448252
vn 0.9294166 0.2761257 -0.2448252
vn 0.9294166 0.2761257 -0.2448252
vn 0.9294166 0.2761257 -0.2448252
vn -0.3135163 0.0959948 -0.9447182
vn -0.3135163 0.0959948 -0.9447182
vn -0.3135163 0.0959948 -0.9447182
vn -0.3135163 0.0959948 -0.9447182
vn -0.3135163 0.0959948 -0.9447182
vn 0.6301634 0 -0.7764626
vn 0.6301634 0 -0.7764626
vn 0.6301634 0 -0.7764626
vn 0.6301634 0 -0.7764626
vn 0.6301634 0 -0.7764626
vn -0.7516856 0.01741964 -0.6592916
vn -0.7516856 0.01741964 -0.6592916
vn -0.7516856 0.01741964 -0.6592916
vn -0.7516856 0.01741964 -0.6592916
vn -0.7516856 0.01741964 -0.6592916
vn -0.6301634 0 0.7764626
vn -0.6301634 0 0.7764626
vn -0.6301634 0 0.7764626
vn -0.6301634 0 0.7764626
vn -0.6301634 0 0.7764626
g polySurface97_0
f 3/3/3 2/2/2 1/1/1
f 3/3/3 4/4/4 2/2/2
f 4/4/4 3/3/3 5/5/5
f 8/8/8 7/7/7 6/6/6
f 8/8/8 9/9/9 7/7/7
f 12/12/12 11/11/11 10/10/10
f 13/13/13 10/10/10 11/11/11
f 10/10/10 13/13/13 14/14/14
f 17/17/17 16/16/16 15/15/15
f 17/17/17 18/18/18 16/16/16
f 21/21/21 20/20/20 19/19/19
f 19/19/19 20/20/20 22/22/22
f 22/22/22 23/23/23 19/19/19
f 26/26/26 25/25/25 24/24/24
f 27/27/27 24/24/24 25/25/25
f 24/24/24 27/27/27 28/28/28
f 31/31/31 30/30/30 29/29/29
f 30/30/30 31/31/31 32/32/32
f 32/32/32 31/31/31 33/33/33
f 36/36/36 35/35/35 34/34/34
f 35/35/35 36/36/36 37/37/37
f 37/37/37 36/36/36 38/38/38
