g polySurface113
v -9.628656 -66.24358 160.7075
v -15.61531 -66.24358 165.8373
v -15.70229 -66.24358 163.9684
v -15.91484 -66.24358 165.8207
v -9.505624 -66.24358 158.6587
v -4.295831 -66.24358 166.4663
v -2.165912 -66.24358 166.5846
v -10.2825 -66.24358 171.5961
v -16.10628 -66.24358 167.4889
v -10.40553 -66.24358 173.645
v -15.61531 -20.59284 165.8373
v -9.628656 -5.660446 160.7075
v -13.23915 -0.8014984 163.8013
v -9.628656 -66.24358 160.7075
v -15.61531 -66.24358 165.8373
v -10.2825 -8.320068 171.5961
v -15.61531 -20.59284 165.8373
v -10.9016 0.7376404 170.9276
v -10.2825 -66.24358 171.5961
v -15.61531 -66.24358 165.8373
v -4.295831 -12.16845 166.4663
v -10.2825 -8.320068 171.5961
v -5.224018 -4.432419 167.2616
v -10.2825 -66.24358 171.5961
v -4.295831 -66.24358 166.4663
v -9.628656 -5.660446 160.7075
v -4.295831 -12.16845 166.4663
v -7.775274 2.885208 162.7089
v -9.628656 -66.24358 160.7075
v -4.295831 -66.24358 166.4663
v -6.955966 6.74649 167.1723
v -10.34571 6.74649 169.7492
v -11.58337 6.74649 165.5612
v -7.945298 6.74649 164.0357
v -10.2825 -8.320068 171.5961
v -10.34571 6.74649 169.7492
v -6.955966 6.74649 167.1723
v -10.9016 0.7376404 170.9276
v -5.224018 -4.432419 167.2616
v -16.10628 -66.24358 167.4889
v -10.40553 -66.24358 173.645
v -10.40553 -131.3803 173.645
v -16.47449 -131.3803 167.0912
v -17.07161 -73.05363 166.4464
v -9.505624 -66.24358 158.6587
v -9.505624 -131.3803 158.6587
v -2.165912 -131.3803 166.5846
v -2.165912 -66.24358 166.5846
v -16.16127 -131.3803 164.3617
v -15.70229 -66.24358 163.9684
v -16.90557 -73.05363 164.9995
v -9.505624 -131.3803 158.6587
v -9.505624 -66.24358 158.6587
v -7.775274 2.885208 162.7089
v -11.58337 6.74649 165.5612
v -13.23915 -0.8014984 163.8013
v -7.945298 6.74649 164.0357
v -9.628656 -5.660446 160.7075
v -10.34571 6.74649 169.7492
v -10.9016 0.7376404 170.9276
v -11.58337 6.74649 165.5612
v -15.61531 -20.59284 165.8373
v -13.23915 -0.8014984 163.8013
v -15.91484 -66.24358 165.8207
v -16.99338 -73.05363 165.7647
v -16.90557 -73.05363 164.9995
v -15.70229 -66.24358 163.9684
v -17.07161 -73.05363 166.4464
v -16.10628 -66.24358 167.4889
v -7.945298 6.74649 164.0357
v -5.224018 -4.432419 167.2616
v -6.955966 6.74649 167.1723
v -4.295831 -12.16845 166.4663
v -7.775274 2.885208 162.7089
v -17.07161 -73.05363 166.4464
v -16.47449 -131.3803 167.0912
v -16.99338 -73.05363 165.7647
v -16.16127 -131.3803 164.3617
v -16.90557 -73.05363 164.9995
v -2.165912 -66.24358 166.5846
v -2.165912 -131.3803 166.5846
v -10.40553 -131.3803 173.645
v -10.40553 -66.24358 173.645
vt 0.8089 0.6925
vt 0.8193 0.6925
vt 0.8177 0.6906
vt 0.8196 0.6923
vt 0.8069 0.6906
vt 0.8089 0.703
vt 0.8069 0.7049
vt 0.8193 0.703
vt 0.8213 0.6938
vt 0.8213 0.7049
vt 0.777 0.7241
vt 0.7874 0.7208
vt 0.7812 0.7198
vt 0.7874 0.7342
vt 0.777 0.7342
vt 0.86 0.7217
vt 0.8496 0.719
vt 0.8588 0.7237
vt 0.86 0.7089
vt 0.8496 0.7089
vt 0.8391 0.7133
vt 0.8495 0.7125
vt 0.8407 0.7116
vt 0.8496 0.7251
vt 0.8392 0.7251
vt 0.8248 0.7117
vt 0.8352 0.7131
vt 0.8284 0.7098
vt 0.8248 0.725
vt 0.8352 0.725
vt 0.8616 0.7332
vt 0.867 0.7345
vt 0.8661 0.7286
vt 0.861 0.7288
vt 0.8495 0.7125
vt 0.848 0.7089
vt 0.8424 0.709
vt 0.8496 0.7103
vt 0.8407 0.7116
vt 0.7882 0.7054
vt 0.777 0.7054
vt 0.777 0.7198
vt 0.7889 0.7198
vt 0.79 0.7069
vt 0.8391 0.6946
vt 0.8391 0.7089
vt 0.8534 0.7089
vt 0.8534 0.6946
vt 0.8276 0.7089
vt 0.8284 0.6946
vt 0.8263 0.6961
vt 0.8391 0.7089
vt 0.8391 0.6946
vt 0.86 0.7272
vt 0.8661 0.7286
vt 0.867 0.7255
vt 0.861 0.7288
vt 0.861 0.7237
vt 0.8581 0.725
vt 0.8588 0.7237
vt 0.8528 0.725
vt 0.8496 0.719
vt 0.8496 0.7234
vt 0.8196 0.6923
vt 0.8206 0.6912
vt 0.8198 0.6905
vt 0.8177 0.6906
vt 0.8212 0.6919
vt 0.8213 0.6938
vt 0.8295 0.7089
vt 0.835 0.7114
vt 0.8333 0.7089
vt 0.8352 0.7131
vt 0.8284 0.7098
vt 0.8248 0.6961
vt 0.8249 0.7089
vt 0.8255 0.6961
vt 0.8276 0.7089
vt 0.8263 0.6961
vt 0.8496 0.6708
vt 0.8354 0.6709
vt 0.8354 0.6852
vt 0.8496 0.6851
vn 0 1 0
vn 0 1 0
vn 0 1 0
vn 0 1 0
vn 0 1 0
vn 0 1 0
vn 0 1 0
vn 0 1 0
vn 0 1 0
vn 0 1 0
vn -0.6507137 0 -0.7593232
vn -0.6507137 0 -0.7593232
vn -0.6507137 0 -0.7593232
vn -0.6507137 0 -0.7593232
vn -0.6507137 0 -0.7593232
vn -0.7336861 0 0.6794885
vn -0.7336861 0 0.6794885
vn -0.7336861 0 0.6794885
vn -0.7336861 0 0.6794885
vn -0.7336861 0 0.6794885
vn 0.6507137 0 0.7593232
vn 0.6507137 0 0.7593232
vn 0.6507137 0 0.7593232
vn 0.6507137 0 0.7593232
vn 0.6507137 0 0.7593232
vn 0.7336861 0 -0.6794885
vn 0.7336861 0 -0.6794885
vn 0.7336861 0 -0.6794885
vn 0.7336861 0 -0.6794885
vn 0.7336861 0 -0.6794885
vn 0 1 0
vn 0 1 0
vn 0 1 0
vn 0 1 0
vn 0.6022267 0.09962749 0.7920842
vn 0.6022267 0.09962749 0.7920842
vn 0.6022267 0.09962749 0.7920842
vn 0.6022267 0.09962749 0.7920842
vn 0.6022267 0.09962749 0.7920842
vn -0.7336861 0 0.6794885
vn -0.7336861 0 0.6794885
vn -0.7336861 0 0.6794885
vn -0.7336861 0 0.6794885
vn -0.7336861 0 0.6794885
vn 0.7336861 0 -0.6794885
vn 0.7336861 0 -0.6794885
vn 0.7336861 0 -0.6794885
vn 0.7336861 0 -0.6794885
vn -0.6507137 0 -0.7593232
vn -0.6507137 0 -0.7593232
vn -0.6507137 0 -0.7593232
vn -0.6507137 0 -0.7593232
vn -0.6507137 0 -0.7593232
vn -0.3704032 0.287202 -0.8833553
vn -0.3704032 0.287202 -0.8833553
vn -0.3704032 0.287202 -0.8833553
vn -0.3704032 0.287202 -0.8833553
vn -0.3704032 0.287202 -0.8833553
vn -0.9491656 0.1428224 0.280511
vn -0.9491656 0.1428224 0.280511
vn -0.9491656 0.1428224 0.280511
vn -0.9491656 0.1428224 0.280511
vn -0.9491656 0.1428224 0.280511
vn -0.9812596 0.1563484 -0.1126266
vn -0.9812596 0.1563484 -0.1126266
vn -0.9812596 0.1563484 -0.1126266
vn -0.9812596 0.1563484 -0.1126266
vn -0.9812596 0.1563484 -0.1126266
vn -0.9812596 0.1563484 -0.1126266
vn 0.94375 0.1438293 -0.29774
vn 0.94375 0.1438293 -0.29774
vn 0.94375 0.1438293 -0.29774
vn 0.94375 0.1438293 -0.29774
vn 0.94375 0.1438293 -0.29774
vn -0.9934125 -0.01143777 -0.114021
vn -0.9934125 -0.01143777 -0.114021
vn -0.9934125 -0.01143777 -0.114021
vn -0.9934125 -0.01143777 -0.114021
vn -0.9934125 -0.01143777 -0.114021
vn 0.6507137 0 0.7593232
vn 0.6507137 0 0.7593232
vn 0.6507137 0 0.7593232
vn 0.6507137 0 0.7593232
g polySurface113_0
f 3/3/3 2/2/2 1/1/1
f 2/2/2 3/3/3 4/4/4
f 5/5/5 3/3/3 1/1/1
f 5/5/5 1/1/1 6/6/6
f 7/7/7 5/5/5 6/6/6
f 7/7/7 6/6/6 8/8/8
f 9/9/9 8/8/8 2/2/2
f 4/4/4 9/9/9 2/2/2
f 10/10/10 7/7/7 8/8/8
f 8/8/8 9/9/9 10/10/10
f 13/13/13 12/12/12 11/11/11
f 12/12/12 14/14/14 11/11/11
f 14/14/14 15/15/15 11/11/11
f 18/18/18 17/17/17 16/16/16
f 16/16/16 17/17/17 19/19/19
f 17/17/17 20/20/20 19/19/19
f 23/23/23 22/22/22 21/21/21
f 22/22/22 24/24/24 21/21/21
f 24/24/24 25/25/25 21/21/21
f 28/28/28 27/27/27 26/26/26
f 26/26/26 27/27/27 29/29/29
f 27/27/27 30/30/30 29/29/29
f 33/33/33 32/32/32 31/31/31
f 34/34/34 33/33/33 31/31/31
f 37/37/37 36/36/36 35/35/35
f 35/35/35 36/36/36 38/38/38
f 39/39/39 37/37/37 35/35/35
f 42/42/42 41/41/41 40/40/40
f 43/43/43 42/42/42 40/40/40
f 44/44/44 43/43/43 40/40/40
f 47/47/47 46/46/46 45/45/45
f 48/48/48 47/47/47 45/45/45
f 51/51/51 50/50/50 49/49/49
f 49/49/49 50/50/50 52/52/52
f 50/50/50 53/53/53 52/52/52
f 56/56/56 55/55/55 54/54/54
f 57/57/57 54/54/54 55/55/55
f 58/58/58 56/56/56 54/54/54
f 61/61/61 60/60/60 59/59/59
f 62/62/62 60/60/60 61/61/61
f 63/63/63 62/62/62 61/61/61
f 66/66/66 65/65/65 64/64/64
f 67/67/67 66/66/66 64/64/64
f 65/65/65 68/68/68 64/64/64
f 68/68/68 69/69/69 64/64/64
f 72/72/72 71/71/71 70/70/70
f 71/71/71 73/73/73 70/70/70
f 73/73/73 74/74/74 70/70/70
f 77/77/77 76/76/76 75/75/75
f 76/76/76 77/77/77 78/78/78
f 77/77/77 79/79/79 78/78/78
f 82/82/82 81/81/81 80/80/80
f 83/83/83 82/82/82 80/80/80
