g polySurface83
v -12.8536 -65.20004 184.9776
v -17.95231 -65.20004 183.5412
v -14.11274 -65.20004 174.0655
v -21.72067 -65.20004 178.4155
v -8.091906 -65.20004 182.2551
v -21.72067 -65.20004 178.4155
v -21.72067 -106.551 178.4155
v -14.11274 -106.551 174.0655
v -14.11274 -65.20004 174.0655
v -8.091906 -65.20004 182.2551
v -8.091906 -106.551 182.2551
v -12.8536 -106.551 184.9776
v -12.8536 -65.20004 184.9776
v -14.11274 -65.20004 174.0655
v -14.11274 -106.551 174.0655
v -8.091906 -106.551 182.2551
v -8.091906 -65.20004 182.2551
v -17.95231 -65.20004 183.5412
v -17.95231 -106.551 183.5412
v -21.72067 -106.551 178.4155
v -21.72067 -65.20004 178.4155
v -17.95231 -65.20004 183.5412
v -12.8536 -65.20004 184.9776
v -12.8536 -106.551 184.9776
v -17.95231 -106.551 183.5412
vt 0.4114 0.7176
vt 0.4158 0.712
vt 0.4041 0.7043
vt 0.4158 0.7033
vt 0.4041 0.7182
vt 0.4433 0.7279
vt 0.4433 0.7151
vt 0.4317 0.7151
vt 0.4317 0.7279
vt 0.4858 0.6503
vt 0.4858 0.6376
vt 0.4786 0.6376
vt 0.4786 0.6504
vt 0.4461 0.7152
vt 0.4589 0.7153
vt 0.4589 0.7015
vt 0.4461 0.7014
vt 0.4178 0.7095
vt 0.4305 0.7095
vt 0.4305 0.7009
vt 0.4177 0.7009
vt 0.4178 0.7095
vt 0.4176 0.7156
vt 0.4304 0.7156
vt 0.4305 0.7095
vn 0 1 0
vn 0 1 0
vn 0 1 0
vn 0 1 0
vn 0 1 0
vn -0.4963211 0 -0.868139
vn -0.4963211 0 -0.868139
vn -0.4963211 0 -0.868139
vn -0.4963211 0 -0.868139
vn 0.4963211 0 0.868139
vn 0.4963211 0 0.868139
vn 0.4963211 0 0.868139
vn 0.4963211 0 0.868139
vn 0.805726 0 -0.5922886
vn 0.805726 0 -0.5922886
vn 0.805726 0 -0.5922886
vn 0.805726 0 -0.5922886
vn -0.805726 0 0.5922886
vn -0.805726 0 0.5922886
vn -0.805726 0 0.5922886
vn -0.805726 0 0.5922886
vn -0.271124 0 0.9625444
vn -0.271124 0 0.9625444
vn -0.271124 0 0.9625444
vn -0.271124 0 0.9625444
g polySurface83_0
f 3/3/3 2/2/2 1/1/1
f 2/2/2 3/3/3 4/4/4
f 5/5/5 3/3/3 1/1/1
f 8/8/8 7/7/7 6/6/6
f 9/9/9 8/8/8 6/6/6
f 12/12/12 11/11/11 10/10/10
f 13/13/13 12/12/12 10/10/10
f 16/16/16 15/15/15 14/14/14
f 17/17/17 16/16/16 14/14/14
f 20/20/20 19/19/19 18/18/18
f 21/21/21 20/20/20 18/18/18
f 24/24/24 23/23/23 22/22/22
f 25/25/25 24/24/24 22/22/22
