g polySurface84
v -14.89752 -58.94161 179.8056
v -20.96568 -43.15878 173.2344
v -17.30605 -38.02312 177.1974
v -20.96568 -107.1923 173.2344
v -14.89752 -107.1923 179.8056
v -9.983831 -45.96988 175.8829
v -14.89752 -58.94161 179.8056
v -10.55428 -36.3963 176.3383
v -9.983831 -107.1923 175.8829
v -14.89752 -107.1923 179.8056
v -14.92763 -30.04523 171.9374
v -19.25797 -34.12643 171.8711
v -15.11117 -41.8608 170.3305
v -17.90562 -30.04523 172.2785
v -16.05199 -50.03742 169.3117
v -14.92763 -30.04523 171.9374
v -11.81912 -30.04523 175.5969
v -15.8085 -30.04523 175.9742
v -17.90562 -30.04523 172.2785
v -14.89752 -58.94161 179.8056
v -17.30605 -38.02312 177.1974
v -10.55428 -36.3963 176.3383
v -15.8085 -30.04523 175.9742
v -11.81912 -30.04523 175.5969
v -15.11117 -41.8608 170.3305
v -10.55428 -36.3963 176.3383
v -11.81912 -30.04523 175.5969
v -14.92763 -30.04523 171.9374
v -9.983831 -45.96988 175.8829
v -19.25797 -34.12643 171.8711
v -20.96568 -43.15878 173.2344
v -16.05199 -50.03742 169.3117
v -20.96568 -107.1923 173.2344
v -16.05199 -107.1923 169.3117
v -20.96568 -43.15878 173.2344
v -19.25797 -34.12643 171.8711
v -17.30605 -38.02312 177.1974
v -17.90562 -30.04523 172.2785
v -15.8085 -30.04523 175.9742
v -16.05199 -50.03742 169.3117
v -16.05199 -107.1923 169.3117
v -9.983831 -107.1923 175.8829
v -9.983831 -45.96988 175.8829
v -15.11117 -41.8608 170.3305
vt 0.9133 0.9485
vt 0.9224 0.9449
vt 0.9169 0.9437
vt 0.9224 0.9597
vt 0.9133 0.9597
vt 0.955 0.9097
vt 0.9486 0.9067
vt 0.9542 0.9119
vt 0.955 0.8955
vt 0.9486 0.8955
vt 0.9461 0.9616
vt 0.9493 0.9606
vt 0.9451 0.9589
vt 0.9486 0.9616
vt 0.9451 0.957
vt 0.9573 0.94
vt 0.9573 0.9351
vt 0.954 0.9374
vt 0.9548 0.9417
vt 0.9486 0.9067
vt 0.9487 0.9116
vt 0.9542 0.9119
vt 0.9506 0.9134
vt 0.9538 0.9134
vt 0.9042 0.9458
vt 0.9118 0.9445
vt 0.9104 0.943
vt 0.9055 0.943
vt 0.9119 0.9467
vt 0.9493 0.9606
vt 0.9515 0.9586
vt 0.9451 0.957
vt 0.9515 0.9437
vt 0.9451 0.9437
vt 0.9518 0.943
vt 0.954 0.9429
vt 0.9521 0.9374
vt 0.9548 0.9417
vt 0.954 0.9374
vt 0.9028 0.9477
vt 0.9028 0.9609
vt 0.9119 0.9609
vt 0.9119 0.9467
vt 0.9042 0.9458
vn -0.7346654 0 0.6784296
vn -0.7346654 0 0.6784296
vn -0.7346654 0 0.6784296
vn -0.7346654 0 0.6784296
vn -0.7346654 0 0.6784296
vn 0.6238586 0 0.7815372
vn 0.6238586 0 0.7815372
vn 0.6238586 0 0.7815372
vn 0.6238586 0 0.7815372
vn 0.6238586 0 0.7815372
vn -0.1127826 0.1356144 -0.9843215
vn -0.1127826 0.1356144 -0.9843215
vn -0.1127826 0.1356144 -0.9843215
vn -0.1127826 0.1356144 -0.9843215
vn -0.1127826 0.1356144 -0.9843215
vn 0 1 0
vn 0 1 0
vn 0 1 0
vn 0 1 0
vn 0.09338307 0.1337448 0.9866063
vn 0.09338307 0.1337448 0.9866063
vn 0.09338307 0.1337448 0.9866063
vn 0.09338307 0.1337448 0.9866063
vn 0.09338307 0.1337448 0.9866063
vn 0.7599171 0.07598192 -0.645564
vn 0.7599171 0.07598192 -0.645564
vn 0.7599171 0.07598192 -0.645564
vn 0.7599171 0.07598192 -0.645564
vn 0.7599171 0.07598192 -0.645564
vn -0.6238586 0 -0.7815372
vn -0.6238586 0 -0.7815372
vn -0.6238586 0 -0.7815372
vn -0.6238586 0 -0.7815372
vn -0.6238586 0 -0.7815372
vn -0.8459337 0.2323938 0.4799889
vn -0.8459337 0.2323938 0.4799889
vn -0.8459337 0.2323938 0.4799889
vn -0.8459337 0.2323938 0.4799889
vn -0.8459337 0.2323938 0.4799889
vn 0.7346654 0 -0.6784296
vn 0.7346654 0 -0.6784296
vn 0.7346654 0 -0.6784296
vn 0.7346654 0 -0.6784296
vn 0.7346654 0 -0.6784296
g polySurface84_0
f 3/3/3 2/2/2 1/1/1
f 4/4/4 1/1/1 2/2/2
f 1/1/1 4/4/4 5/5/5
f 8/8/8 7/7/7 6/6/6
f 6/6/6 7/7/7 9/9/9
f 10/10/10 9/9/9 7/7/7
f 13/13/13 12/12/12 11/11/11
f 11/11/11 12/12/12 14/14/14
f 13/13/13 15/15/15 12/12/12
f 18/18/18 17/17/17 16/16/16
f 19/19/19 18/18/18 16/16/16
f 22/22/22 21/21/21 20/20/20
f 21/21/21 22/22/22 23/23/23
f 22/22/22 24/24/24 23/23/23
f 27/27/27 26/26/26 25/25/25
f 28/28/28 27/27/27 25/25/25
f 26/26/26 29/29/29 25/25/25
f 32/32/32 31/31/31 30/30/30
f 31/31/31 32/32/32 33/33/33
f 32/32/32 34/34/34 33/33/33
f 37/37/37 36/36/36 35/35/35
f 38/38/38 36/36/36 37/37/37
f 39/39/39 38/38/38 37/37/37
f 42/42/42 41/41/41 40/40/40
f 43/43/43 42/42/42 40/40/40
f 43/43/43 40/40/40 44/44/44
