g polySurface78
v 23.61487 -23.36079 140.9523
v 23.61487 -131.3803 140.9523
v 22.97685 -131.3803 145.1535
v 22.97685 -23.36079 145.1535
v 22.97685 -23.36079 145.1535
v 22.97685 -131.3803 145.1535
v 14.95081 -131.3803 144.0256
v 14.95081 -23.36079 144.0256
v 14.95081 -23.36079 144.0256
v 14.95081 -131.3803 144.0256
v 15.58884 -131.3803 139.8244
v 15.58884 -23.36079 139.8244
v 15.58884 -23.36079 139.8244
v 15.58884 -131.3803 139.8244
v 23.61487 -131.3803 140.9523
v 23.61487 -23.36079 140.9523
v 14.95081 -23.36079 144.0256
v 15.58884 -23.36079 139.8244
v 23.61487 -23.36079 140.9523
v 22.97685 -23.36079 145.1535
vt 0.0843 0.6899
vt 0.0843 0.6662
vt 0.0786 0.6661
vt 0.0786 0.6898
vt 0.0615 0.6654
vt 0.0615 0.6416
vt 0.051 0.6416
vt 0.051 0.6654
vt 0.0426 0.7287
vt 0.0426 0.7049
vt 0.0369 0.7049
vt 0.0369 0.7287
vt 0.0443 0.6708
vt 0.0443 0.6946
vt 0.0548 0.6946
vt 0.0548 0.6708
vt 0.0264 0.7345
vt 0.0321 0.7345
vt 0.0321 0.724
vt 0.0264 0.724
vn 0.988664 0 0.1501451
vn 0.988664 0 0.1501451
vn 0.988664 0 0.1501451
vn 0.988664 0 0.1501451
vn -0.1391578 0 0.9902703
vn -0.1391578 0 0.9902703
vn -0.1391578 0 0.9902703
vn -0.1391578 0 0.9902703
vn -0.988664 0 -0.1501451
vn -0.988664 0 -0.1501451
vn -0.988664 0 -0.1501451
vn -0.988664 0 -0.1501451
vn 0.1391578 0 -0.9902703
vn 0.1391578 0 -0.9902703
vn 0.1391578 0 -0.9902703
vn 0.1391578 0 -0.9902703
vn 0 1 0
vn 0 1 0
vn 0 1 0
vn 0 1 0
g polySurface78_0
f 3/3/3 2/2/2 1/1/1
f 4/4/4 3/3/3 1/1/1
f 7/7/7 6/6/6 5/5/5
f 8/8/8 7/7/7 5/5/5
f 11/11/11 10/10/10 9/9/9
f 12/12/12 11/11/11 9/9/9
f 15/15/15 14/14/14 13/13/13
f 16/16/16 15/15/15 13/13/13
f 19/19/19 18/18/18 17/17/17
f 20/20/20 19/19/19 17/17/17
