g polySurface110
v 3.383679 -43.17941 248.2328
v 3.043767 -43.17941 240.328
v 3.043765 -89.34597 240.328
v 3.383677 -89.34597 248.2328
v -6.064532 -43.17941 248.6088
v 3.383679 -43.17941 248.2328
v 3.383677 -89.34597 248.2328
v -6.064533 -89.34597 248.6088
v 3.043767 -43.17941 240.328
v -6.404451 -43.17941 240.704
v -6.404452 -89.34597 240.704
v 3.043765 -89.34597 240.328
v -6.404451 -43.17941 240.704
v 3.043767 -43.17941 240.328
v 3.383679 -43.17941 248.2328
v -6.064532 -43.17941 248.6088
v -6.404451 -43.17941 240.704
v -6.064532 -43.17941 248.6088
v -6.064533 -89.34597 248.6088
v -6.404452 -89.34597 240.704
vt 0.8491 0.6438
vt 0.8368 0.6437
vt 0.8368 0.6615
vt 0.8491 0.6615
vt 0.8109 0.7127
vt 0.8251 0.7127
vt 0.8251 0.6949
vt 0.8109 0.6949
vt 0.7789 0.7163
vt 0.7931 0.7163
vt 0.7931 0.6985
vt 0.7789 0.6984
vt 0.7951 0.7165
vt 0.7951 0.7307
vt 0.8075 0.7308
vt 0.8075 0.7165
vt 0.8523 0.7014
vt 0.84 0.7014
vt 0.84 0.7192
vt 0.8523 0.7192
vn 0.9990767 0 -0.04296127
vn 0.9990767 0 -0.04296127
vn 0.9990767 0 -0.04296127
vn 0.9990767 0 -0.04296127
vn 0.03975814 0 0.9992093
vn 0.03975814 0 0.9992093
vn 0.03975814 0 0.9992093
vn 0.03975814 0 0.9992093
vn -0.03975814 0 -0.9992093
vn -0.03975814 0 -0.9992093
vn -0.03975814 0 -0.9992093
vn -0.03975814 0 -0.9992093
vn 0 1 0
vn 0 1 0
vn 0 1 0
vn 0 1 0
vn -0.9990767 0 0.04296127
vn -0.9990767 0 0.04296127
vn -0.9990767 0 0.04296127
vn -0.9990767 0 0.04296127
g polySurface110_0
f 3/3/3 2/2/2 1/1/1
f 4/4/4 3/3/3 1/1/1
f 7/7/7 6/6/6 5/5/5
f 8/8/8 7/7/7 5/5/5
f 11/11/11 10/10/10 9/9/9
f 12/12/12 11/11/11 9/9/9
f 15/15/15 14/14/14 13/13/13
f 16/16/16 15/15/15 13/13/13
f 19/19/19 18/18/18 17/17/17
f 20/20/20 19/19/19 17/17/17
