g polySurface23
v 3.288517 510.7751 -2.922945
v 3.288505 510.7751 -3.583391
v 3.431173 510.7751 -3.583304
v 3.431188 510.7751 -2.564631
v 3.167932 510.7751 -2.564593
v 3.00999 510.7751 -2.922915
v 3.010002 510.7751 -2.308581
v 3.167944 510.7751 -1.940081
v 1.773414 510.7751 -1.939936
v 1.614475 510.7751 -2.308436
v 1.614488 510.7751 -1.655089
v 1.773424 510.7751 -1.29085
v 1.501827 510.7751 -1.29082
v 1.346967 510.7751 -1.655093
v 1.346973 510.7751 -0.6051696
v 1.501831 510.7751 -0.6049903
vt 0.998623 0.48687
vt 0.998623 0.4808236
vt 0.004612684 0.4753124
vt 0.004612684 0.4816392
vt 0.004612684 0.4825054
vt 0.998623 0.4877866
vt 0.998623 0.4936927
vt 0.004612684 0.4885095
vt 0.004612684 0.4930981
vt 0.998623 0.4982844
vt 0.998623 0.5045657
vt 0.004612684 0.4993381
vt 0.004612684 0.5002319
vt 0.998623 0.5054457
vt 0.998623 0.5117182
vt 0.004612684 0.5065135
vn 0 1 3.392775E-05
vn 0 1 5.333165E-05
vn 0 1 5.333165E-05
vn 0 1 1.502521E-05
vn 0 1 0
vn 0 1 0
vn 0 1 -3.788118E-05
vn 0 1 -4.254855E-05
vn 0 1 -4.857461E-05
vn 0 1 -4.574672E-05
vn 0 1 2.599785E-05
vn 0 1 9.591148E-05
vn 0 1 1.33444E-05
vn 0 1 8.60149E-05
vn 0 1 -6.138597E-05
vn 0 1 -6.138597E-05
g polySurface23_0
f 3/3/3 2/2/2 1/1/1
f 4/4/4 3/3/3 1/1/1
f 4/4/4 1/1/1 5/5/5
f 1/1/1 6/6/6 5/5/5
f 5/5/5 6/6/6 7/7/7
f 8/8/8 5/5/5 7/7/7
f 8/8/8 7/7/7 9/9/9
f 7/7/7 10/10/10 9/9/9
f 9/9/9 10/10/10 11/11/11
f 12/12/12 9/9/9 11/11/11
f 12/12/12 11/11/11 13/13/13
f 11/11/11 14/14/14 13/13/13
f 13/13/13 14/14/14 15/15/15
f 16/16/16 13/13/13 15/15/15
