g polySurface96
v 12.36792 -42.04952 190.2159
v 13.16628 -37.6786 190.8638
v 19.62669 -37.58115 196.107
v 21.45016 -43.61806 197.5869
v 12.36792 -120.551 190.2159
v 21.45016 -120.551 197.5869
v 15.71882 -32.72667 189.8357
v 16.96829 -32.72667 188.4997
v 21.24281 -32.72667 194.3714
v 24.29968 -32.72667 190.8289
v 22.14127 -32.72667 194.2124
v 24.07868 -35.13943 194.59
v 25.43703 -34.06702 190.9429
v 26.82317 -35.96839 191.4609
v 24.29968 -32.72667 190.8289
v 22.14127 -32.72667 194.2124
v 21.24281 -32.72667 194.3714
v 19.62669 -37.58115 196.107
v 15.71882 -32.72667 189.8357
v 13.16628 -37.6786 190.8638
v 15.8177 -42.76133 186.2827
v 13.16628 -37.6786 190.8638
v 12.36792 -42.04952 190.2159
v 16.96829 -32.72667 188.4997
v 15.71882 -32.72667 189.8357
v 25.43703 -34.06702 190.9429
v 27.41062 -38.28793 190.7911
v 26.82317 -35.96839 191.4609
v 21.45016 -43.61806 197.5869
v 19.62669 -37.58115 196.107
v 24.07868 -35.13943 194.59
v 22.14127 -32.72667 194.2124
v 21.24281 -32.72667 194.3714
v 19.29955 -120.551 182.3129
v 28.38179 -120.551 189.6839
v 19.29955 -70.27218 182.3129
v 28.38179 -45.96136 189.6839
v 15.8177 -42.76133 186.2827
v 12.36792 -42.04952 190.2159
v 19.29955 -70.27218 182.3129
v 12.36792 -120.551 190.2159
v 19.29955 -120.551 182.3129
v 19.29955 -70.27218 182.3129
v 28.38179 -45.96136 189.6839
v 15.8177 -42.76133 186.2827
v 27.41062 -38.28793 190.7911
v 24.29968 -32.72667 190.8289
v 16.96829 -32.72667 188.4997
v 25.43703 -34.06702 190.9429
v 28.38179 -45.96136 189.6839
v 28.38179 -120.551 189.6839
v 21.45016 -120.551 197.5869
v 21.45016 -43.61806 197.5869
v 24.07868 -35.13943 194.59
v 27.41062 -38.28793 190.7911
v 26.82317 -35.96839 191.4609
vt 0.5304 0.9514
vt 0.5289 0.9529
vt 0.5167 0.9529
vt 0.5132 0.9509
vt 0.5304 0.925
vt 0.5132 0.925
vt 0.6074 0.8857
vt 0.61 0.8858
vt 0.6074 0.8963
vt 0.6139 0.8962
vt 0.6084 0.8971
vt 0.6096 0.8997
vt 0.6148 0.8976
vt 0.6154 0.8997
vt 0.6139 0.8962
vt 0.6084 0.8971
vt 0.6074 0.8963
vt 0.604 0.8962
vt 0.6074 0.8857
vt 0.604 0.8839
vt 0.5816 0.9278
vt 0.589 0.926
vt 0.5889 0.9276
vt 0.5832 0.9243
vt 0.5858 0.9243
vt 0.6148 0.8976
vt 0.6166 0.8997
vt 0.6154 0.8997
vt 0.6038 0.8997
vt 0.604 0.8962
vt 0.6096 0.8997
vt 0.6084 0.8971
vt 0.6074 0.8963
vt 0.5605 0.9539
vt 0.5433 0.9539
vt 0.5605 0.937
vt 0.5433 0.9288
vt 0.5816 0.9278
vt 0.5889 0.9276
vt 0.5742 0.9371
vt 0.589 0.9539
vt 0.5743 0.954
vt 0.5605 0.937
vt 0.5433 0.9288
vt 0.561 0.9276
vt 0.5434 0.9262
vt 0.547 0.9243
vt 0.5576 0.9243
vt 0.5456 0.9248
vt 0.5132 0.978
vt 0.5132 0.9529
vt 0.5279 0.9529
vt 0.5279 0.9788
vt 0.5224 0.9816
vt 0.5153 0.9805
vt 0.5165 0.9813
vn -0.6301634 0 0.7764626
vn -0.6301634 0 0.7764626
vn -0.6301634 0 0.7764626
vn -0.6301634 0 0.7764626
vn -0.6301634 0 0.7764626
vn -0.6301634 0 0.7764626
vn 0 1 0
vn 0 1 0
vn 0 1 0
vn 0 1 0
vn 0 1 0
vn 0.6709087 0.605608 0.4279257
vn 0.6709087 0.605608 0.4279257
vn 0.6709087 0.605608 0.4279257
vn 0.6709087 0.605608 0.4279257
vn 0.6709087 0.605608 0.4279257
vn -0.5704179 0.4382117 0.6946898
vn -0.5704179 0.4382117 0.6946898
vn -0.5704179 0.4382117 0.6946898
vn -0.5704179 0.4382117 0.6946898
vn -0.7110929 0.2284629 -0.6649448
vn -0.7110929 0.2284629 -0.6649448
vn -0.7110022 0.2284609 -0.6650425
vn -0.7110929 0.2284629 -0.6649448
vn -0.7110929 0.2284629 -0.6649448
vn 0.7130918 0.3551339 -0.6044667
vn 0.7130918 0.3551339 -0.6044667
vn 0.7130918 0.3551339 -0.6044667
vn 0.1671581 0.28209 0.9447134
vn 0.1671581 0.28209 0.9447134
vn 0.1671581 0.28209 0.9447134
vn 0.1671581 0.28209 0.9447134
vn 0.1671581 0.28209 0.9447134
vn 0.6301634 0 -0.7764626
vn 0.6301634 0 -0.7764626
vn 0.6301634 0 -0.7764626
vn 0.6301634 0 -0.7764626
vn -0.7517995 0 -0.6593918
vn -0.7517995 0 -0.6593918
vn -0.7517995 0 -0.6593918
vn -0.7517995 0 -0.6593918
vn -0.7517995 0 -0.6593918
vn 0.2981892 0.1731832 -0.9386644
vn 0.2981892 0.1731832 -0.9386644
vn 0.2981892 0.1731832 -0.9386644
vn 0.2981892 0.1731832 -0.9386644
vn 0.2981892 0.1731832 -0.9386644
vn 0.2981892 0.1731832 -0.9386644
vn 0.2981892 0.1731832 -0.9386644
vn 0.7517995 0 0.6593918
vn 0.7517995 0 0.6593918
vn 0.7517995 0 0.6593918
vn 0.7517995 0 0.6593918
vn 0.7517995 0 0.6593918
vn 0.7517995 0 0.6593918
vn 0.7517995 0 0.6593918
g polySurface96_0
f 3/3/3 2/2/2 1/1/1
f 3/3/3 1/1/1 4/4/4
f 5/5/5 4/4/4 1/1/1
f 5/5/5 6/6/6 4/4/4
f 9/9/9 8/8/8 7/7/7
f 9/9/9 10/10/10 8/8/8
f 10/10/10 9/9/9 11/11/11
f 14/14/14 13/13/13 12/12/12
f 15/15/15 12/12/12 13/13/13
f 15/15/15 16/16/16 12/12/12
f 19/19/19 18/18/18 17/17/17
f 19/19/19 20/20/20 18/18/18
f 23/23/23 22/22/22 21/21/21
f 21/21/21 22/22/22 24/24/24
f 25/25/25 24/24/24 22/22/22
f 28/28/28 27/27/27 26/26/26
f 31/31/31 30/30/30 29/29/29
f 31/31/31 32/32/32 30/30/30
f 33/33/33 30/30/30 32/32/32
f 36/36/36 35/35/35 34/34/34
f 36/36/36 37/37/37 35/35/35
f 40/40/40 39/39/39 38/38/38
f 39/39/39 40/40/40 41/41/41
f 41/41/41 40/40/40 42/42/42
f 45/45/45 44/44/44 43/43/43
f 44/44/44 45/45/45 46/46/46
f 47/47/47 46/46/46 45/45/45
f 47/47/47 45/45/45 48/48/48
f 46/46/46 47/47/47 49/49/49
f 52/52/52 51/51/51 50/50/50
f 52/52/52 50/50/50 53/53/53
f 50/50/50 54/54/54 53/53/53
f 50/50/50 55/55/55 54/54/54
f 56/56/56 54/54/54 55/55/55
