g polySurface116
v 2.671703 -92.74652 146.9789
v 2.671703 -118.8012 146.9789
v 5.898502 -118.8012 149.8759
v 5.898502 -92.74652 149.8759
v 5.898502 -92.74652 149.8759
v 5.898502 -118.8012 149.8759
v 2.88689 -118.8012 152.9799
v 2.88689 -92.74652 152.9799
v 2.88689 -92.74652 152.9799
v 2.88689 -118.8012 152.9799
v -0.3399069 -118.8012 150.0829
v -0.3399069 -92.74652 150.0829
v -0.3399069 -92.74652 150.0829
v -0.3399069 -118.8012 150.0829
v 2.671703 -118.8012 146.9789
v 2.671703 -92.74652 146.9789
v -0.3399069 -92.74652 150.0829
v 2.671703 -92.74652 146.9789
v 5.898502 -92.74652 149.8759
v 2.88689 -92.74652 152.9799
vt 0.061 0.691
vt 0.0667 0.691
vt 0.0667 0.6852
vt 0.061 0.6852
vt 0.069 0.665
vt 0.069 0.6707
vt 0.0747 0.6708
vt 0.0747 0.6651
vt 0.0747 0.7308
vt 0.0747 0.725
vt 0.069 0.725
vt 0.069 0.7308
vt 0.0443 0.725
vt 0.0443 0.7308
vt 0.05 0.7308
vt 0.05 0.725
vt 0.0672 0.6664
vt 0.0672 0.6607
vt 0.0615 0.6607
vt 0.0615 0.6664
vn 0.6680539 0 -0.7441128
vn 0.6680539 0 -0.7441128
vn 0.6680539 0 -0.7441128
vn 0.6680539 0 -0.7441128
vn 0.7177037 0 0.6963485
vn 0.7177037 0 0.6963485
vn 0.7177037 0 0.6963485
vn 0.7177037 0 0.6963485
vn -0.6680539 0 0.7441128
vn -0.6680539 0 0.7441128
vn -0.6680539 0 0.7441128
vn -0.6680539 0 0.7441128
vn -0.7177037 0 -0.6963485
vn -0.7177037 0 -0.6963485
vn -0.7177037 0 -0.6963485
vn -0.7177037 0 -0.6963485
vn 0 1 0
vn 0 1 0
vn 0 1 0
vn 0 1 0
g polySurface116_0
f 3/3/3 2/2/2 1/1/1
f 4/4/4 3/3/3 1/1/1
f 7/7/7 6/6/6 5/5/5
f 8/8/8 7/7/7 5/5/5
f 11/11/11 10/10/10 9/9/9
f 12/12/12 11/11/11 9/9/9
f 15/15/15 14/14/14 13/13/13
f 16/16/16 15/15/15 13/13/13
f 19/19/19 18/18/18 17/17/17
f 20/20/20 19/19/19 17/17/17
