g polySurface75
v 12.8837 -111.7913 141.5897
v 14.94439 -111.7913 139.6837
v 17.72695 -111.7913 142.2703
v 12.83399 -111.7913 133.1279
v 13.23662 -111.7913 132.5832
v 14.94439 -43.43779 139.6837
v 14.61624 -43.43779 132.5554
v 22.91606 -43.43779 132.0688
v 13.57027 -43.43779 133.9704
v 17.72695 -43.43779 142.2703
v 22.14428 -43.43779 142.891
v 27.06621 -43.43779 137.3517
v 25.03161 -43.43779 131.9448
v 13.57027 -43.43779 133.9704
v 14.94439 -43.43779 139.6837
v 14.94439 -111.7913 139.6837
v 13.23662 -111.7913 132.5832
v 15.80848 -58.76858 130.53
v 24.15887 -62.0217 129.6256
v 22.91606 -43.43779 132.0688
v 25.03161 -43.43779 131.9448
v 14.61624 -43.43779 132.5554
v 13.23662 -111.7913 132.5832
v 12.83092 -131.3323 132.6064
v 14.24018 -131.3323 130.6998
v 12.83399 -111.7913 133.1279
v 14.66251 -111.7913 130.6541
v 15.80848 -58.76858 130.53
v 13.57027 -43.43779 133.9704
v 14.61624 -43.43779 132.5554
v 15.80848 -58.76858 130.53
v 14.66251 -111.7913 130.6541
v 24.15887 -111.7913 129.6256
v 24.15887 -131.3323 129.6256
v 24.15887 -62.0217 129.6256
v 14.24018 -131.3323 130.6998
v 12.8837 -131.3323 141.5897
v 12.83092 -131.3323 132.6064
v 12.83399 -111.7913 133.1279
v 12.8837 -111.7913 141.5897
v 25.03161 -43.43779 131.9448
v 24.15887 -62.0217 129.6256
v 27.06621 -43.43779 137.3517
v 27.20674 -111.7913 136.4263
v 27.24688 -131.3323 136.162
v 24.15887 -111.7913 129.6256
v 24.15887 -62.0217 129.6256
v 17.72695 -111.7913 142.2703
v 17.72695 -43.43779 142.2703
v 22.14428 -43.43779 142.891
v 22.14428 -111.7913 142.891
v 14.94439 -111.7913 139.6837
v 14.94439 -43.43779 139.6837
v 17.72695 -43.43779 142.2703
v 17.72695 -111.7913 142.2703
v 27.06621 -43.43779 137.3517
v 27.20674 -111.7913 136.4263
v 22.14428 -111.7913 142.891
v 22.14428 -131.3323 142.891
v 27.24688 -131.3323 136.162
v 27.24688 -131.3323 136.162
v 24.15887 -111.7913 129.6256
v 24.15887 -131.3323 129.6256
v 27.06621 -43.43779 137.3517
v 22.14428 -111.7913 142.891
v 22.14428 -43.43779 142.891
vt 0.2264 0.7123
vt 0.2299 0.7136
vt 0.2318 0.7089
vt 0.231 0.7228
vt 0.2318 0.7233
vt 0.1567 0.705
vt 0.1663 0.7049
vt 0.1663 0.6941
vt 0.1645 0.7063
vt 0.153 0.7016
vt 0.1518 0.696
vt 0.1589 0.6891
vt 0.1663 0.6913
vt 0.1462 0.6713
vt 0.1392 0.6715
vt 0.1399 0.6866
vt 0.1486 0.6863
vt 0.1638 0.6852
vt 0.1532 0.685
vt 0.1545 0.689
vt 0.1518 0.6891
vt 0.1651 0.6885
vt 0.1486 0.6863
vt 0.1486 0.6906
vt 0.1516 0.6904
vt 0.1478 0.6863
vt 0.1516 0.6861
vt 0.1516 0.6744
vt 0.1462 0.6713
vt 0.1484 0.6712
vt 0.1638 0.6852
vt 0.1647 0.6735
vt 0.1527 0.674
vt 0.1525 0.6697
vt 0.1532 0.685
vt 0.1651 0.6692
vt 0.1369 0.6911
vt 0.1486 0.6906
vt 0.1478 0.6863
vt 0.1367 0.6868
vt 0.1819 0.6905
vt 0.1845 0.6867
vt 0.1756 0.69
vt 0.1769 0.6751
vt 0.1772 0.6708
vt 0.1845 0.6758
vt 0.1845 0.6867
vt 0.2189 0.7089
vt 0.2189 0.6939
vt 0.2131 0.6939
vt 0.2131 0.7089
vt 0.2232 0.7089
vt 0.2232 0.6939
vt 0.2189 0.6939
vt 0.2189 0.7089
vt 0.1756 0.69
vt 0.1769 0.6751
vt 0.1666 0.6755
vt 0.1666 0.6712
vt 0.1772 0.6708
vt 0.1772 0.6708
vt 0.1845 0.6758
vt 0.1845 0.6716
vt 0.1756 0.69
vt 0.1666 0.6755
vt 0.1666 0.6905
vn 0 1 0
vn 0 1 0
vn 0 1 0
vn 0 1 0
vn 0 1 0
vn 0 1 0
vn 0 1 0
vn 0 1 0
vn 0 1 0
vn 0 1 0
vn 0 1 0
vn 0 1 0
vn 0 1 0
vn -0.9722711 0 0.2338564
vn -0.9722711 0 0.2338564
vn -0.9722711 0 0.2338564
vn -0.9722711 0 0.2338564
vn -0.05801059 0.1263175 -0.9902922
vn -0.05801059 0.1263175 -0.9902922
vn -0.05801059 0.1263175 -0.9902922
vn -0.05801059 0.1263175 -0.9902922
vn -0.05801059 0.1263175 -0.9902922
vn -0.8040829 0.01598332 -0.5943024
vn -0.8040829 0.01598332 -0.5943024
vn -0.8040829 0.01598332 -0.5943024
vn -0.8040829 0.01598332 -0.5943024
vn -0.8040829 0.01598332 -0.5943024
vn -0.8040829 0.01598332 -0.5943024
vn -0.8040829 0.01598332 -0.5943024
vn -0.8040829 0.01598332 -0.5943024
vn -0.1077219 0 -0.9941811
vn -0.1077219 0 -0.9941811
vn -0.1077219 0 -0.9941811
vn -0.1077219 0 -0.9941811
vn -0.1077219 0 -0.9941811
vn -0.1077219 0 -0.9941811
vn -0.999983 0 0.00582712
vn -0.999983 0 0.00582712
vn -0.999983 0 0.00582712
vn -0.999983 0 0.00582712
vn 0.9359286 0 -0.3521897
vn 0.9359286 0 -0.3521897
vn 0.9359286 0 -0.3521897
vn 0.9125066 0.007414057 -0.4089948
vn 0.9125066 0.007414057 -0.4089948
vn 0.9125066 0.007414057 -0.4089948
vn 0.9125291 0 -0.4090118
vn -0.1391578 0 0.9902703
vn -0.1391578 0 0.9902703
vn -0.1391578 0 0.9902703
vn -0.1391578 0 0.9902703
vn -0.6808662 0 0.7324078
vn -0.6808662 0 0.7324078
vn -0.6808662 0 0.7324078
vn -0.6808662 0 0.7324078
vn 0.787304 -0.006734915 0.6165282
vn 0.787304 -0.006734915 0.6165282
vn 0.787304 -0.006734915 0.6165282
vn 0.7873125 0 0.6165542
vn 0.7967803 -0.006537861 0.6042336
vn 0.9041618 0 -0.4271901
vn 0.9041618 0 -0.4271901
vn 0.9041618 0 -0.4271901
vn 0.7475497 0 0.6642058
vn 0.7475497 0 0.6642058
vn 0.7475497 0 0.6642058
g polySurface75_0
f 3/3/3 2/2/2 1/1/1
f 1/1/1 2/2/2 4/4/4
f 2/2/2 5/5/5 4/4/4
f 8/8/8 7/7/7 6/6/6
f 9/9/9 6/6/6 7/7/7
f 10/10/10 8/8/8 6/6/6
f 8/8/8 10/10/10 11/11/11
f 12/12/12 8/8/8 11/11/11
f 8/8/8 12/12/12 13/13/13
f 16/16/16 15/15/15 14/14/14
f 17/17/17 16/16/16 14/14/14
f 20/20/20 19/19/19 18/18/18
f 19/19/19 20/20/20 21/21/21
f 22/22/22 20/20/20 18/18/18
f 25/25/25 24/24/24 23/23/23
f 26/26/26 23/23/23 24/24/24
f 27/27/27 25/25/25 23/23/23
f 27/27/27 23/23/23 28/28/28
f 23/23/23 29/29/29 28/28/28
f 30/30/30 28/28/28 29/29/29
f 33/33/33 32/32/32 31/31/31
f 32/32/32 33/33/33 34/34/34
f 35/35/35 33/33/33 31/31/31
f 36/36/36 32/32/32 34/34/34
f 39/39/39 38/38/38 37/37/37
f 40/40/40 39/39/39 37/37/37
f 43/43/43 42/42/42 41/41/41
f 43/43/43 44/44/44 42/42/42
f 46/46/46 44/44/44 45/45/45
f 44/44/44 46/46/46 47/47/47
f 50/50/50 49/49/49 48/48/48
f 51/51/51 50/50/50 48/48/48
f 54/54/54 53/53/53 52/52/52
f 55/55/55 54/54/54 52/52/52
f 58/58/58 57/57/57 56/56/56
f 57/57/57 58/58/58 59/59/59
f 60/60/60 57/57/57 59/59/59
f 63/63/63 62/62/62 61/61/61
f 66/66/66 65/65/65 64/64/64
