g polySurface85
v 21.09881 -31.96138 203.3732
v 20.07239 -24.28793 202.4203
v 16.55091 -21.13945 199.1514
v 19.45153 -21.96841 201.844
v 13.77286 -29.61808 196.5725
v 13.77286 -106.551 196.5725
v 21.09881 -106.551 203.3732
v 17.0512 -18.72668 202.7605
v 20.07239 -24.28793 202.4203
v 9.167253 -28.76134 208.1823
v 18.146 -20.06704 202.5126
v 10.11509 -18.72668 205.8998
v 21.09881 -31.96138 203.3732
v 12.84717 -56.27219 211.5984
v 5.52122 -106.551 204.7977
v 12.84717 -56.27219 211.5984
v 12.84717 -106.551 211.5984
v 5.52122 -28.04954 204.7977
v 9.167253 -28.76134 208.1823
v 12.84717 -56.27219 211.5984
v 21.09881 -31.96138 203.3732
v 21.09881 -106.551 203.3732
v 12.84717 -106.551 211.5984
v 16.55091 -21.13945 199.1514
v 14.69988 -18.72668 199.7509
v 12.11615 -23.58117 198.2239
v 13.81607 -18.72668 199.706
v 13.77286 -29.61808 196.5725
v 19.45153 -21.96841 201.844
v 20.07239 -24.28793 202.4203
v 18.146 -20.06704 202.5126
v 9.167253 -28.76134 208.1823
v 6.246567 -23.67862 204.0747
v 10.11509 -18.72668 205.8998
v 8.801269 -18.72668 204.7596
v 5.52122 -28.04954 204.7977
v 8.801269 -18.72668 204.7596
v 6.246567 -23.67862 204.0747
v 12.11615 -23.58117 198.2239
v 13.81607 -18.72668 199.706
v 17.0512 -18.72668 202.7605
v 14.69988 -18.72668 199.7509
v 16.55091 -21.13945 199.1514
v 18.146 -20.06704 202.5126
v 19.45153 -21.96841 201.844
v 13.81607 -18.72668 199.706
v 17.0512 -18.72668 202.7605
v 10.11509 -18.72668 205.8998
v 14.69988 -18.72668 199.7509
v 8.801269 -18.72668 204.7596
v 5.52122 -106.551 204.7977
v 13.77286 -106.551 196.5725
v 13.77286 -29.61808 196.5725
v 5.52122 -28.04954 204.7977
v 12.11615 -23.58117 198.2239
v 6.246567 -23.67862 204.0747
vt 0.5132 0.978
vt 0.5153 0.9805
vt 0.5224 0.9816
vt 0.5165 0.9813
vt 0.5279 0.9788
vt 0.5279 0.9529
vt 0.5132 0.9529
vt 0.547 0.9243
vt 0.5434 0.9262
vt 0.561 0.9276
vt 0.5456 0.9248
vt 0.5576 0.9243
vt 0.5433 0.9288
vt 0.5605 0.937
vt 0.589 0.9539
vt 0.5742 0.9371
vt 0.5743 0.954
vt 0.5889 0.9276
vt 0.5816 0.9278
vt 0.5605 0.937
vt 0.5433 0.9288
vt 0.5433 0.9539
vt 0.5605 0.9539
vt 0.6096 0.8997
vt 0.6084 0.8971
vt 0.604 0.8962
vt 0.6074 0.8963
vt 0.6038 0.8997
vt 0.6154 0.8997
vt 0.6166 0.8997
vt 0.6148 0.8976
vt 0.5816 0.9278
vt 0.589 0.926
vt 0.5832 0.9243
vt 0.5858 0.9243
vt 0.5889 0.9276
vt 0.6074 0.8857
vt 0.604 0.8839
vt 0.604 0.8962
vt 0.6074 0.8963
vt 0.6139 0.8962
vt 0.6084 0.8971
vt 0.6096 0.8997
vt 0.6148 0.8976
vt 0.6154 0.8997
vt 0.6074 0.8963
vt 0.6139 0.8962
vt 0.61 0.8858
vt 0.6084 0.8971
vt 0.6074 0.8857
vt 0.5304 0.925
vt 0.5132 0.925
vt 0.5132 0.9509
vt 0.5304 0.9514
vt 0.5167 0.9529
vt 0.5289 0.9529
vn 0.6803417 0 -0.732895
vn 0.6803417 0 -0.732895
vn 0.6803417 0 -0.732895
vn 0.6803417 0 -0.732895
vn 0.6803417 0 -0.732895
vn 0.6803417 0 -0.732895
vn 0.6803417 0 -0.732895
vn 0.4065958 0.1659391 0.898412
vn 0.4065958 0.1659391 0.898412
vn 0.4065958 0.1659391 0.898412
vn 0.4065958 0.1659391 0.898412
vn 0.4065958 0.1659391 0.898412
vn 0.4065958 0.1659391 0.898412
vn 0.4065958 0.1659391 0.898412
vn -0.6803417 0 0.732895
vn -0.6803417 0 0.732895
vn -0.6803417 0 0.732895
vn -0.6803417 0 0.732895
vn -0.6803417 0 0.732895
vn 0.7059709 0 0.7082408
vn 0.7059709 0 0.7082408
vn 0.7059709 0 0.7082408
vn 0.7059709 0 0.7082408
vn 0.04876653 0.2759815 -0.9599251
vn 0.04876653 0.2759815 -0.9599251
vn 0.04876653 0.2759815 -0.9599251
vn 0.04876653 0.2759815 -0.9599251
vn 0.04876653 0.2759815 -0.9599251
vn 0.7710987 0.3401351 0.5382518
vn 0.7710987 0.3401351 0.5382518
vn 0.7710987 0.3401351 0.5382518
vn -0.6383068 0.2275788 0.7353722
vn -0.6383068 0.2275788 0.7353722
vn -0.6383068 0.2275788 0.7353722
vn -0.6383068 0.2275788 0.7353722
vn -0.6382023 0.2275766 0.7354637
vn -0.6439978 0.4205693 -0.6390526
vn -0.6439978 0.4205693 -0.6390526
vn -0.6439978 0.4205693 -0.6390526
vn -0.6439978 0.4205693 -0.6390526
vn 0.6281849 0.6037948 -0.4907297
vn 0.6281849 0.6037948 -0.4907297
vn 0.6281849 0.6037948 -0.4907297
vn 0.6281849 0.6037948 -0.4907297
vn 0.6281849 0.6037948 -0.4907297
vn 0 1 0
vn 0 1 0
vn 0 1 0
vn 0 1 0
vn 0 1 0
vn -0.7059709 0 -0.7082408
vn -0.7059709 0 -0.7082408
vn -0.7059709 0 -0.7082408
vn -0.7059709 0 -0.7082408
vn -0.7059709 0 -0.7082408
vn -0.7059709 0 -0.7082408
g polySurface85_0
f 3/3/3 2/2/2 1/1/1
f 2/2/2 3/3/3 4/4/4
f 5/5/5 3/3/3 1/1/1
f 5/5/5 1/1/1 6/6/6
f 1/1/1 7/7/7 6/6/6
f 10/10/10 9/9/9 8/8/8
f 11/11/11 8/8/8 9/9/9
f 12/12/12 10/10/10 8/8/8
f 9/9/9 10/10/10 13/13/13
f 14/14/14 13/13/13 10/10/10
f 17/17/17 16/16/16 15/15/15
f 15/15/15 16/16/16 18/18/18
f 19/19/19 18/18/18 16/16/16
f 22/22/22 21/21/21 20/20/20
f 23/23/23 22/22/22 20/20/20
f 26/26/26 25/25/25 24/24/24
f 25/25/25 26/26/26 27/27/27
f 28/28/28 26/26/26 24/24/24
f 31/31/31 30/30/30 29/29/29
f 34/34/34 33/33/33 32/32/32
f 33/33/33 34/34/34 35/35/35
f 32/32/32 33/33/33 36/36/36
f 39/39/39 38/38/38 37/37/37
f 40/40/40 39/39/39 37/37/37
f 43/43/43 42/42/42 41/41/41
f 44/44/44 43/43/43 41/41/41
f 43/43/43 44/44/44 45/45/45
f 48/48/48 47/47/47 46/46/46
f 49/49/49 46/46/46 47/47/47
f 50/50/50 48/48/48 46/46/46
f 53/53/53 52/52/52 51/51/51
f 54/54/54 53/53/53 51/51/51
f 53/53/53 54/54/54 55/55/55
f 54/54/54 56/56/56 55/55/55
