g polySurface91
v 0.6964988 -90.66331 202.1953
v -5.324339 -90.66331 194.0057
v 2.283583 -90.66331 189.6558
v 8.304425 -90.66331 197.8453
v -5.324339 -90.66331 194.0057
v -5.324339 -106.551 194.0057
v 2.283583 -106.551 189.6558
v 2.283583 -90.66331 189.6558
v 2.283583 -90.66331 189.6558
v 2.283583 -106.551 189.6558
v 8.304425 -106.551 197.8453
v 8.304425 -90.66331 197.8453
v 8.304425 -90.66331 197.8453
v 8.304425 -106.551 197.8453
v 0.6964988 -106.551 202.1953
v 0.6964988 -90.66331 202.1953
v 0.6964988 -90.66331 202.1953
v 0.6964988 -106.551 202.1953
v -5.324339 -106.551 194.0057
v -5.324339 -90.66331 194.0057
vt 0.0872 0.7104
vt 0.0872 0.6998
vt 0.0783 0.7005
vt 0.0783 0.7111
vt 0.0992 0.7103
vt 0.0955 0.7103
vt 0.0955 0.7191
vt 0.0992 0.7191
vt 0.0962 0.6542
vt 0.1 0.6543
vt 0.1 0.6438
vt 0.0962 0.6438
vt 0.0783 0.7199
vt 0.082 0.7199
vt 0.082 0.7111
vt 0.0783 0.7111
vt 0.0992 0.6998
vt 0.0955 0.6998
vt 0.0955 0.7103
vt 0.0992 0.7103
vn 0 1 0
vn 0 1 0
vn 0 1 0
vn 0 1 0
vn -0.4963211 0 -0.868139
vn -0.4963211 0 -0.868139
vn -0.4963211 0 -0.868139
vn -0.4963211 0 -0.868139
vn 0.805726 0 -0.5922886
vn 0.805726 0 -0.5922886
vn 0.805726 0 -0.5922886
vn 0.805726 0 -0.5922886
vn 0.4963211 0 0.868139
vn 0.4963211 0 0.868139
vn 0.4963211 0 0.868139
vn 0.4963211 0 0.868139
vn -0.805726 0 0.5922886
vn -0.805726 0 0.5922886
vn -0.805726 0 0.5922886
vn -0.805726 0 0.5922886
g polySurface91_0
f 3/3/3 2/2/2 1/1/1
f 4/4/4 3/3/3 1/1/1
f 7/7/7 6/6/6 5/5/5
f 8/8/8 7/7/7 5/5/5
f 11/11/11 10/10/10 9/9/9
f 12/12/12 11/11/11 9/9/9
f 15/15/15 14/14/14 13/13/13
f 16/16/16 15/15/15 13/13/13
f 19/19/19 18/18/18 17/17/17
f 20/20/20 19/19/19 17/17/17
