g Stone_Small_N_MultiMat
v 0.1380457 0.1693484 0.2419067
v 0.1443347 0.1138377 0.2320312
v -0.1349524 0.1869981 0.2100781
v -0.1732776 0 0.1791162
v -0.1349524 0.1869981 0.2100781
v 0.1443347 0.1138377 0.2320312
v -0.1732776 0 0.1791162
v 0.1443347 0.1138377 0.2320312
v 0.17328 3.051758E-07 0.2055102
v 0.1190124 0.2134703 -0.05299805
v 0.1077136 0.2925317 -0.01350586
v -0.004796143 0.2960232 -0.04945556
v 0.1190124 0.2134703 -0.05299805
v -0.004796143 0.2960232 -0.04945556
v 0.01839722 0.2701505 -0.07860839
v 0.1559363 3.051758E-07 -0.2204028
v 0.1047058 0.2160802 -0.1161743
v -0.06347778 0.2778409 -0.1304248
v 0.1559363 3.051758E-07 -0.2204028
v -0.06347778 0.2778409 -0.1304248
v -0.08174927 3.051758E-07 -0.2419067
v -0.1619006 0.2524266 -0.1406152
v -0.1723596 3.051758E-07 -0.2416431
v -0.08174927 3.051758E-07 -0.2419067
v -0.1619006 0.2524266 -0.1406152
v -0.08174927 3.051758E-07 -0.2419067
v -0.06347778 0.2778409 -0.1304248
v -0.0762561 3.051758E-07 -0.05639648
v -0.1723596 3.051758E-07 -0.2416431
v -0.1727063 0 -0.07181396
v 0.1672351 6.103515E-07 -0.001274414
v 0.1559363 3.051758E-07 -0.2204028
v -0.08174927 3.051758E-07 -0.2419067
v 0.1672351 6.103515E-07 -0.001274414
v -0.08174927 3.051758E-07 -0.2419067
v 0.06070679 3.051758E-07 -0.004208984
v 0.1190124 0.2134703 -0.05299805
v 0.1047058 0.2160802 -0.1161743
v 0.1559363 3.051758E-07 -0.2204028
v 0.1190124 0.2134703 -0.05299805
v 0.1559363 3.051758E-07 -0.2204028
v 0.1672351 6.103515E-07 -0.001274414
v 0.06070679 3.051758E-07 -0.004208984
v -0.08174927 3.051758E-07 -0.2419067
v -0.1723596 3.051758E-07 -0.2416431
v 0.06070679 3.051758E-07 -0.004208984
v -0.1723596 3.051758E-07 -0.2416431
v -0.0762561 3.051758E-07 -0.05639648
v 0.01839722 0.2701505 -0.07860839
v -0.004796143 0.2960232 -0.04945556
v -0.07743286 0.3113087 -0.1170044
v 0.01839722 0.2701505 -0.07860839
v -0.07743286 0.3113087 -0.1170044
v -0.06347778 0.2778409 -0.1304248
v -0.06347778 0.2778409 -0.1304248
v -0.07743286 0.3113087 -0.1170044
v -0.1551184 0.3300879 -0.1094727
v -0.06347778 0.2778409 -0.1304248
v -0.1551184 0.3300879 -0.1094727
v -0.1619006 0.2524266 -0.1406152
v -0.1678333 0.07530823 -0.004489746
v -0.1609143 0.2501134 -0.06788086
v -0.1526965 0.2879448 -0.0167456
v -0.1678333 0.07530823 -0.004489746
v -0.1526965 0.2879448 -0.0167456
v -0.1415442 0.2244769 0.1203052
v -0.0762561 3.051758E-07 -0.05639648
v -0.1732776 0 0.1791162
v 0.17328 3.051758E-07 0.2055102
v -0.0762561 3.051758E-07 -0.05639648
v 0.17328 3.051758E-07 0.2055102
v 0.06070679 3.051758E-07 -0.004208984
v 0.06070679 3.051758E-07 -0.004208984
v 0.17328 3.051758E-07 0.2055102
v 0.1666882 0 0.07079101
v -0.0762561 3.051758E-07 -0.05639648
v -0.1727063 0 -0.07181396
v -0.1732776 0 0.1791162
v 0.06070679 3.051758E-07 -0.004208984
v 0.1666882 0 0.07079101
v 0.1672351 6.103515E-07 -0.001274414
v -0.1349524 0.1869981 0.2100781
v -0.1732776 0 0.1791162
v -0.1727063 0 -0.07181396
v -0.1727063 0 -0.07181396
v -0.1678333 0.07530823 -0.004489746
v -0.1349524 0.1869981 0.2100781
v -0.1678333 0.07530823 -0.004489746
v -0.1415442 0.2244769 0.1203052
v -0.1349524 0.1869981 0.2100781
v -0.1619006 0.2524266 -0.1406152
v -0.1551184 0.3300879 -0.1094727
v -0.1526965 0.2879448 -0.0167456
v -0.1619006 0.2524266 -0.1406152
v -0.1526965 0.2879448 -0.0167456
v -0.1609143 0.2501134 -0.06788086
v -0.1678333 0.07530823 -0.004489746
v -0.1727063 0 -0.07181396
v -0.1723596 3.051758E-07 -0.2416431
v -0.1723596 3.051758E-07 -0.2416431
v -0.1619006 0.2524266 -0.1406152
v -0.1678333 0.07530823 -0.004489746
v -0.1619006 0.2524266 -0.1406152
v -0.1609143 0.2501134 -0.06788086
v -0.1678333 0.07530823 -0.004489746
v 0.1077136 0.2925317 -0.01350586
v 0.1190124 0.2134703 -0.05299805
v 0.1241833 0.207468 0.01709961
v 0.139198 0.1562337 0.1893652
v 0.1435828 0.1343945 0.0633252
v 0.1642663 0.03135742 0.09929443
v 0.139198 0.1562337 0.1893652
v 0.1642663 0.03135742 0.09929443
v 0.1487781 0.1085075 0.2073267
v 0.1231042 0.2189909 0.1356787
v 0.1077136 0.2925317 -0.01350586
v 0.1241833 0.207468 0.01709961
v 0.1231042 0.2189909 0.1356787
v 0.1241833 0.207468 0.01709961
v 0.1337878 0.1831859 0.135481
v 0.1328796 0.1864918 0.2052222
v 0.1231042 0.2189909 0.1356787
v 0.1337878 0.1831859 0.135481
v 0.1328796 0.1864918 0.2052222
v 0.1337878 0.1831859 0.135481
v 0.139198 0.1562337 0.1893652
v 0.139198 0.1562337 0.1893652
v 0.1487781 0.1085075 0.2073267
v 0.1443347 0.1138377 0.2320312
v 0.1443347 0.1138377 0.2320312
v 0.1380457 0.1693484 0.2419067
v 0.139198 0.1562337 0.1893652
v 0.1380457 0.1693484 0.2419067
v 0.1328796 0.1864918 0.2052222
v 0.139198 0.1562337 0.1893652
v 0.1642663 0.03135742 0.09929443
v 0.1666882 0 0.07079101
v 0.17328 3.051758E-07 0.2055102
v 0.17328 3.051758E-07 0.2055102
v 0.1443347 0.1138377 0.2320312
v 0.1642663 0.03135742 0.09929443
v 0.1443347 0.1138377 0.2320312
v 0.1487781 0.1085075 0.2073267
v 0.1642663 0.03135742 0.09929443
v 0.1672351 6.103515E-07 -0.001274414
v 0.1666882 0 0.07079101
v 0.1642663 0.03135742 0.09929443
v 0.1642663 0.03135742 0.09929443
v 0.1190124 0.2134703 -0.05299805
v 0.1672351 6.103515E-07 -0.001274414
v 0.1642663 0.03135742 0.09929443
v 0.1435828 0.1343945 0.0633252
v 0.1190124 0.2134703 -0.05299805
v 0.1435828 0.1343945 0.0633252
v 0.1241833 0.207468 0.01709961
v 0.1190124 0.2134703 -0.05299805
v 0.139198 0.1562337 0.1893652
v 0.1337878 0.1831859 0.135481
v 0.1241833 0.207468 0.01709961
v 0.139198 0.1562337 0.1893652
v 0.1241833 0.207468 0.01709961
v 0.1435828 0.1343945 0.0633252
v -0.07135864 0.2166641 0.1444043
v 0.07676147 0.2237708 0.1387549
v 0.1380457 0.1693484 0.2419067
v -0.07135864 0.2166641 0.1444043
v 0.1380457 0.1693484 0.2419067
v -0.1349524 0.1869981 0.2100781
v 0.1077136 0.2925317 -0.01350586
v 0.07676147 0.2237708 0.1387549
v -0.07135864 0.2166641 0.1444043
v 0.1077136 0.2925317 -0.01350586
v -0.07135864 0.2166641 0.1444043
v -0.004796143 0.2960232 -0.04945556
v 0.1328796 0.1864918 0.2052222
v 0.1380457 0.1693484 0.2419067
v 0.07676147 0.2237708 0.1387549
v -0.07135864 0.2166641 0.1444043
v -0.1415442 0.2244769 0.1203052
v -0.1526965 0.2879448 -0.0167456
v -0.07135864 0.2166641 0.1444043
v -0.1526965 0.2879448 -0.0167456
v -0.004796143 0.2960232 -0.04945556
v 0.01839722 0.2701505 -0.07860839
v -0.06347778 0.2778409 -0.1304248
v 0.1047058 0.2160802 -0.1161743
v 0.01839722 0.2701505 -0.07860839
v 0.1047058 0.2160802 -0.1161743
v 0.1190124 0.2134703 -0.05299805
v -0.1551184 0.3300879 -0.1094727
v -0.07743286 0.3113087 -0.1170044
v -0.004796143 0.2960232 -0.04945556
v -0.1551184 0.3300879 -0.1094727
v -0.004796143 0.2960232 -0.04945556
v -0.1526965 0.2879448 -0.0167456
v 0.1077136 0.2925317 -0.01350586
v 0.1231042 0.2189909 0.1356787
v 0.07676147 0.2237708 0.1387549
v -0.07135864 0.2166641 0.1444043
v -0.1349524 0.1869981 0.2100781
v -0.1415442 0.2244769 0.1203052
v 0.1231042 0.2189909 0.1356787
v 0.1328796 0.1864918 0.2052222
v 0.07676147 0.2237708 0.1387549
vt 0.09732228 0.44343
vt 0.1138714 0.3070892
vt 0.1506591 0.4867797
vt 0.2025393 0.02749048
vt 0.1506591 0.4867797
vt 0.1138714 0.3070892
vt 0.2025393 0.02749048
vt 0.1138714 0.3070892
vt 0.1583104 0.0274912
vt 0.5914996 0.5517985
vt 0.5253219 0.7459826
vt 0.5855616 0.7545581
vt 0.5914996 0.5517985
vt 0.5855616 0.7545581
vt 0.634414 0.6910115
vt 0.8720236 0.0274912
vt 0.697363 0.5582086
vt 0.7212449 0.7099001
vt 0.8720236 0.0274912
vt 0.7212449 0.7099001
vt 0.9080568 0.0274912
vt 0.7383228 0.6474797
vt 0.9076176 0.0274912
vt 0.9080568 0.0274912
vt 0.7383228 0.6474797
vt 0.9080568 0.0274912
vt 0.7212449 0.7099001
vt 0.5971933 0.0274912
vt 0.9076176 0.0274912
vt 0.6230267 0.02749048
vt 0.5048234 0.02749197
vt 0.8720236 0.0274912
vt 0.9080568 0.0274912
vt 0.5048234 0.02749197
vt 0.9080568 0.0274912
vt 0.5097439 0.0274912
vt 0.5914996 0.5517985
vt 0.697363 0.5582086
vt 0.8720236 0.0274912
vt 0.5914996 0.5517985
vt 0.8720236 0.0274912
vt 0.5048234 0.02749197
vt 0.5097439 0.0274912
vt 0.9080568 0.0274912
vt 0.9076176 0.0274912
vt 0.5097439 0.0274912
vt 0.9076176 0.0274912
vt 0.5971933 0.0274912
vt 0.634414 0.6910115
vt 0.5855616 0.7545581
vt 0.6987547 0.7921011
vt 0.634414 0.6910115
vt 0.6987547 0.7921011
vt 0.7212449 0.7099001
vt 0.7212449 0.7099001
vt 0.6987547 0.7921011
vt 0.6861334 0.8382249
vt 0.7212449 0.7099001
vt 0.6861334 0.8382249
vt 0.7383228 0.6474797
vt 0.510214 0.2124563
vt 0.6164392 0.6417981
vt 0.5307496 0.7347165
vt 0.510214 0.2124563
vt 0.5307496 0.7347165
vt 0.3010914 0.578832
vt 0.5971933 0.0274912
vt 0.2025393 0.02749048
vt 0.1583104 0.0274912
vt 0.5971933 0.0274912
vt 0.1583104 0.0274912
vt 0.5097439 0.0274912
vt 0.5097439 0.0274912
vt 0.1583104 0.0274912
vt 0.3840626 0.02749048
vt 0.5971933 0.0274912
vt 0.6230267 0.02749048
vt 0.2025393 0.02749048
vt 0.5097439 0.0274912
vt 0.3840626 0.02749048
vt 0.5048234 0.02749197
vt 0.1506591 0.4867797
vt 0.2025393 0.02749048
vt 0.6230267 0.02749048
vt 0.6230267 0.02749048
vt 0.510214 0.2124563
vt 0.1506591 0.4867797
vt 0.510214 0.2124563
vt 0.3010914 0.578832
vt 0.1506591 0.4867797
vt 0.7383228 0.6474797
vt 0.6861334 0.8382249
vt 0.5307496 0.7347165
vt 0.7383228 0.6474797
vt 0.5307496 0.7347165
vt 0.6164392 0.6417981
vt 0.510214 0.2124563
vt 0.6230267 0.02749048
vt 0.9076176 0.0274912
vt 0.9076176 0.0274912
vt 0.7383228 0.6474797
vt 0.510214 0.2124563
vt 0.7383228 0.6474797
vt 0.6164392 0.6417981
vt 0.510214 0.2124563
vt 0.5253219 0.7459826
vt 0.5914996 0.5517985
vt 0.4740325 0.537056
vt 0.1853655 0.4112186
vt 0.3965757 0.3575791
vt 0.3362988 0.104508
vt 0.1853655 0.4112186
vt 0.3362988 0.104508
vt 0.1552672 0.2939976
vt 0.2753292 0.5653577
vt 0.5253219 0.7459826
vt 0.4740325 0.537056
vt 0.2753292 0.5653577
vt 0.4740325 0.537056
vt 0.2756601 0.4774163
vt 0.158796 0.4855362
vt 0.2753292 0.5653577
vt 0.2756601 0.4774163
vt 0.158796 0.4855362
vt 0.2756601 0.4774163
vt 0.1853655 0.4112186
vt 0.1853655 0.4112186
vt 0.1552672 0.2939976
vt 0.1138714 0.3070892
vt 0.1138714 0.3070892
vt 0.09732228 0.44343
vt 0.1853655 0.4112186
vt 0.09732228 0.44343
vt 0.158796 0.4855362
vt 0.1853655 0.4112186
vt 0.3362988 0.104508
vt 0.3840626 0.02749048
vt 0.1583104 0.0274912
vt 0.1583104 0.0274912
vt 0.1138714 0.3070892
vt 0.3362988 0.104508
vt 0.1138714 0.3070892
vt 0.1552672 0.2939976
vt 0.3362988 0.104508
vt 0.5048234 0.02749197
vt 0.3840626 0.02749048
vt 0.3362988 0.104508
vt 0.3362988 0.104508
vt 0.5914996 0.5517985
vt 0.5048234 0.02749197
vt 0.3362988 0.104508
vt 0.3965757 0.3575791
vt 0.5914996 0.5517985
vt 0.3965757 0.3575791
vt 0.4740325 0.537056
vt 0.5914996 0.5517985
vt 0.1853655 0.4112186
vt 0.2756601 0.4774163
vt 0.4740325 0.537056
vt 0.1853655 0.4112186
vt 0.4740325 0.537056
vt 0.3965757 0.3575791
vt 0.3582626 0.9841562
vt 0.3680624 0.9841562
vt 0.1891066 0.9841562
vt 0.3582626 0.9841562
vt 0.1891066 0.9841562
vt 0.2443272 0.9841562
vt 0.6322171 0.9841562
vt 0.3680624 0.9841562
vt 0.3582626 0.9841562
vt 0.6322171 0.9841562
vt 0.3582626 0.9841562
vt 0.6945862 0.9841562
vt 0.2527495 0.9841562
vt 0.1891066 0.9841562
vt 0.3680624 0.9841562
vt 0.3582626 0.9841562
vt 0.4000711 0.9841562
vt 0.6378378 0.9841562
vt 0.3582626 0.9841562
vt 0.6378378 0.9841562
vt 0.6945862 0.9841562
vt 0.745162 0.9841562
vt 0.8350576 0.9841562
vt 0.8103352 0.9841562
vt 0.745162 0.9841562
vt 0.8103352 0.9841562
vt 0.7007316 0.9841562
vt 0.7987095 0.9841562
vt 0.8117766 0.9841562
vt 0.6945862 0.9841562
vt 0.7987095 0.9841562
vt 0.6945862 0.9841562
vt 0.6378378 0.9841562
vt 0.6322171 0.9841562
vt 0.3733996 0.9841562
vt 0.3680624 0.9841562
vt 0.3582626 0.9841562
vt 0.2443272 0.9841562
vt 0.4000711 0.9841562
vt 0.3733996 0.9841562
vt 0.2527495 0.9841562
vt 0.3680624 0.9841562
vn -0.1257041 -0.1875505 0.9741783
vn -0.1257041 -0.1875505 0.9741783
vn -0.1257041 -0.1875505 0.9741783
vn -0.09705758 -0.1838755 0.978146
vn -0.09705757 -0.1838755 0.978146
vn -0.09705757 -0.1838755 0.978146
vn -0.09705758 -0.1838755 0.978146
vn -0.09705757 -0.1838755 0.978146
vn -0.09705757 -0.1838755 0.978146
vn 0.3733833 0.5906761 -0.7153227
vn 0.3733833 0.5906761 -0.7153227
vn 0.3733833 0.5906761 -0.7153227
vn 0.3733833 0.5906761 -0.7153227
vn 0.3733833 0.5906761 -0.7153227
vn 0.3733833 0.5906761 -0.7153228
vn 0.1411091 0.4041153 -0.9037583
vn 0.1411091 0.4041153 -0.9037583
vn 0.1411091 0.4041154 -0.9037583
vn 0.1411091 0.4041153 -0.9037583
vn 0.1411091 0.4041154 -0.9037583
vn 0.1411091 0.4041154 -0.9037583
vn -0.001277589 0.3720582 -0.9282085
vn -0.001277589 0.3720582 -0.9282085
vn -0.001277589 0.3720582 -0.9282085
vn -0.001277589 0.3720582 -0.9282085
vn -0.001277589 0.3720582 -0.9282085
vn -0.001277589 0.3720582 -0.9282085
vn 3.450186E-06 -1 -1.769359E-06
vn 3.450186E-06 -1 -1.769359E-06
vn 3.450186E-06 -1 -1.769359E-06
vn 8.597014E-07 -1 3.839837E-07
vn 8.597014E-07 -1 3.839837E-07
vn 8.597013E-07 -1 3.839837E-07
vn 8.597014E-07 -1 3.839837E-07
vn 8.597013E-07 -1 3.839837E-07
vn 8.597015E-07 -1 3.839837E-07
vn 0.9682966 0.2346587 -0.08565684
vn 0.9682966 0.2346587 -0.08565684
vn 0.9682966 0.2346587 -0.08565684
vn 0.9682966 0.2346587 -0.08565684
vn 0.9682966 0.2346587 -0.08565684
vn 0.9682966 0.2346587 -0.08565683
vn 0 -1 0
vn 0 -1 0
vn 0 -1 0
vn 0 -1 0
vn 0 -1 0
vn 0 -1 0
vn 0.5044262 0.6890753 -0.5203167
vn 0.5044262 0.6890753 -0.5203167
vn 0.5044262 0.6890753 -0.5203167
vn 0.5044262 0.6890753 -0.5203167
vn 0.5044262 0.6890753 -0.5203167
vn 0.5044262 0.6890752 -0.5203167
vn -1.068414E-05 0.3721918 -0.9281558
vn -1.068414E-05 0.3721918 -0.9281558
vn -1.068414E-05 0.3721918 -0.9281558
vn -1.068414E-05 0.3721918 -0.9281558
vn -1.068414E-05 0.3721918 -0.9281558
vn -1.068414E-05 0.3721918 -0.9281558
vn -0.9906681 0.0770034 0.1124602
vn -0.9906681 0.0770034 0.1124602
vn -0.9906681 0.0770034 0.1124602
vn -0.9906681 0.0770034 0.1124602
vn -0.9906681 0.0770034 0.1124602
vn -0.9906681 0.07700339 0.1124602
vn 7.467889E-07 -1 -7.128385E-07
vn 7.467889E-07 -1 -7.128385E-07
vn 7.467889E-07 -1 -7.128386E-07
vn 7.467889E-07 -1 -7.128385E-07
vn 7.467889E-07 -1 -7.128386E-07
vn 7.467889E-07 -1 -7.128385E-07
vn -4.643373E-06 -1 2.546204E-06
vn -4.643373E-06 -1 2.546203E-06
vn -4.643373E-06 -1 2.546204E-06
vn 3.162929E-06 -1 0
vn 3.162928E-06 -1 0
vn 3.162928E-06 -1 0
vn 3.097401E-06 -1 -8.445516E-06
vn 3.097401E-06 -1 -8.445515E-06
vn 3.097401E-06 -1 -8.445516E-06
vn -0.9896072 0.1344543 0.05098709
vn -0.9896072 0.1344543 0.05098709
vn -0.9896072 0.1344544 0.05098709
vn -0.9896072 0.1344544 0.05098709
vn -0.9896072 0.1344543 0.05098709
vn -0.9896072 0.1344543 0.05098709
vn -0.9896072 0.1344543 0.05098709
vn -0.9896072 0.1344543 0.05098709
vn -0.9896072 0.1344543 0.05098709
vn -0.9942895 0.09614334 0.04631243
vn -0.9942895 0.09614333 0.04631243
vn -0.9942895 0.09614333 0.04631243
vn -0.9942895 0.09614334 0.04631243
vn -0.9942895 0.09614333 0.04631243
vn -0.9942895 0.09614333 0.04631243
vn -0.9989972 0.04427549 0.006657728
vn -0.9989972 0.0442755 0.006657728
vn -0.9989972 0.0442755 0.006657728
vn -0.9989972 0.0442755 0.006657728
vn -0.9989972 0.04427549 0.006657728
vn -0.9989972 0.04427549 0.006657728
vn -0.9989972 0.04427549 0.006657728
vn -0.9989972 0.0442755 0.006657728
vn -0.9989972 0.04427549 0.006657728
vn 0.9838028 0.1695946 -0.05805015
vn 0.9838028 0.1695946 -0.05805015
vn 0.9838028 0.1695946 -0.05805014
vn 0.980441 0.1968135 8.358753E-06
vn 0.980441 0.1968135 8.358753E-06
vn 0.980441 0.1968135 8.358754E-06
vn 0.980441 0.1968135 8.358753E-06
vn 0.980441 0.1968135 8.358754E-06
vn 0.980441 0.1968135 8.358753E-06
vn 0.9762591 0.2162663 -0.01213148
vn 0.9762591 0.2162662 -0.01213148
vn 0.9762591 0.2162662 -0.01213148
vn 0.9762591 0.2162663 -0.01213148
vn 0.9762591 0.2162662 -0.01213148
vn 0.9762591 0.2162663 -0.01213148
vn 0.9684895 0.2490531 0.0008061888
vn 0.9684895 0.2490531 0.0008061888
vn 0.9684895 0.2490531 0.0008061887
vn 0.9684895 0.2490531 0.0008061888
vn 0.9684895 0.2490531 0.0008061887
vn 0.9684895 0.2490531 0.0008061887
vn 0.9849914 0.1717545 0.01709742
vn 0.9849914 0.1717545 0.01709742
vn 0.9849914 0.1717545 0.01709742
vn 0.9849914 0.1717545 0.01709742
vn 0.9849914 0.1717545 0.01709741
vn 0.9849914 0.1717545 0.01709742
vn 0.9849914 0.1717545 0.01709741
vn 0.9849914 0.1717545 0.01709742
vn 0.9849914 0.1717545 0.01709742
vn 0.9802186 0.1978882 -0.003443117
vn 0.9802186 0.1978882 -0.003443116
vn 0.9802186 0.1978882 -0.003443117
vn 0.9802186 0.1978882 -0.003443117
vn 0.9802186 0.1978881 -0.003443116
vn 0.9802186 0.1978882 -0.003443117
vn 0.9802186 0.1978881 -0.003443116
vn 0.9802186 0.1978882 -0.003443117
vn 0.9802186 0.1978882 -0.003443117
vn 0.9796367 0.1943821 -0.05027448
vn 0.9796367 0.1943821 -0.05027448
vn 0.9796367 0.1943821 -0.05027448
vn 0.9796367 0.1943821 -0.05027448
vn 0.9796367 0.1943821 -0.05027448
vn 0.9796367 0.1943821 -0.05027448
vn 0.9796367 0.1943821 -0.05027448
vn 0.9796367 0.1943821 -0.05027448
vn 0.9796367 0.1943821 -0.05027448
vn 0.9796367 0.1943821 -0.05027448
vn 0.9796367 0.1943821 -0.05027448
vn 0.9796367 0.1943821 -0.05027448
vn 0.9746099 0.2231373 -0.01858303
vn 0.9746099 0.2231373 -0.01858304
vn 0.9746099 0.2231374 -0.01858304
vn 0.9746099 0.2231373 -0.01858303
vn 0.9746099 0.2231374 -0.01858304
vn 0.9746099 0.2231373 -0.01858303
vn -0.005301442 0.8951308 0.4457721
vn -0.005301443 0.8951308 0.4457721
vn -0.005301442 0.8951308 0.4457721
vn -0.005301442 0.8951308 0.4457721
vn -0.005301442 0.8951308 0.4457721
vn -0.005301442 0.8951308 0.4457721
vn -0.05689576 0.9235626 0.379203
vn -0.05689576 0.9235626 0.3792031
vn -0.05689576 0.9235626 0.379203
vn -0.05689576 0.9235626 0.379203
vn -0.05689576 0.9235626 0.379203
vn -0.05689576 0.9235626 0.3792031
vn 0.1204393 0.9057596 0.4063174
vn 0.1204394 0.9057596 0.4063174
vn 0.1204393 0.9057596 0.4063174
vn 0.01460918 0.9171389 0.3983001
vn 0.01460919 0.9171388 0.3983001
vn 0.01460919 0.9171388 0.3983001
vn 0.01460918 0.9171389 0.3983001
vn 0.01460919 0.9171388 0.3983001
vn 0.01460918 0.9171389 0.3983001
vn 0.4215339 0.8640512 -0.2751814
vn 0.421534 0.8640511 -0.2751813
vn 0.421534 0.8640511 -0.2751813
vn 0.4215339 0.8640512 -0.2751814
vn 0.421534 0.8640511 -0.2751813
vn 0.4215339 0.8640512 -0.2751814
vn 0.09768505 0.9505397 0.294842
vn 0.09768506 0.9505397 0.294842
vn 0.09768505 0.9505397 0.294842
vn 0.09768505 0.9505397 0.294842
vn 0.09768505 0.9505397 0.294842
vn 0.09768505 0.9505397 0.294842
vn 0.120804 0.8952593 0.4288558
vn 0.120804 0.8952593 0.4288558
vn 0.120804 0.8952593 0.4288558
vn -0.03028434 0.9215927 0.3869751
vn -0.03028434 0.9215927 0.3869751
vn -0.03028434 0.9215927 0.3869751
vn 0.1203931 0.9057499 0.4063528
vn 0.1203931 0.9057499 0.4063529
vn 0.1203931 0.9057499 0.4063528
g Stone_Small_N_MultiMat_0
f 3/3/3 2/2/2 1/1/1
f 6/6/6 5/5/5 4/4/4
f 9/9/9 8/8/8 7/7/7
f 12/12/12 11/11/11 10/10/10
f 15/15/15 14/14/14 13/13/13
f 18/18/18 17/17/17 16/16/16
f 21/21/21 20/20/20 19/19/19
f 24/24/24 23/23/23 22/22/22
f 27/27/27 26/26/26 25/25/25
f 30/30/30 29/29/29 28/28/28
f 33/33/33 32/32/32 31/31/31
f 36/36/36 35/35/35 34/34/34
f 39/39/39 38/38/38 37/37/37
f 42/42/42 41/41/41 40/40/40
f 45/45/45 44/44/44 43/43/43
f 48/48/48 47/47/47 46/46/46
f 51/51/51 50/50/50 49/49/49
f 54/54/54 53/53/53 52/52/52
f 57/57/57 56/56/56 55/55/55
f 60/60/60 59/59/59 58/58/58
f 63/63/63 62/62/62 61/61/61
f 66/66/66 65/65/65 64/64/64
f 69/69/69 68/68/68 67/67/67
f 72/72/72 71/71/71 70/70/70
f 75/75/75 74/74/74 73/73/73
f 78/78/78 77/77/77 76/76/76
f 81/81/81 80/80/80 79/79/79
f 84/84/84 83/83/83 82/82/82
f 87/87/87 86/86/86 85/85/85
f 90/90/90 89/89/89 88/88/88
f 93/93/93 92/92/92 91/91/91
f 96/96/96 95/95/95 94/94/94
f 99/99/99 98/98/98 97/97/97
f 102/102/102 101/101/101 100/100/100
f 105/105/105 104/104/104 103/103/103
f 108/108/108 107/107/107 106/106/106
f 111/111/111 110/110/110 109/109/109
f 114/114/114 113/113/113 112/112/112
f 117/117/117 116/116/116 115/115/115
f 120/120/120 119/119/119 118/118/118
f 123/123/123 122/122/122 121/121/121
f 126/126/126 125/125/125 124/124/124
f 129/129/129 128/128/128 127/127/127
f 132/132/132 131/131/131 130/130/130
f 135/135/135 134/134/134 133/133/133
f 138/138/138 137/137/137 136/136/136
f 141/141/141 140/140/140 139/139/139
f 144/144/144 143/143/143 142/142/142
f 147/147/147 146/146/146 145/145/145
f 150/150/150 149/149/149 148/148/148
f 153/153/153 152/152/152 151/151/151
f 156/156/156 155/155/155 154/154/154
f 159/159/159 158/158/158 157/157/157
f 162/162/162 161/161/161 160/160/160
g Stone_Small_N_MultiMat_1
f 165/165/165 164/164/164 163/163/163
f 168/168/168 167/167/167 166/166/166
f 171/171/171 170/170/170 169/169/169
f 174/174/174 173/173/173 172/172/172
f 177/177/177 176/176/176 175/175/175
f 180/180/180 179/179/179 178/178/178
f 183/183/183 182/182/182 181/181/181
f 186/186/186 185/185/185 184/184/184
f 189/189/189 188/188/188 187/187/187
f 192/192/192 191/191/191 190/190/190
f 195/195/195 194/194/194 193/193/193
f 198/198/198 197/197/197 196/196/196
f 201/201/201 200/200/200 199/199/199
f 204/204/204 203/203/203 202/202/202
