g Stone_Small_J_MultiMat
v 0.07925415 0.06950103 0.1374011
v 0.09608276 0.1766617 -0.01869263
v 0.1090637 0.001348572 -0.02213989
v 0.07925415 0.06950103 0.1374011
v 0.1090637 0.001348572 -0.02213989
v 0.09793823 0.002507019 0.1419202
v -0.132821 0.001348267 -0.1318909
v 0.00230835 0 -0.1411658
v -0.003604736 0.2923471 -0.1344202
v -0.132821 0.001348267 -0.1318909
v -0.003604736 0.2923471 -0.1344202
v -0.08168823 0.303854 -0.1283704
v -0.132821 0.001348267 -0.1318909
v -0.1409631 0.001348267 0.03037231
v 0.02712524 0 -0.02782349
v -0.132821 0.001348267 -0.1318909
v 0.02712524 0 -0.02782349
v 0.00230835 0 -0.1411658
v 0.09793823 0.002507019 0.1419202
v 0.02712524 0 -0.02782349
v -0.1409631 0.001348267 0.03037231
v 0.09793823 0.002507019 0.1419202
v -0.1409631 0.001348267 0.03037231
v -0.1406677 0.001348267 0.1410779
v -0.08168823 0.303854 -0.1283704
v -0.1062512 0.1890427 0.008148193
v -0.1409631 0.001348267 0.03037231
v -0.08168823 0.303854 -0.1283704
v -0.1409631 0.001348267 0.03037231
v -0.132821 0.001348267 -0.1318909
v 0.00230835 0 -0.1411658
v 0.02712524 0 -0.02782349
v 0.1090637 0.001348572 -0.02213989
v 0.00230835 0 -0.1411658
v 0.1090637 0.001348572 -0.02213989
v 0.1409656 0.001348267 -0.1419202
v 0.02712524 0 -0.02782349
v 0.09793823 0.002507019 0.1419202
v 0.1090637 0.001348572 -0.02213989
v 0.00230835 0 -0.1411658
v 0.1409656 0.001348267 -0.1419202
v 0.1364148 0.1806772 -0.1417102
v 0.1364148 0.1806772 -0.1417102
v 0.07267945 0.2831088 -0.1413782
v 0.00230835 0 -0.1411658
v 0.07267945 0.2831088 -0.1413782
v -0.003604736 0.2923471 -0.1344202
v 0.00230835 0 -0.1411658
v 0.1364148 0.1806772 -0.1417102
v 0.1409656 0.001348267 -0.1419202
v 0.1090637 0.001348572 -0.02213989
v 0.1090637 0.001348572 -0.02213989
v 0.09608276 0.1766617 -0.01869263
v 0.1364148 0.1806772 -0.1417102
v 0.09608276 0.1766617 -0.01869263
v 0.1077673 0.242388 -0.1006409
v 0.1364148 0.1806772 -0.1417102
v 0.07925415 0.06950103 0.1374011
v 0.09793823 0.002507019 0.1419202
v -0.1406677 0.001348267 0.1410779
v -0.1406677 0.001348267 0.1410779
v -0.01557251 0.07902893 0.1381042
v 0.07925415 0.06950103 0.1374011
v -0.1406677 0.001348267 0.1410779
v -0.1309241 0.04604309 0.1410022
v -0.01557251 0.07902893 0.1381042
v -0.1309241 0.04604309 0.1410022
v -0.1406677 0.001348267 0.1410779
v -0.1409631 0.001348267 0.03037231
v -0.1409631 0.001348267 0.03037231
v -0.1062512 0.1890427 0.008148193
v -0.1309241 0.04604309 0.1410022
v -0.1062512 0.1890427 0.008148193
v -0.1053577 0.1368869 0.07554565
v -0.1309241 0.04604309 0.1410022
v -0.001593017 0.18358 -0.001732178
v -0.1062512 0.1890427 0.008148193
v -0.08168823 0.303854 -0.1283704
v -0.001593017 0.18358 -0.001732178
v -0.08168823 0.303854 -0.1283704
v -0.003604736 0.2923471 -0.1344202
v -0.1309241 0.04604309 0.1410022
v -0.1053577 0.1368869 0.07554565
v -0.01557251 0.07902893 0.1381042
v 0.1364148 0.1806772 -0.1417102
v 0.1077673 0.242388 -0.1006409
v 0.07267945 0.2831088 -0.1413782
v 0.07925415 0.06950103 0.1374011
v -0.001593017 0.18358 -0.001732178
v 0.09608276 0.1766617 -0.01869263
v -0.003604736 0.2923471 -0.1344202
v 0.07267945 0.2831088 -0.1413782
v 0.1077673 0.242388 -0.1006409
v 0.1077673 0.242388 -0.1006409
v -0.001593017 0.18358 -0.001732178
v -0.003604736 0.2923471 -0.1344202
v 0.1077673 0.242388 -0.1006409
v 0.09608276 0.1766617 -0.01869263
v -0.001593017 0.18358 -0.001732178
v -0.1062512 0.1890427 0.008148193
v -0.001593017 0.18358 -0.001732178
v 0.07925415 0.06950103 0.1374011
v 0.07925415 0.06950103 0.1374011
v -0.1053577 0.1368869 0.07554565
v -0.1062512 0.1890427 0.008148193
v 0.07925415 0.06950103 0.1374011
v -0.01557251 0.07902893 0.1381042
v -0.1053577 0.1368869 0.07554565
vt 0.09434291 0.2218826
vt 0.5308727 0.501828
vt 0.5405141 0.04384182
vt 0.09434291 0.2218826
vt 0.5405141 0.04384182
vt 0.08170383 0.0468681
vt 0.8474433 0.04384102
vt 0.8733816 0.04031883
vt 0.8545169 0.8040434
vt 0.8474433 0.04384102
vt 0.8545169 0.8040434
vt 0.8375961 0.8341041
vt 0.8474433 0.04384102
vt 0.3936596 0.04384102
vt 0.5564052 0.04031883
vt 0.8474433 0.04384102
vt 0.5564052 0.04031883
vt 0.8733816 0.04031883
vt 0.08170383 0.0468681
vt 0.5564052 0.04031883
vt 0.3936596 0.04384102
vt 0.08170383 0.0468681
vt 0.3936596 0.04384102
vt 0.08405965 0.04384102
vt 0.8375961 0.8341041
vt 0.4558073 0.5341719
vt 0.3936596 0.04384102
vt 0.8375961 0.8341041
vt 0.3936596 0.04384102
vt 0.8474433 0.04384102
vt 0.8733816 0.04031883
vt 0.5564052 0.04031883
vt 0.5405141 0.04384182
vt 0.8733816 0.04031883
vt 0.5405141 0.04384182
vt 0.8754892 0.04384102
vt 0.5564052 0.04031883
vt 0.08170383 0.0468681
vt 0.5405141 0.04384182
vt 0.8733816 0.04031883
vt 0.8754892 0.04384102
vt 0.8749017 0.512318
vt 0.8749017 0.512318
vt 0.8739751 0.7799095
vt 0.8733816 0.04031883
vt 0.8739751 0.7799095
vt 0.8545169 0.8040434
vt 0.8733816 0.04031883
vt 0.8749017 0.512318
vt 0.8754892 0.04384102
vt 0.5405141 0.04384182
vt 0.5405141 0.04384182
vt 0.5308727 0.501828
vt 0.8749017 0.512318
vt 0.5308727 0.501828
vt 0.7600477 0.6735307
vt 0.8749017 0.512318
vt 0.09434291 0.2218826
vt 0.08170383 0.0468681
vt 0.08405965 0.04384102
vt 0.08405965 0.04384102
vt 0.09237467 0.2467732
vt 0.09434291 0.2218826
vt 0.08405965 0.04384102
vt 0.08427163 0.1606013
vt 0.09237467 0.2467732
vt 0.08427163 0.1606013
vt 0.08405965 0.04384102
vt 0.3936596 0.04384102
vt 0.3936596 0.04384102
vt 0.4558073 0.5341719
vt 0.08427163 0.1606013
vt 0.4558073 0.5341719
vt 0.2673233 0.3979207
vt 0.08427163 0.1606013
vt 0.5149776 0.9841562
vt 0.4942191 0.9841562
vt 0.7810283 0.9841562
vt 0.5149776 0.9841562
vt 0.7810283 0.9841562
vt 0.793739 0.9841562
vt 0.2151088 0.9841562
vt 0.3526248 0.9841562
vt 0.2211946 0.9841562
vt 0.8090553 0.9841562
vt 0.7227719 0.9841562
vt 0.8083575 0.9841562
vt 0.2226718 0.9841562
vt 0.5149776 0.9841562
vt 0.5506085 0.9841562
vt 0.793739 0.9841562
vt 0.8083575 0.9841562
vt 0.7227719 0.9841562
vt 0.7227719 0.9841562
vt 0.5149776 0.9841562
vt 0.793739 0.9841562
vt 0.7227719 0.9841562
vt 0.5506085 0.9841562
vt 0.5149776 0.9841562
vt 0.4942191 0.9841562
vt 0.5149776 0.9841562
vt 0.2226718 0.9841562
vt 0.2226718 0.9841562
vt 0.3526248 0.9841562
vt 0.4942191 0.9841562
vt 0.2226718 0.9841562
vt 0.2211946 0.9841562
vt 0.3526248 0.9841562
vn 0.9832641 0.1290629 0.1285858
vn 0.9832641 0.1290629 0.1285858
vn 0.9832641 0.1290629 0.1285858
vn 0.9832641 0.1290629 0.1285858
vn 0.9832641 0.1290629 0.1285858
vn 0.9832641 0.1290629 0.1285858
vn -0.07031898 0.02255663 -0.9972695
vn -0.07031898 0.02255663 -0.9972695
vn -0.07031897 0.02255663 -0.9972695
vn -0.07031898 0.02255663 -0.9972695
vn -0.07031897 0.02255663 -0.9972695
vn -0.07031897 0.02255663 -0.9972695
vn -0.00877458 -0.9999614 0.0005308832
vn -0.00877458 -0.9999614 0.0005308832
vn -0.00877458 -0.9999614 0.0005308833
vn -0.00877458 -0.9999614 0.0005308832
vn -0.00877458 -0.9999614 0.0005308833
vn -0.00877458 -0.9999614 0.0005308832
vn 0.000767202 -0.9999615 0.008744424
vn 0.0007672019 -0.9999615 0.008744424
vn 0.000767202 -0.9999615 0.008744424
vn 0.000767202 -0.9999615 0.008744424
vn 0.000767202 -0.9999615 0.008744424
vn 0.0007672019 -0.9999615 0.008744423
vn -0.9844074 0.170784 -0.04212843
vn -0.9844074 0.170784 -0.04212841
vn -0.9844074 0.170784 -0.04212842
vn -0.9844074 0.170784 -0.04212843
vn -0.9844074 0.170784 -0.04212842
vn -0.9844074 0.170784 -0.04212843
vn 0.01221602 -0.9999253 0.0003725855
vn 0.01221602 -0.9999253 0.0003725854
vn 0.01221602 -0.9999253 0.0003725855
vn 0.01221602 -0.9999253 0.0003725855
vn 0.01221602 -0.9999253 0.0003725855
vn 0.01221602 -0.9999253 0.0003725855
vn 0.01589128 -0.9998406 0.008137709
vn 0.01589128 -0.9998406 0.008137707
vn 0.01589127 -0.9998406 0.008137707
vn -0.03070404 0.007029043 -0.9995038
vn -0.03070403 0.007029042 -0.9995038
vn -0.03070403 0.007029044 -0.9995038
vn -0.03070403 0.007029044 -0.9995038
vn -0.03070403 0.007029042 -0.9995038
vn -0.03070404 0.007029043 -0.9995038
vn -0.03070403 0.007029042 -0.9995038
vn -0.03070403 0.007029042 -0.9995038
vn -0.03070404 0.007029043 -0.9995038
vn 0.9542479 0.0725581 0.29008
vn 0.9542479 0.0725581 0.2900799
vn 0.9542479 0.0725581 0.29008
vn 0.9542479 0.0725581 0.29008
vn 0.9542479 0.0725581 0.2900799
vn 0.9542479 0.0725581 0.29008
vn 0.9542479 0.0725581 0.2900799
vn 0.9542479 0.0725581 0.29008
vn 0.9542479 0.0725581 0.29008
vn 0.005040263 0.04203998 0.9991032
vn 0.005040263 0.04203998 0.9991032
vn 0.005040263 0.04203998 0.9991032
vn 0.005040263 0.04203998 0.9991032
vn 0.005040264 0.04203998 0.9991032
vn 0.005040263 0.04203998 0.9991032
vn 0.005040263 0.04203998 0.9991032
vn 0.005040263 0.04203998 0.9991032
vn 0.005040264 0.04203998 0.9991032
vn -0.9717507 0.22873 0.05816531
vn -0.9717507 0.22873 0.0581653
vn -0.9717507 0.22873 0.05816531
vn -0.9717507 0.22873 0.05816531
vn -0.9717507 0.22873 0.05816531
vn -0.9717507 0.22873 0.05816531
vn -0.9717507 0.22873 0.05816531
vn -0.9717507 0.22873 0.0581653
vn -0.9717507 0.22873 0.05816531
vn 0.1261745 0.75792 0.6400292
vn 0.1261745 0.7579199 0.6400292
vn 0.1261745 0.75792 0.6400292
vn 0.1261745 0.75792 0.6400292
vn 0.1261745 0.75792 0.6400292
vn 0.1261745 0.7579199 0.6400292
vn -0.1536061 0.6057466 0.7806896
vn -0.1536061 0.6057466 0.7806896
vn -0.1536061 0.6057466 0.7806896
vn 0.8318773 0.5182579 -0.1984663
vn 0.8318773 0.5182579 -0.1984663
vn 0.8318773 0.5182579 -0.1984663
vn 0.156163 0.8063698 0.5704217
vn 0.156163 0.8063698 0.5704216
vn 0.156163 0.8063698 0.5704217
vn 0.1561303 0.7625622 0.6277916
vn 0.1561303 0.7625622 0.6277916
vn 0.1561303 0.7625622 0.6277916
vn 0.1561303 0.7625622 0.6277916
vn 0.1561303 0.7625622 0.6277916
vn 0.1561303 0.7625622 0.6277916
vn 0.1561303 0.7625622 0.6277916
vn 0.1561303 0.7625622 0.6277916
vn 0.1561303 0.7625622 0.6277916
vn 0.09015507 0.7923249 0.6034014
vn 0.09015508 0.7923249 0.6034015
vn 0.09015507 0.7923249 0.6034014
vn 0.09015507 0.7923249 0.6034014
vn 0.09015507 0.7923249 0.6034015
vn 0.09015507 0.7923249 0.6034014
vn 0.09015507 0.7923249 0.6034014
vn 0.09015506 0.7923249 0.6034014
vn 0.09015507 0.7923249 0.6034015
g Stone_Small_J_MultiMat_0
f 3/3/3 2/2/2 1/1/1
f 6/6/6 5/5/5 4/4/4
f 9/9/9 8/8/8 7/7/7
f 12/12/12 11/11/11 10/10/10
f 15/15/15 14/14/14 13/13/13
f 18/18/18 17/17/17 16/16/16
f 21/21/21 20/20/20 19/19/19
f 24/24/24 23/23/23 22/22/22
f 27/27/27 26/26/26 25/25/25
f 30/30/30 29/29/29 28/28/28
f 33/33/33 32/32/32 31/31/31
f 36/36/36 35/35/35 34/34/34
f 39/39/39 38/38/38 37/37/37
f 42/42/42 41/41/41 40/40/40
f 45/45/45 44/44/44 43/43/43
f 48/48/48 47/47/47 46/46/46
f 51/51/51 50/50/50 49/49/49
f 54/54/54 53/53/53 52/52/52
f 57/57/57 56/56/56 55/55/55
f 60/60/60 59/59/59 58/58/58
f 63/63/63 62/62/62 61/61/61
f 66/66/66 65/65/65 64/64/64
f 69/69/69 68/68/68 67/67/67
f 72/72/72 71/71/71 70/70/70
f 75/75/75 74/74/74 73/73/73
g Stone_Small_J_MultiMat_1
f 78/78/78 77/77/77 76/76/76
f 81/81/81 80/80/80 79/79/79
f 84/84/84 83/83/83 82/82/82
f 87/87/87 86/86/86 85/85/85
f 90/90/90 89/89/89 88/88/88
f 93/93/93 92/92/92 91/91/91
f 96/96/96 95/95/95 94/94/94
f 99/99/99 98/98/98 97/97/97
f 102/102/102 101/101/101 100/100/100
f 105/105/105 104/104/104 103/103/103
f 108/108/108 107/107/107 106/106/106
