g water1
v -87.93883 -7.094414 627.0174
v -96.19452 -7.094414 618.7602
v -89.60628 -7.094414 618.7497
v -81.36488 -7.094414 626.9921
v -89.45033 -7.094414 635.0766
v -96.00932 -7.094414 635.0866
v -81.237 -7.094414 643.2909
v -87.82021 -7.094414 643.2767
v -89.43608 -7.094414 651.4888
v -96.02322 -7.094414 651.4787
v -79.53885 -7.094421 667.9652
v -72.97496 -7.094421 667.9522
v -81.24449 -7.094421 676.2199
v -87.76567 -7.094421 676.1907
v -79.55522 -7.094421 684.4026
v -73.06386 -7.094421 684.4018
v -81.21507 -7.094421 692.5518
v -87.73503 -7.094421 692.5814
v -79.51137 -7.094429 700.8056
v -72.98784 -7.094429 700.7798
v -84.46286 -7.094429 712.2404
v -87.70476 -7.094429 708.9982
vt 0.9901806 0.1020449
vt 0.9901806 0.008882761
vt 0.01047421 0.008882761
vt 0.01047421 0.1020449
vt 0.01047421 0.1830533
vt 0.9901806 0.1830533
vt 0.01047421 0.2756782
vt 0.9901806 0.2756782
vt 0.01047421 0.3579212
vt 0.9901806 0.3579212
vt 0.9901806 0.5439604
vt 0.01047421 0.5439742
vt 0.01047421 0.626678
vt 0.9901806 0.626678
vt 0.9901806 0.7192426
vt 0.01047421 0.7192426
vt 0.01047421 0.8011283
vt 0.9901806 0.8011283
vt 0.9901806 0.894003
vt 0.01047421 0.8940443
vt 0.01047421 0.9925776
vt 0.9901806 0.9925776
vn 0 1 0
vn 0 1 0
vn 0 1 0
vn 0 1 0
vn 0 1 0
vn 0 1 0
vn 0 1 0
vn 0 1 0
vn 0 1 0
vn 0 1 0
vn 0 1 0
vn 0 1 0
vn 0 1 0
vn 0 1 0
vn 0 1 0
vn 0 1 0
vn 0 1 0
vn 0 1 0
vn 0 1 0
vn 0 1 0
vn 0 1 0
vn 0 1 0
g water1_0
f 3/3/3 2/2/2 1/1/1
f 4/4/4 3/3/3 1/1/1
f 4/4/4 1/1/1 5/5/5
f 1/1/1 6/6/6 5/5/5
f 7/7/7 5/5/5 6/6/6
f 8/8/8 7/7/7 6/6/6
f 7/7/7 8/8/8 9/9/9
f 8/8/8 10/10/10 9/9/9
f 9/9/9 10/10/10 11/11/11
f 12/12/12 9/9/9 11/11/11
f 12/12/12 11/11/11 13/13/13
f 11/11/11 14/14/14 13/13/13
f 13/13/13 14/14/14 15/15/15
f 16/16/16 13/13/13 15/15/15
f 16/16/16 15/15/15 17/17/17
f 15/15/15 18/18/18 17/17/17
f 17/17/17 18/18/18 19/19/19
f 20/20/20 17/17/17 19/19/19
f 20/20/20 19/19/19 21/21/21
f 19/19/19 22/22/22 21/21/21
